<svg width="51" height="48" viewBox="0 0 51 48" fill="none" xmlns="http://www.w3.org/2000/svg">
<path d="M6.91263 13.92L25.3675 24.02L43.8223 13.92M25.3675 44.16V24M44.3931 32V16C44.3923 15.2985 44.1966 14.6096 43.8255 14.0023C43.4545 13.395 42.9212 12.8907 42.2791 12.54L27.4814 4.54C26.8387 4.18893 26.1096 4.0041 25.3675 4.0041C24.6253 4.0041 23.8962 4.18893 23.2535 4.54L8.45582 12.54C7.81373 12.8907 7.28042 13.395 6.90938 14.0023C6.53834 14.6096 6.34263 15.2985 6.34187 16V32C6.34263 32.7015 6.53834 33.3904 6.90938 33.9977C7.28042 34.605 7.81373 35.1093 8.45582 35.46L23.2535 43.46C23.8962 43.8111 24.6253 43.9959 25.3675 43.9959C26.1096 43.9959 26.8387 43.8111 27.4814 43.46L42.2791 35.46C42.9212 35.1093 43.4545 34.605 43.8255 33.9977C44.1966 33.3904 44.3923 32.7015 44.3931 32Z" stroke="#391F0B" stroke-width="4" stroke-linecap="round" stroke-linejoin="round"/>
</svg>
