<svg width="333" height="85" viewBox="0 0 333 85" fill="none" xmlns="http://www.w3.org/2000/svg">
<rect x="1" y="1" width="331" height="83" rx="19" fill="#FFF5EF" stroke="url(#paint0_linear_536_392)" stroke-width="2"/>
<path d="M68.5347 45.04L61.1347 34.56H65.1347L70.6547 42.64L76.1347 34.56H80.0947L72.6947 45.04L80.4947 56H76.4947L70.6547 47.44L64.7347 56H60.7747L68.5347 45.04ZM102.485 45.24C102.485 47.0267 102.245 48.6133 101.765 50C101.312 51.36 100.645 52.52 99.7653 53.48C98.912 54.44 97.8586 55.1733 96.6053 55.68C95.3786 56.16 94.0053 56.4 92.4853 56.4C91.072 56.4 89.7653 56.16 88.5653 55.68C87.3653 55.1733 86.3253 54.44 85.4453 53.48C84.5653 52.52 83.872 51.36 83.3653 50C82.8853 48.6133 82.6453 47.0267 82.6453 45.24C82.6453 42.8667 83.0453 40.8667 83.8453 39.24C84.6453 37.5867 85.792 36.3333 87.2853 35.48C88.7786 34.6 90.552 34.16 92.6053 34.16C94.552 34.16 96.2586 34.6 97.7253 35.48C99.2186 36.3333 100.379 37.5867 101.205 39.24C102.059 40.8667 102.485 42.8667 102.485 45.24ZM86.2853 45.24C86.2853 46.92 86.4986 48.3867 86.9253 49.64C87.3786 50.8667 88.072 51.8133 89.0053 52.48C89.9386 53.1467 91.1253 53.48 92.5653 53.48C94.0053 53.48 95.192 53.1467 96.1253 52.48C97.0586 51.8133 97.7386 50.8667 98.1653 49.64C98.6186 48.3867 98.8453 46.92 98.8453 45.24C98.8453 43.5333 98.6186 42.08 98.1653 40.88C97.712 39.68 97.0186 38.76 96.0853 38.12C95.1786 37.4533 93.992 37.12 92.5253 37.12C90.3386 37.12 88.752 37.84 87.7653 39.28C86.7786 40.72 86.2853 42.7067 86.2853 45.24ZM110.753 42.36C110.753 43.6133 111.1 44.5467 111.793 45.16C112.513 45.7467 113.54 46.04 114.873 46.04C116.207 46.04 117.42 45.84 118.513 45.44C119.607 45.0133 120.727 44.4533 121.873 43.76V34.56H125.393V56H121.873V46.44C120.673 47.2133 119.487 47.8267 118.313 48.28C117.167 48.7067 115.78 48.92 114.153 48.92C111.967 48.92 110.26 48.3467 109.033 47.2C107.833 46.0533 107.233 44.52 107.233 42.6V34.56H110.753V42.36ZM128.845 34.56H132.605L137.245 46.76C137.511 47.48 137.751 48.1733 137.965 48.84C138.205 49.5067 138.418 50.16 138.605 50.8C138.791 51.4133 138.938 52.0133 139.045 52.6H139.205C139.365 51.9333 139.618 51.0667 139.965 50C140.311 48.9067 140.671 47.8133 141.045 46.72L145.405 34.56H149.205L139.965 58.96C139.458 60.2933 138.858 61.4533 138.165 62.44C137.498 63.4533 136.671 64.2267 135.685 64.76C134.725 65.32 133.551 65.6 132.165 65.6C131.525 65.6 130.965 65.56 130.485 65.48C130.005 65.4267 129.591 65.36 129.245 65.28V62.48C129.538 62.5333 129.885 62.5867 130.285 62.64C130.711 62.6933 131.151 62.72 131.605 62.72C132.431 62.72 133.138 62.56 133.725 62.24C134.338 61.9467 134.858 61.5067 135.285 60.92C135.711 60.36 136.071 59.6933 136.365 58.92L137.485 56.08L128.845 34.56ZM176.486 34.56H180.326L171.166 44.88L181.086 56H177.006L167.326 45.12V56H163.806V34.56H167.326V44.96L176.486 34.56ZM202.837 45.24C202.837 47.0267 202.597 48.6133 202.117 50C201.664 51.36 200.997 52.52 200.117 53.48C199.264 54.44 198.21 55.1733 196.957 55.68C195.73 56.16 194.357 56.4 192.837 56.4C191.424 56.4 190.117 56.16 188.917 55.68C187.717 55.1733 186.677 54.44 185.797 53.48C184.917 52.52 184.224 51.36 183.717 50C183.237 48.6133 182.997 47.0267 182.997 45.24C182.997 42.8667 183.397 40.8667 184.197 39.24C184.997 37.5867 186.144 36.3333 187.637 35.48C189.13 34.6 190.904 34.16 192.957 34.16C194.904 34.16 196.61 34.6 198.077 35.48C199.57 36.3333 200.73 37.5867 201.557 39.24C202.41 40.8667 202.837 42.8667 202.837 45.24ZM186.637 45.24C186.637 46.92 186.85 48.3867 187.277 49.64C187.73 50.8667 188.424 51.8133 189.357 52.48C190.29 53.1467 191.477 53.48 192.917 53.48C194.357 53.48 195.544 53.1467 196.477 52.48C197.41 51.8133 198.09 50.8667 198.517 49.64C198.97 48.3867 199.197 46.92 199.197 45.24C199.197 43.5333 198.97 42.08 198.517 40.88C198.064 39.68 197.37 38.76 196.437 38.12C195.53 37.4533 194.344 37.12 192.877 37.12C190.69 37.12 189.104 37.84 188.117 39.28C187.13 40.72 186.637 42.7067 186.637 45.24ZM222.825 37.52H215.825V56H212.345V37.52H205.425V34.56H222.825V37.52ZM230.368 47.64C230.368 47.88 230.355 48.2267 230.328 48.68C230.328 49.1067 230.315 49.5733 230.288 50.08C230.262 50.56 230.235 51.0267 230.208 51.48C230.182 51.9067 230.155 52.2533 230.128 52.52L241.608 34.56H245.928V56H242.648V43.36C242.648 42.9333 242.648 42.3733 242.648 41.68C242.675 40.9867 242.702 40.3067 242.728 39.64C242.755 38.9467 242.782 38.4267 242.808 38.08L231.408 56H227.048V34.56H230.368V47.64ZM265.432 34.56H269.272L260.112 44.88L270.032 56H265.952L256.272 45.12V56H252.752V34.56H256.272V44.96L265.432 34.56ZM282.043 34.2C284.657 34.2 286.59 34.7733 287.843 35.92C289.097 37.0667 289.723 38.8933 289.723 41.4V56H287.163L286.483 52.96H286.323C285.71 53.7333 285.07 54.3867 284.403 54.92C283.763 55.4267 283.017 55.8 282.163 56.04C281.337 56.28 280.323 56.4 279.123 56.4C277.843 56.4 276.683 56.1733 275.643 55.72C274.63 55.2667 273.83 54.5733 273.243 53.64C272.657 52.68 272.363 51.48 272.363 50.04C272.363 47.9067 273.203 46.2667 274.883 45.12C276.563 43.9467 279.15 43.3067 282.643 43.2L286.283 43.08V41.8C286.283 40.0133 285.897 38.7733 285.123 38.08C284.35 37.3867 283.257 37.04 281.843 37.04C280.723 37.04 279.657 37.2133 278.643 37.56C277.63 37.88 276.683 38.2533 275.803 38.68L274.723 36.04C275.657 35.5333 276.763 35.1067 278.043 34.76C279.323 34.3867 280.657 34.2 282.043 34.2ZM283.083 45.64C280.417 45.7467 278.563 46.1733 277.523 46.92C276.51 47.6667 276.003 48.72 276.003 50.08C276.003 51.28 276.363 52.16 277.083 52.72C277.83 53.28 278.777 53.56 279.923 53.56C281.737 53.56 283.243 53.0667 284.443 52.08C285.643 51.0667 286.243 49.52 286.243 47.44V45.52L283.083 45.64Z" fill="#724318"/>
<defs>
<linearGradient id="paint0_linear_536_392" x1="0" y1="42.5" x2="333" y2="42.5" gradientUnits="userSpaceOnUse">
<stop offset="0.225961" stop-color="#E19557"/>
<stop offset="1" stop-color="#7B512F"/>
</linearGradient>
</defs>
</svg>
