<svg width="43" height="42" viewBox="0 0 43 42" fill="none" xmlns="http://www.w3.org/2000/svg">
<rect width="41.1173" height="41.1173" transform="translate(0.952637 0.542908)" fill="white"/>
<path d="M36.6562 8.44086C35.7811 7.56541 34.7422 6.87094 33.5987 6.39713C32.4552 5.92332 31.2295 5.67944 29.9917 5.67944C28.7539 5.67944 27.5283 5.92332 26.3848 6.39713C25.2413 6.87094 24.2023 7.56541 23.3273 8.44086L21.5113 10.2569L19.6953 8.44086C17.9277 6.67334 15.5305 5.68036 13.0308 5.68036C10.5312 5.68036 8.13391 6.67334 6.36639 8.44086C4.59888 10.2084 3.6059 12.6056 3.6059 15.1053C3.6059 17.6049 4.59888 20.0022 6.36639 21.7697L21.5113 36.9146L36.6562 21.7697C37.5316 20.8947 38.2261 19.8557 38.6999 18.7122C39.1737 17.5687 39.4176 16.3431 39.4176 15.1053C39.4176 13.8675 39.1737 12.6419 38.6999 11.4984C38.2261 10.3548 37.5316 9.3159 36.6562 8.44086Z" stroke="#E5AA6F" stroke-width="4" stroke-linecap="round" stroke-linejoin="round"/>
<path d="M13.6015 9.27821C11.7253 9.3326 9.85772 9.50146 7.99869 9.75632C7.22395 9.86254 7.66031 9.6409 8.02857 9.40521C8.63756 9.01546 9.70192 8.62555 10.4191 9.01675C10.6698 9.15349 10.4415 9.67682 10.3145 9.81609C9.862 10.3124 10.3553 9.9006 10.5162 9.65921C11.3421 8.42036 12.5181 8.31259 13.7958 7.73183C13.9563 7.65886 14.0684 7.56307 14.2141 7.47036C14.8883 7.04132 16.5921 8.63576 17.023 8.99434C17.3122 9.23495 17.5808 9.50045 17.8821 9.72644C17.9611 9.78564 18.1787 9.91598 18.0838 9.94308C17.7481 10.039 17.2604 9.81457 16.9633 9.68162C16.1434 9.31484 17.1063 9.96994 17.3368 10.1074C18.2061 10.626 19.0634 11.1623 19.9216 11.6986C20.1225 11.8242 21.319 12.6619 21.5352 12.4457C21.8075 12.1733 21.99 11.7472 22.2075 11.4297C22.5323 10.9557 22.9608 10.6012 23.3281 10.1672C23.6714 9.76145 24.5461 9.3752 25.0538 9.13627C26.6622 8.37936 28.6855 7.66459 30.4923 7.66459C31.2312 7.66459 31.5516 7.59592 32.0835 8.12776C32.1819 8.22617 33.7193 9.91865 33.8764 9.62185C34.1859 9.03713 33.5325 8.00335 34.743 8.8001C35.7606 9.46992 36.9193 10.4583 37.6415 11.4596C37.8803 11.7907 38.0745 12.191 38.2391 12.5652C38.7107 13.6368 36.7184 11.8177 36.5882 11.6986C35.1299 10.3654 33.0381 8.32112 30.9256 8.20994C29.9491 8.15854 29.0879 8.35385 28.1839 8.71046C27.6693 8.91347 26.6619 9.00142 26.249 9.34545C25.2986 10.1374 28.416 8.04278 29.6332 7.82147C30.2873 7.70254 28.8226 8.89276 28.3034 9.30809C27.4717 9.97349 26.559 10.5352 25.6589 11.101C25.1092 11.4465 23.9721 11.8889 23.5671 12.4457C23.4683 12.5816 23.9052 12.406 24.0602 12.3411C24.7929 12.0344 25.4715 11.6666 26.2416 11.4446C28.059 10.9207 30.2589 10.5482 32.1582 10.5482C34.5322 10.5482 27.4349 11.1072 25.0612 11.1458C24.1059 11.1614 22.811 11.3123 21.834 11.1309C21.8329 11.1307 23.6591 10.4329 23.7464 10.4137C24.1004 10.336 28.9003 9.50187 28.9982 10.0402C29.0939 10.5665 24.5023 11.4675 23.9855 11.5791C22.3614 11.93 25.4186 10.6713 25.6141 10.593C27.3074 9.91442 29.1276 9.23312 30.9554 9.02422C31.6034 8.95016 31.9078 10.0785 32.0237 10.5631C32.3024 11.7287 32.2192 13.0578 31.71 14.149C31.6646 14.2461 31.7049 14.2656 31.8145 14.2237C32.2114 14.0719 32.4115 13.5977 32.5915 13.2525C32.8367 12.7822 33.2418 11.4146 33.8166 11.2056C33.8201 11.2043 33.9629 13.6917 33.9959 13.895C34.014 14.0063 34.4476 15.6326 34.8475 14.9184C35.2697 14.1645 35.1516 13.0432 35.2584 12.2066C35.4098 11.0209 35.5877 12.053 35.6245 12.625C35.6933 13.6951 35.519 15.1556 35.9905 16.151C36.258 16.7158 36.4574 15.3549 36.4612 15.3293C36.4701 15.2691 36.6808 13.8037 36.7226 14.3058C36.7992 15.2242 36.6481 16.2322 36.3267 17.0923C35.9227 18.1736 35.5494 19.3293 34.982 20.3345C33.6958 22.6129 31.4409 24.1146 29.4688 25.7581C28.6513 26.4393 28.1628 27.5273 27.3995 28.2906C26.8593 28.8307 26.3191 29.4747 25.7037 29.9191C25.1038 30.3524 24.8468 31.0401 24.3291 31.5701C23.883 32.0268 23.4381 32.4118 22.8799 32.7056C21.9387 33.201 21.2982 33.3926 20.2951 32.8102C18.1915 31.5887 17.0393 29.2169 15.4094 27.4389C14.9964 26.9884 14.1944 26.5934 13.6314 26.3557C12.7548 25.9856 11.9355 25.5742 11.0765 25.1754C10.5171 24.9156 10.1636 23.882 9.80654 23.3974C9.28127 22.6845 8.7964 21.93 8.25269 21.231C6.81297 19.3799 5.66791 17.75 5.66791 15.277C5.66791 14.2598 5.55779 13.2384 6.00408 12.2963C6.22364 11.8328 6.43842 11.3102 6.5793 10.8171C6.66825 10.5058 6.60918 11.9611 6.60918 12.0946C6.60918 13.7505 6.60918 15.4065 6.60918 17.0624C6.60918 17.17 6.50867 19.1881 7.01259 18.9002C7.27142 18.7523 7.36147 18.2773 7.41599 18.0411C7.70669 16.7814 7.78794 15.4643 7.87916 14.1788C7.978 12.7861 8.08834 8.59915 8.08834 9.99538C8.08834 11.9218 8.18802 13.8442 8.21533 15.77C8.2197 16.0778 7.95723 19.0001 8.49174 19.0944C8.69908 19.131 8.76055 16.4745 8.76815 16.3752C8.92534 14.3186 8.9404 12.1939 9.40314 10.1747C9.4032 10.1744 9.75329 12.1641 9.77666 12.5353C9.92175 14.8397 9.72985 17.1655 10.0381 19.4605C10.0667 19.673 10.201 20.2948 10.2099 20.0805C10.2504 19.1108 9.46308 17.6732 9.16408 16.8084C8.77829 15.6926 8.40438 14.5706 7.99869 13.4617C7.95452 13.3409 7.82129 12.9565 7.71481 12.7968C7.67749 12.7408 7.7038 12.9338 7.72228 12.9985C8.2388 14.8063 8.85724 16.613 9.4629 18.3922C9.79806 19.3767 10.203 21.0447 10.9869 21.8286C11.3461 22.1879 11.5601 21.641 11.6144 21.3804C12.1348 18.8825 11.562 16.2758 11.0466 13.8277C10.6508 11.9473 10.1026 10.0694 9.98584 8.1427C9.87648 6.3383 10.9648 9.47001 11.0765 9.80115C11.9163 12.2894 12.3459 14.8859 12.9815 17.4285C13.3087 18.7374 13.4976 20.0624 14.0049 21.3206C14.2106 21.8307 15.2347 23.8244 13.8854 23.248C13.1866 22.9495 11.9537 22.2335 11.5621 21.5372C11.4624 21.3599 11.6828 21.4265 11.7489 21.47C12.08 21.6881 12.2468 22.1069 12.3913 22.4561C12.9374 23.7758 13.3518 25.0161 14.3486 26.0793C14.6732 26.4255 15.2209 26.7425 15.6186 26.9982C16.5271 27.5822 17.3319 28.2385 18.1436 28.9554C19.0056 29.7169 19.7204 30.592 20.5267 31.3983C21.0306 31.9022 21.1076 31.8689 21.9236 31.8689C22.4269 31.8689 22.499 31.4751 22.6856 31.077C22.8698 30.6842 23.2963 30.4549 23.2833 29.9863C23.268 29.4368 22.6679 28.4197 22.073 28.3727C20.6308 28.2589 19.0262 27.5064 17.9195 26.6097C17.0277 25.8871 16.2249 25.0916 15.4916 24.2117C15.407 24.1102 14.8335 23.2909 15.3347 23.6514C16.3866 24.408 17.1922 25.5495 18.0689 26.4902C18.9821 27.4701 19.8879 28.431 20.7134 29.4858C20.8631 29.6771 21.4786 30.337 21.7443 30.2403C22.265 30.051 22.7408 29.0144 23.0592 28.5968C23.3381 28.231 23.5602 27.7529 23.9556 27.4987C24.6128 27.0762 26.9472 28.3979 26.1893 28.2084C25.5477 28.048 24.9099 27.5322 24.3366 27.2148C23.3017 26.6419 22.2635 26.1215 21.1766 25.6535C19.7305 25.0308 18.1198 24.8759 16.7018 24.2042C16.3796 24.0516 14.9904 23.6066 16.0668 23.5617C18.7619 23.4494 21.2328 25.154 23.8211 25.6535C24.6254 25.8087 25.5894 25.7196 26.4059 25.6834C27.2507 25.6458 27.7071 24.9005 28.408 24.6001C29.155 24.28 29.3042 22.7275 29.663 22.0751C29.9262 21.5967 30.7102 21.0286 31.1795 20.7678C32.3373 20.1246 34.2637 19.7573 35.1015 18.691C35.4015 18.3092 35.769 17.6092 35.4601 17.1073C35.2451 16.7579 34.874 16.8053 34.5786 16.5395C33.9972 16.0163 33.0713 15.8672 32.3225 15.8672C31.5214 15.8672 31.2169 14.1255 31.2169 13.4467C31.2169 13.2117 31.2588 13.1948 31.4111 13.4318C32.313 14.8346 32.8503 16.5403 33.4655 18.0784C33.5824 18.3705 34.2902 19.6434 34.2499 20.0058C34.2123 20.3446 32.9942 19.6142 32.965 19.5875C30.7241 17.5414 29.0563 14.4336 27.9299 11.6688C27.5495 10.7351 29.0948 13.0159 29.1849 13.1629C29.9855 14.4682 30.3457 15.8479 30.806 17.2866C31.1695 18.4224 30.097 16.9213 29.8647 16.6516C28.9749 15.6181 28.1439 14.5228 27.1679 13.5663C27.1301 13.5292 27.097 13.4825 27.0484 13.4617C26.9214 13.4073 27.1741 13.7078 27.2426 13.8277C27.8292 14.8543 28.2961 15.9215 28.6994 17.0326C28.9025 17.5924 30.1575 20.3986 28.9758 18.3474C27.7559 16.23 24.6154 9.60461 25.5842 11.8481C26.3867 13.7066 27.5273 15.4196 28.4379 17.2268C28.5655 17.48 28.7722 17.8121 28.8264 18.1008C28.9041 18.5156 28.1349 17.6111 27.8328 17.3164C26.559 16.0741 25.3086 14.5392 23.7464 13.641C23.3903 13.4362 24.8439 14.2152 24.8819 14.2386C26.454 15.206 27.7847 16.5147 29.1028 17.7945C29.3506 18.0352 30.6561 18.9511 30.679 19.3633C30.6877 19.52 30.1257 19.7138 30.0067 19.7667C28.659 20.3657 27.9426 21.2617 27.392 22.613C27.103 23.3224 26.1366 21.6724 26.0175 21.4999C24.8432 19.8004 23.5033 17.9609 23.2011 15.8672C23.1454 15.4815 22.8635 13.099 23.4177 12.7296C23.6112 12.6006 25.969 17.5185 26.5553 17.8244C27.6751 18.4086 28.4325 18.8798 28.7367 20.215C29.0821 21.7307 27.7426 21.4775 26.7794 20.7827C26.5385 20.6089 23.9744 17.7659 25.121 18.0411C26.8838 18.4641 27.522 22.0493 27.1679 23.5543C27.0341 24.123 24.2857 23.4398 23.9705 23.248C23.3949 22.8976 22.4719 21.704 21.6696 21.9332C20.825 22.1745 21.2844 23.6114 20.1307 23.5319C19.042 23.4568 17.9979 22.6407 17.0678 22.1349C16.4036 21.7736 15.823 21.2894 15.2152 20.8425C14.8025 20.5391 14.3185 20.4391 15.0433 20.4391C16.1029 20.4391 17.122 20.6753 18.1585 20.8724C19.364 21.1016 20.8626 21.7348 22.1029 21.6493C22.7573 21.6042 23.1005 20.8687 23.5522 20.5138C24.4669 19.7951 22.6128 19.8029 22.0282 19.6397C20.7853 19.2929 19.4225 19.4115 18.1436 19.3559C16.6079 19.2891 14.6286 18.6209 13.4596 17.6078C13.2945 17.4647 12.6179 17.0477 12.6827 16.7562C12.7653 16.3842 14.3729 16.6907 14.5428 16.7337C16.3144 17.1827 17.9485 18.1552 19.5929 18.9226C20.104 19.1611 21.2527 19.6544 21.8041 19.2737C22.3873 18.871 23.4677 16.9432 22.4466 16.5395C21.2372 16.0614 19.4983 16.674 18.2332 16.674C16.2332 16.674 14.3657 15.6952 12.9516 14.3282C12.5122 13.9035 11.6172 11.7366 12.9292 12.5652C14.661 13.659 16.0915 15.1572 17.8298 16.2556C18.4482 16.6464 19.1048 17.1265 19.8693 17.0699C21.0085 16.9855 21.6354 15.4696 20.9151 14.5374C20.5798 14.1034 19.8906 14.0174 19.3837 13.9921C18.2024 13.933 16.9739 14.0967 15.8427 13.6559C14.9391 13.3038 13.9967 12.4404 13.6165 11.5418C13.5097 11.2893 12.9396 10.0119 13.2579 9.74138C13.8712 9.2201 15.9755 11.3713 16.2685 11.6389C17.2142 12.5028 18.0184 13.4859 18.9205 14.388C19.4916 14.9591 18.8555 14.0715 18.674 13.9024C17.9522 13.2298 17.1879 12.5914 16.4254 11.9676" stroke="#E5AA6F" stroke-width="3" stroke-linecap="round"/>
</svg>
