<svg width="38" height="38" viewBox="0 0 38 38" fill="none" xmlns="http://www.w3.org/2000/svg">
<path d="M13.3003 26.9167L19.0003 21.2167L24.7003 26.9167L26.917 24.7L21.217 19L26.917 13.3L24.7003 11.0833L19.0003 16.7833L13.3003 11.0833L11.0837 13.3L16.7837 19L11.0837 24.7L13.3003 26.9167ZM19.0003 34.8333C16.81 34.8333 14.7517 34.4177 12.8253 33.5864C10.8989 32.7552 9.22324 31.6271 7.79824 30.2021C6.37324 28.7771 5.24512 27.1014 4.41387 25.175C3.58262 23.2486 3.16699 21.1903 3.16699 19C3.16699 16.8097 3.58262 14.7514 4.41387 12.825C5.24512 10.8986 6.37324 9.22291 7.79824 7.79791C9.22324 6.37291 10.8989 5.24478 12.8253 4.41353C14.7517 3.58228 16.81 3.16666 19.0003 3.16666C21.1906 3.16666 23.2489 3.58228 25.1753 4.41353C27.1017 5.24478 28.7774 6.37291 30.2024 7.79791C31.6274 9.22291 32.7555 10.8986 33.5868 12.825C34.418 14.7514 34.8337 16.8097 34.8337 19C34.8337 21.1903 34.418 23.2486 33.5868 25.175C32.7555 27.1014 31.6274 28.7771 30.2024 30.2021C28.7774 31.6271 27.1017 32.7552 25.1753 33.5864C23.2489 34.4177 21.1906 34.8333 19.0003 34.8333ZM19.0003 31.6667C22.5364 31.6667 25.5316 30.4396 27.9857 27.9854C30.4399 25.5312 31.667 22.5361 31.667 19C31.667 15.4639 30.4399 12.4687 27.9857 10.0146C25.5316 7.56041 22.5364 6.33332 19.0003 6.33332C15.4642 6.33332 12.4691 7.56041 10.0149 10.0146C7.56074 12.4687 6.33366 15.4639 6.33366 19C6.33366 22.5361 7.56074 25.5312 10.0149 27.9854C12.4691 30.4396 15.4642 31.6667 19.0003 31.6667Z" fill="#88532C"/>
</svg>
