<svg width="314" height="309" viewBox="0 0 314 309" fill="none" xmlns="http://www.w3.org/2000/svg">
<rect x="5" width="309" height="309" fill="#D3C2B6"/>
<ellipse cx="115.929" cy="146.81" rx="100.773" ry="59.4624" transform="rotate(22.7528 115.929 146.81)" fill="#DCB193"/>
<ellipse cx="216.702" cy="141.176" rx="86.377" ry="53.8291" fill="#DCB193"/>
<ellipse cx="115.187" cy="225.614" rx="70.7456" ry="44.4403" transform="rotate(4.10105 115.187 225.614)" fill="#DCB193"/>
<ellipse cx="201.054" cy="225.676" rx="70.729" ry="44.4403" fill="#DCB193"/>
<path d="M80.089 55V30.724H98.313V55H95.287V33.41H83.149V55H80.089ZM113.22 36.436C115.464 36.436 117.266 37.218 118.626 38.782C120.009 40.346 120.7 42.7033 120.7 45.854C120.7 47.9167 120.383 49.662 119.748 51.09C119.136 52.4953 118.263 53.5607 117.13 54.286C116.019 54.9887 114.705 55.34 113.186 55.34C112.257 55.34 111.429 55.2153 110.704 54.966C109.979 54.7167 109.355 54.3993 108.834 54.014C108.335 53.606 107.905 53.164 107.542 52.688H107.338C107.383 53.0733 107.429 53.5607 107.474 54.15C107.519 54.7393 107.542 55.2493 107.542 55.68V63.16H104.55V36.776H106.998L107.406 39.258H107.542C107.905 38.7367 108.335 38.2607 108.834 37.83C109.355 37.3993 109.967 37.0593 110.67 36.81C111.395 36.5607 112.245 36.436 113.22 36.436ZM112.676 38.952C111.452 38.952 110.466 39.19 109.718 39.666C108.97 40.1193 108.426 40.8107 108.086 41.74C107.746 42.6693 107.565 43.848 107.542 45.276V45.854C107.542 47.35 107.701 48.6193 108.018 49.662C108.335 50.7047 108.868 51.498 109.616 52.042C110.387 52.586 111.429 52.858 112.744 52.858C113.855 52.858 114.761 52.552 115.464 51.94C116.189 51.328 116.722 50.5007 117.062 49.458C117.425 48.3927 117.606 47.18 117.606 45.82C117.606 43.7347 117.198 42.0687 116.382 40.822C115.589 39.5753 114.353 38.952 112.676 38.952ZM141.312 45.854C141.312 47.3727 141.108 48.7213 140.7 49.9C140.315 51.056 139.748 52.042 139 52.858C138.275 53.674 137.379 54.2973 136.314 54.728C135.271 55.136 134.104 55.34 132.812 55.34C131.611 55.34 130.5 55.136 129.48 54.728C128.46 54.2973 127.576 53.674 126.828 52.858C126.08 52.042 125.491 51.056 125.06 49.9C124.652 48.7213 124.448 47.3727 124.448 45.854C124.448 43.8367 124.788 42.1367 125.468 40.754C126.148 39.3487 127.123 38.2833 128.392 37.558C129.661 36.81 131.169 36.436 132.914 36.436C134.569 36.436 136.019 36.81 137.266 37.558C138.535 38.2833 139.521 39.3487 140.224 40.754C140.949 42.1367 141.312 43.8367 141.312 45.854ZM127.542 45.854C127.542 47.282 127.723 48.5287 128.086 49.594C128.471 50.6367 129.061 51.4413 129.854 52.008C130.647 52.5747 131.656 52.858 132.88 52.858C134.104 52.858 135.113 52.5747 135.906 52.008C136.699 51.4413 137.277 50.6367 137.64 49.594C138.025 48.5287 138.218 47.282 138.218 45.854C138.218 44.4033 138.025 43.168 137.64 42.148C137.255 41.128 136.665 40.346 135.872 39.802C135.101 39.2353 134.093 38.952 132.846 38.952C130.987 38.952 129.639 39.564 128.8 40.788C127.961 42.012 127.542 43.7007 127.542 45.854ZM153.364 55.34C151.755 55.34 150.315 55.0113 149.046 54.354C147.799 53.6967 146.813 52.6767 146.088 51.294C145.385 49.9113 145.034 48.1433 145.034 45.99C145.034 43.746 145.408 41.9213 146.156 40.516C146.904 39.1107 147.913 38.0793 149.182 37.422C150.474 36.7647 151.936 36.436 153.568 36.436C154.497 36.436 155.393 36.538 156.254 36.742C157.115 36.9233 157.818 37.15 158.362 37.422L157.444 39.904C156.9 39.7 156.265 39.5073 155.54 39.326C154.815 39.1447 154.135 39.054 153.5 39.054C152.276 39.054 151.267 39.3147 150.474 39.836C149.681 40.3573 149.091 41.128 148.706 42.148C148.321 43.168 148.128 44.4373 148.128 45.956C148.128 47.4067 148.321 48.642 148.706 49.662C149.091 50.682 149.669 51.4527 150.44 51.974C151.211 52.4953 152.174 52.756 153.33 52.756C154.327 52.756 155.2 52.654 155.948 52.45C156.719 52.246 157.421 51.9967 158.056 51.702V54.354C157.444 54.6713 156.764 54.9093 156.016 55.068C155.291 55.2493 154.407 55.34 153.364 55.34ZM181.94 36.776V55H179.254V43.372C179.254 42.896 179.265 42.3973 179.288 41.876C179.333 41.3547 179.379 40.8447 179.424 40.346H179.322L173.372 55H170.856L165.076 40.346H164.974C165.019 40.8447 165.042 41.3547 165.042 41.876C165.065 42.3973 165.076 42.93 165.076 43.474V55H162.39V36.776H166.368L172.114 51.43L177.962 36.776H181.94ZM203.601 45.854C203.601 47.3727 203.397 48.7213 202.989 49.9C202.604 51.056 202.037 52.042 201.289 52.858C200.564 53.674 199.669 54.2973 198.603 54.728C197.561 55.136 196.393 55.34 195.101 55.34C193.9 55.34 192.789 55.136 191.769 54.728C190.749 54.2973 189.865 53.674 189.117 52.858C188.369 52.042 187.78 51.056 187.349 49.9C186.941 48.7213 186.737 47.3727 186.737 45.854C186.737 43.8367 187.077 42.1367 187.757 40.754C188.437 39.3487 189.412 38.2833 190.681 37.558C191.951 36.81 193.458 36.436 195.203 36.436C196.858 36.436 198.309 36.81 199.555 37.558C200.825 38.2833 201.811 39.3487 202.513 40.754C203.239 42.1367 203.601 43.8367 203.601 45.854ZM189.831 45.854C189.831 47.282 190.013 48.5287 190.375 49.594C190.761 50.6367 191.35 51.4413 192.143 52.008C192.937 52.5747 193.945 52.858 195.169 52.858C196.393 52.858 197.402 52.5747 198.195 52.008C198.989 51.4413 199.567 50.6367 199.929 49.594C200.315 48.5287 200.507 47.282 200.507 45.854C200.507 44.4033 200.315 43.168 199.929 42.148C199.544 41.128 198.955 40.346 198.161 39.802C197.391 39.2353 196.382 38.952 195.135 38.952C193.277 38.952 191.928 39.564 191.089 40.788C190.251 42.012 189.831 43.7007 189.831 45.854ZM220.591 39.292H214.641V55H211.683V39.292H205.801V36.776H220.591V39.292ZM232.851 36.436C235.095 36.436 236.897 37.218 238.257 38.782C239.64 40.346 240.331 42.7033 240.331 45.854C240.331 47.9167 240.014 49.662 239.379 51.09C238.767 52.4953 237.894 53.5607 236.761 54.286C235.65 54.9887 234.336 55.34 232.817 55.34C231.888 55.34 231.06 55.2153 230.335 54.966C229.61 54.7167 228.986 54.3993 228.465 54.014C227.966 53.606 227.536 53.164 227.173 52.688H226.969C227.014 53.0733 227.06 53.5607 227.105 54.15C227.15 54.7393 227.173 55.2493 227.173 55.68V63.16H224.181V36.776H226.629L227.037 39.258H227.173C227.536 38.7367 227.966 38.2607 228.465 37.83C228.986 37.3993 229.598 37.0593 230.301 36.81C231.026 36.5607 231.876 36.436 232.851 36.436ZM232.307 38.952C231.083 38.952 230.097 39.19 229.349 39.666C228.601 40.1193 228.057 40.8107 227.717 41.74C227.377 42.6693 227.196 43.848 227.173 45.276V45.854C227.173 47.35 227.332 48.6193 227.649 49.662C227.966 50.7047 228.499 51.498 229.247 52.042C230.018 52.586 231.06 52.858 232.375 52.858C233.486 52.858 234.392 52.552 235.095 51.94C235.82 51.328 236.353 50.5007 236.693 49.458C237.056 48.3927 237.237 47.18 237.237 45.82C237.237 43.7347 236.829 42.0687 236.013 40.822C235.22 39.5753 233.984 38.952 232.307 38.952Z" fill="#724318"/>
<path d="M86.5462 130H84.2962V121.675H75.1462V130H72.8962V112.15H75.1462V119.7H84.2962V112.15H86.5462V130ZM96.2015 116.375C97.8348 116.375 99.0431 116.733 99.8265 117.45C100.61 118.167 101.001 119.308 101.001 120.875V130H99.4015L98.9765 128.1H98.8765C98.4931 128.583 98.0931 128.992 97.6765 129.325C97.2765 129.642 96.8098 129.875 96.2765 130.025C95.7598 130.175 95.1265 130.25 94.3765 130.25C93.5765 130.25 92.8515 130.108 92.2015 129.825C91.5681 129.542 91.0681 129.108 90.7015 128.525C90.3348 127.925 90.1515 127.175 90.1515 126.275C90.1515 124.942 90.6765 123.917 91.7265 123.2C92.7765 122.467 94.3931 122.067 96.5765 122L98.8515 121.925V121.125C98.8515 120.008 98.6098 119.233 98.1265 118.8C97.6431 118.367 96.9598 118.15 96.0765 118.15C95.3765 118.15 94.7098 118.258 94.0765 118.475C93.4431 118.675 92.8515 118.908 92.3015 119.175L91.6265 117.525C92.2098 117.208 92.9015 116.942 93.7015 116.725C94.5015 116.492 95.3348 116.375 96.2015 116.375ZM96.8515 123.525C95.1848 123.592 94.0265 123.858 93.3765 124.325C92.7431 124.792 92.4265 125.45 92.4265 126.3C92.4265 127.05 92.6515 127.6 93.1015 127.95C93.5681 128.3 94.1598 128.475 94.8765 128.475C96.0098 128.475 96.9515 128.167 97.7015 127.55C98.4515 126.917 98.8265 125.95 98.8265 124.65V123.45L96.8515 123.525ZM115.99 111.05C115.923 111.883 115.715 112.583 115.365 113.15C115.032 113.717 114.532 114.142 113.865 114.425C113.198 114.708 112.332 114.85 111.265 114.85C110.182 114.85 109.307 114.708 108.64 114.425C107.99 114.142 107.515 113.725 107.215 113.175C106.915 112.608 106.732 111.9 106.665 111.05H108.715C108.798 111.95 109.032 112.558 109.415 112.875C109.815 113.175 110.448 113.325 111.315 113.325C112.082 113.325 112.682 113.167 113.115 112.85C113.565 112.517 113.832 111.917 113.915 111.05H115.99ZM107.215 124.775C107.215 124.925 107.207 125.142 107.19 125.425C107.19 125.692 107.182 125.983 107.165 126.3C107.148 126.6 107.132 126.892 107.115 127.175C107.098 127.442 107.082 127.658 107.065 127.825L114.24 116.6H116.94V130H114.89V122.1C114.89 121.833 114.89 121.483 114.89 121.05C114.907 120.617 114.923 120.192 114.94 119.775C114.957 119.342 114.973 119.017 114.99 118.8L107.865 130H105.14V116.6H107.215V124.775ZM131.155 116.6V128.15H133.105V134.65H130.98V130H121.655V134.65H119.555V128.15H120.63C121.396 127.083 122.03 125.925 122.53 124.675C123.046 123.408 123.43 122.092 123.68 120.725C123.946 119.342 124.088 117.967 124.105 116.6H131.155ZM126.055 118.325C125.988 119.458 125.813 120.633 125.53 121.85C125.246 123.05 124.88 124.2 124.43 125.3C123.996 126.4 123.488 127.35 122.905 128.15H129.03V118.325H126.055ZM137.806 124.775C137.806 124.925 137.798 125.142 137.781 125.425C137.781 125.692 137.773 125.983 137.756 126.3C137.739 126.6 137.723 126.892 137.706 127.175C137.689 127.442 137.673 127.658 137.656 127.825L144.831 116.6H147.531V130H145.481V122.1C145.481 121.833 145.481 121.483 145.481 121.05C145.498 120.617 145.514 120.192 145.531 119.775C145.548 119.342 145.564 119.017 145.581 118.8L138.456 130H135.731V116.6H137.806V124.775ZM161.045 118.45H156.67V130H154.495V118.45H150.17V116.6H161.045V118.45ZM168.616 116.35C169.766 116.35 170.749 116.6 171.566 117.1C172.399 117.6 173.033 118.308 173.466 119.225C173.916 120.125 174.141 121.183 174.141 122.4V123.725H164.966C164.999 125.242 165.383 126.4 166.116 127.2C166.866 127.983 167.908 128.375 169.241 128.375C170.091 128.375 170.841 128.3 171.491 128.15C172.158 127.983 172.841 127.75 173.541 127.45V129.375C172.858 129.675 172.183 129.892 171.516 130.025C170.849 130.175 170.058 130.25 169.141 130.25C167.874 130.25 166.749 129.992 165.766 129.475C164.799 128.958 164.041 128.192 163.491 127.175C162.958 126.142 162.691 124.883 162.691 123.4C162.691 121.933 162.933 120.675 163.416 119.625C163.916 118.575 164.608 117.767 165.491 117.2C166.391 116.633 167.433 116.35 168.616 116.35ZM168.591 118.15C167.541 118.15 166.708 118.492 166.091 119.175C165.491 119.842 165.133 120.775 165.016 121.975H171.841C171.841 121.208 171.724 120.542 171.491 119.975C171.258 119.408 170.899 118.967 170.416 118.65C169.949 118.317 169.341 118.15 168.591 118.15ZM189.934 130.25C188.751 130.25 187.692 130.008 186.759 129.525C185.842 129.042 185.117 128.292 184.584 127.275C184.067 126.258 183.809 124.958 183.809 123.375C183.809 121.725 184.084 120.383 184.634 119.35C185.184 118.317 185.926 117.558 186.859 117.075C187.809 116.592 188.884 116.35 190.084 116.35C190.767 116.35 191.426 116.425 192.059 116.575C192.692 116.708 193.209 116.875 193.609 117.075L192.934 118.9C192.534 118.75 192.067 118.608 191.534 118.475C191.001 118.342 190.501 118.275 190.034 118.275C189.134 118.275 188.392 118.467 187.809 118.85C187.226 119.233 186.792 119.8 186.509 120.55C186.226 121.3 186.084 122.233 186.084 123.35C186.084 124.417 186.226 125.325 186.509 126.075C186.792 126.825 187.217 127.392 187.784 127.775C188.351 128.158 189.059 128.35 189.909 128.35C190.642 128.35 191.284 128.275 191.834 128.125C192.401 127.975 192.917 127.792 193.384 127.575V129.525C192.934 129.758 192.434 129.933 191.884 130.05C191.351 130.183 190.701 130.25 189.934 130.25ZM202.946 116.35C204.596 116.35 205.921 116.925 206.921 118.075C207.937 119.225 208.446 120.958 208.446 123.275C208.446 124.792 208.212 126.075 207.746 127.125C207.296 128.158 206.654 128.942 205.821 129.475C205.004 129.992 204.037 130.25 202.921 130.25C202.237 130.25 201.629 130.158 201.096 129.975C200.562 129.792 200.104 129.558 199.721 129.275C199.354 128.975 199.037 128.65 198.771 128.3H198.621C198.654 128.583 198.687 128.942 198.721 129.375C198.754 129.808 198.771 130.183 198.771 130.5V136H196.571V116.6H198.371L198.671 118.425H198.771C199.037 118.042 199.354 117.692 199.721 117.375C200.104 117.058 200.554 116.808 201.071 116.625C201.604 116.442 202.229 116.35 202.946 116.35ZM202.546 118.2C201.646 118.2 200.921 118.375 200.371 118.725C199.821 119.058 199.421 119.567 199.171 120.25C198.921 120.933 198.787 121.8 198.771 122.85V123.275C198.771 124.375 198.887 125.308 199.121 126.075C199.354 126.842 199.746 127.425 200.296 127.825C200.862 128.225 201.629 128.425 202.596 128.425C203.412 128.425 204.079 128.2 204.596 127.75C205.129 127.3 205.521 126.692 205.771 125.925C206.037 125.142 206.171 124.25 206.171 123.25C206.171 121.717 205.871 120.492 205.271 119.575C204.687 118.658 203.779 118.2 202.546 118.2ZM217.127 116.35C218.277 116.35 219.26 116.6 220.077 117.1C220.91 117.6 221.543 118.308 221.977 119.225C222.427 120.125 222.652 121.183 222.652 122.4V123.725H213.477C213.51 125.242 213.893 126.4 214.627 127.2C215.377 127.983 216.418 128.375 217.752 128.375C218.602 128.375 219.352 128.3 220.002 128.15C220.668 127.983 221.352 127.75 222.052 127.45V129.375C221.368 129.675 220.693 129.892 220.027 130.025C219.36 130.175 218.568 130.25 217.652 130.25C216.385 130.25 215.26 129.992 214.277 129.475C213.31 128.958 212.552 128.192 212.002 127.175C211.468 126.142 211.202 124.883 211.202 123.4C211.202 121.933 211.443 120.675 211.927 119.625C212.427 118.575 213.118 117.767 214.002 117.2C214.902 116.633 215.943 116.35 217.127 116.35ZM217.102 118.15C216.052 118.15 215.218 118.492 214.602 119.175C214.002 119.842 213.643 120.775 213.527 121.975H220.352C220.352 121.208 220.235 120.542 220.002 119.975C219.768 119.408 219.41 118.967 218.927 118.65C218.46 118.317 217.852 118.15 217.102 118.15ZM236.013 116.6V128.15H237.963V134.65H235.838V130H226.513V134.65H224.413V128.15H225.488C226.255 127.083 226.888 125.925 227.388 124.675C227.905 123.408 228.288 122.092 228.538 120.725C228.805 119.342 228.946 117.967 228.963 116.6H236.013ZM230.913 118.325C230.846 119.458 230.671 120.633 230.388 121.85C230.105 123.05 229.738 124.2 229.288 125.3C228.855 126.4 228.346 127.35 227.763 128.15H233.888V118.325H230.913ZM242.664 124.775C242.664 124.925 242.656 125.142 242.639 125.425C242.639 125.692 242.631 125.983 242.614 126.3C242.598 126.6 242.581 126.892 242.564 127.175C242.548 127.442 242.531 127.658 242.514 127.825L249.689 116.6H252.389V130H250.339V122.1C250.339 121.833 250.339 121.483 250.339 121.05C250.356 120.617 250.373 120.192 250.389 119.775C250.406 119.342 250.423 119.017 250.439 118.8L243.314 130H240.589V116.6H242.664V124.775ZM96.5265 151.275C96.5265 152.392 96.3765 153.383 96.0765 154.25C95.7931 155.1 95.3765 155.825 94.8265 156.425C94.2931 157.025 93.6348 157.483 92.8515 157.8C92.0848 158.1 91.2265 158.25 90.2765 158.25C89.3931 158.25 88.5765 158.1 87.8265 157.8C87.0765 157.483 86.4265 157.025 85.8765 156.425C85.3265 155.825 84.8931 155.1 84.5765 154.25C84.2765 153.383 84.1265 152.392 84.1265 151.275C84.1265 149.792 84.3765 148.542 84.8765 147.525C85.3765 146.492 86.0931 145.708 87.0265 145.175C87.9598 144.625 89.0681 144.35 90.3515 144.35C91.5681 144.35 92.6348 144.625 93.5515 145.175C94.4848 145.708 95.2098 146.492 95.7265 147.525C96.2598 148.542 96.5265 149.792 96.5265 151.275ZM86.4015 151.275C86.4015 152.325 86.5348 153.242 86.8015 154.025C87.0848 154.792 87.5181 155.383 88.1015 155.8C88.6848 156.217 89.4265 156.425 90.3265 156.425C91.2265 156.425 91.9681 156.217 92.5515 155.8C93.1348 155.383 93.5598 154.792 93.8265 154.025C94.1098 153.242 94.2515 152.325 94.2515 151.275C94.2515 150.208 94.1098 149.3 93.8265 148.55C93.5431 147.8 93.1098 147.225 92.5265 146.825C91.9598 146.408 91.2181 146.2 90.3015 146.2C88.9348 146.2 87.9431 146.65 87.3265 147.55C86.7098 148.45 86.4015 149.692 86.4015 151.275ZM99.3132 149.95C99.3132 148 99.5049 146.342 99.8882 144.975C100.288 143.592 100.897 142.492 101.713 141.675C102.547 140.842 103.613 140.283 104.913 140C105.997 139.767 107.055 139.558 108.088 139.375C109.122 139.192 110.088 139.025 110.988 138.875L111.363 140.8C110.93 140.867 110.447 140.95 109.913 141.05C109.38 141.133 108.838 141.225 108.288 141.325C107.738 141.408 107.205 141.5 106.688 141.6C106.188 141.683 105.747 141.767 105.363 141.85C104.813 141.967 104.322 142.167 103.888 142.45C103.455 142.717 103.08 143.083 102.763 143.55C102.463 144.017 102.222 144.592 102.038 145.275C101.855 145.958 101.747 146.767 101.713 147.7H101.863C102.097 147.383 102.413 147.058 102.813 146.725C103.23 146.392 103.722 146.108 104.288 145.875C104.872 145.642 105.53 145.525 106.263 145.525C107.43 145.525 108.397 145.783 109.163 146.3C109.947 146.8 110.53 147.5 110.913 148.4C111.313 149.3 111.513 150.35 111.513 151.55C111.513 153.033 111.255 154.275 110.738 155.275C110.222 156.275 109.505 157.025 108.588 157.525C107.672 158.008 106.605 158.25 105.388 158.25C104.472 158.25 103.638 158.075 102.888 157.725C102.138 157.358 101.497 156.825 100.963 156.125C100.43 155.425 100.022 154.558 99.7382 153.525C99.4549 152.492 99.3132 151.3 99.3132 149.95ZM105.563 156.425C106.297 156.425 106.93 156.275 107.463 155.975C108.013 155.675 108.438 155.183 108.738 154.5C109.038 153.817 109.188 152.908 109.188 151.775C109.188 150.408 108.93 149.333 108.413 148.55C107.913 147.75 107.08 147.35 105.913 147.35C105.18 147.35 104.513 147.517 103.913 147.85C103.313 148.167 102.813 148.533 102.413 148.95C102.013 149.367 101.73 149.717 101.563 150C101.563 150.817 101.622 151.608 101.738 152.375C101.855 153.142 102.055 153.833 102.338 154.45C102.638 155.05 103.047 155.533 103.563 155.9C104.097 156.25 104.763 156.425 105.563 156.425ZM119.779 144.6V150.1H123.479C124.712 150.1 125.729 150.242 126.529 150.525C127.329 150.808 127.921 151.233 128.304 151.8C128.704 152.367 128.904 153.067 128.904 153.9C128.904 154.733 128.721 155.458 128.354 156.075C127.987 156.692 127.404 157.167 126.604 157.5C125.804 157.833 124.754 158 123.454 158H117.579V146.45H113.304V144.6H119.779ZM123.404 151.95H119.779V156.225H123.479C124.462 156.225 125.246 156.058 125.829 155.725C126.429 155.392 126.729 154.825 126.729 154.025C126.729 153.225 126.454 152.683 125.904 152.4C125.354 152.1 124.521 151.95 123.404 151.95ZM133.211 158H130.661L134.486 152.375C133.97 152.242 133.47 152.033 132.986 151.75C132.503 151.45 132.111 151.042 131.811 150.525C131.511 149.992 131.361 149.333 131.361 148.55C131.361 147.267 131.795 146.292 132.661 145.625C133.528 144.942 134.678 144.6 136.111 144.6H142.111V158H139.911V152.675H136.661L133.211 158ZM133.486 148.575C133.486 149.342 133.77 149.917 134.336 150.3C134.92 150.667 135.728 150.85 136.761 150.85H139.911V146.425H136.336C135.32 146.425 134.586 146.625 134.136 147.025C133.703 147.425 133.486 147.942 133.486 148.575ZM157.126 147.975C157.126 148.808 156.876 149.458 156.376 149.925C155.876 150.392 155.234 150.708 154.451 150.875V150.975C155.284 151.092 156.009 151.392 156.626 151.875C157.243 152.342 157.551 153.075 157.551 154.075C157.551 154.642 157.443 155.167 157.226 155.65C157.026 156.133 156.709 156.55 156.276 156.9C155.843 157.25 155.284 157.525 154.601 157.725C153.918 157.908 153.093 158 152.126 158H146.351V144.6H152.101C153.051 144.6 153.901 144.708 154.651 144.925C155.418 145.125 156.018 145.475 156.451 145.975C156.901 146.458 157.126 147.125 157.126 147.975ZM155.276 154.075C155.276 153.308 154.984 152.758 154.401 152.425C153.818 152.092 152.959 151.925 151.826 151.925H148.551V156.225H151.876C152.976 156.225 153.818 156.067 154.401 155.75C154.984 155.417 155.276 154.858 155.276 154.075ZM154.901 148.25C154.901 147.617 154.668 147.158 154.201 146.875C153.751 146.575 153.009 146.425 151.976 146.425H148.551V150.1H151.576C152.659 150.1 153.484 149.95 154.051 149.65C154.618 149.35 154.901 148.883 154.901 148.25ZM170.955 158H168.73V146.425H164.78C164.614 148.542 164.405 150.35 164.155 151.85C163.905 153.333 163.589 154.542 163.205 155.475C162.822 156.408 162.364 157.092 161.83 157.525C161.297 157.958 160.672 158.175 159.955 158.175C159.739 158.175 159.522 158.158 159.305 158.125C159.105 158.108 158.939 158.067 158.805 158V156.35C158.905 156.383 159.014 156.408 159.13 156.425C159.247 156.442 159.364 156.45 159.48 156.45C159.847 156.45 160.18 156.3 160.48 156C160.78 155.7 161.047 155.242 161.28 154.625C161.53 154.008 161.755 153.233 161.955 152.3C162.155 151.35 162.33 150.233 162.48 148.95C162.63 147.667 162.764 146.217 162.88 144.6H170.955V158ZM180.383 144.35C181.533 144.35 182.517 144.6 183.333 145.1C184.167 145.6 184.8 146.308 185.233 147.225C185.683 148.125 185.908 149.183 185.908 150.4V151.725H176.733C176.767 153.242 177.15 154.4 177.883 155.2C178.633 155.983 179.675 156.375 181.008 156.375C181.858 156.375 182.608 156.3 183.258 156.15C183.925 155.983 184.608 155.75 185.308 155.45V157.375C184.625 157.675 183.95 157.892 183.283 158.025C182.617 158.175 181.825 158.25 180.908 158.25C179.642 158.25 178.517 157.992 177.533 157.475C176.567 156.958 175.808 156.192 175.258 155.175C174.725 154.142 174.458 152.883 174.458 151.4C174.458 149.933 174.7 148.675 175.183 147.625C175.683 146.575 176.375 145.767 177.258 145.2C178.158 144.633 179.2 144.35 180.383 144.35ZM180.358 146.15C179.308 146.15 178.475 146.492 177.858 147.175C177.258 147.842 176.9 148.775 176.783 149.975H183.608C183.608 149.208 183.492 148.542 183.258 147.975C183.025 147.408 182.667 146.967 182.183 146.65C181.717 146.317 181.108 146.15 180.358 146.15ZM191.52 144.6V150.175H198.795V144.6H200.995V158H198.795V152.025H191.52V158H189.32V144.6H191.52ZM207.313 152.775C207.313 152.925 207.304 153.142 207.288 153.425C207.288 153.692 207.279 153.983 207.263 154.3C207.246 154.6 207.229 154.892 207.213 155.175C207.196 155.442 207.179 155.658 207.163 155.825L214.338 144.6H217.038V158H214.988V150.1C214.988 149.833 214.988 149.483 214.988 149.05C215.004 148.617 215.021 148.192 215.038 147.775C215.054 147.342 215.071 147.017 215.088 146.8L207.963 158H205.238V144.6H207.313V152.775ZM232.152 139.05C232.086 139.883 231.877 140.583 231.527 141.15C231.194 141.717 230.694 142.142 230.027 142.425C229.361 142.708 228.494 142.85 227.427 142.85C226.344 142.85 225.469 142.708 224.802 142.425C224.152 142.142 223.677 141.725 223.377 141.175C223.077 140.608 222.894 139.9 222.827 139.05H224.877C224.961 139.95 225.194 140.558 225.577 140.875C225.977 141.175 226.611 141.325 227.477 141.325C228.244 141.325 228.844 141.167 229.277 140.85C229.727 140.517 229.994 139.917 230.077 139.05H232.152ZM223.377 152.775C223.377 152.925 223.369 153.142 223.352 153.425C223.352 153.692 223.344 153.983 223.327 154.3C223.311 154.6 223.294 154.892 223.277 155.175C223.261 155.442 223.244 155.658 223.227 155.825L230.402 144.6H233.102V158H231.052V150.1C231.052 149.833 231.052 149.483 231.052 149.05C231.069 148.617 231.086 148.192 231.102 147.775C231.119 147.342 231.136 147.017 231.152 146.8L224.027 158H221.302V144.6H223.377V152.775ZM138.968 172.6H141.368L135.643 179.05L141.843 186H139.293L133.243 179.2V186H131.043V172.6H133.243V179.1L138.968 172.6ZM155.438 179.275C155.438 180.392 155.288 181.383 154.988 182.25C154.704 183.1 154.288 183.825 153.738 184.425C153.204 185.025 152.546 185.483 151.763 185.8C150.996 186.1 150.138 186.25 149.188 186.25C148.304 186.25 147.488 186.1 146.738 185.8C145.988 185.483 145.338 185.025 144.788 184.425C144.238 183.825 143.804 183.1 143.488 182.25C143.188 181.383 143.038 180.392 143.038 179.275C143.038 177.792 143.288 176.542 143.788 175.525C144.288 174.492 145.004 173.708 145.938 173.175C146.871 172.625 147.979 172.35 149.263 172.35C150.479 172.35 151.546 172.625 152.463 173.175C153.396 173.708 154.121 174.492 154.638 175.525C155.171 176.542 155.438 177.792 155.438 179.275ZM145.313 179.275C145.313 180.325 145.446 181.242 145.713 182.025C145.996 182.792 146.429 183.383 147.013 183.8C147.596 184.217 148.338 184.425 149.238 184.425C150.138 184.425 150.879 184.217 151.463 183.8C152.046 183.383 152.471 182.792 152.738 182.025C153.021 181.242 153.163 180.325 153.163 179.275C153.163 178.208 153.021 177.3 152.738 176.55C152.454 175.8 152.021 175.225 151.438 174.825C150.871 174.408 150.129 174.2 149.213 174.2C147.846 174.2 146.854 174.65 146.238 175.55C145.621 176.45 145.313 177.692 145.313 179.275ZM167.93 174.45H163.555V186H161.38V174.45H157.055V172.6H167.93V174.45ZM175.645 172.375C177.278 172.375 178.486 172.733 179.27 173.45C180.053 174.167 180.445 175.308 180.445 176.875V186H178.845L178.42 184.1H178.32C177.936 184.583 177.536 184.992 177.12 185.325C176.72 185.642 176.253 185.875 175.72 186.025C175.203 186.175 174.57 186.25 173.82 186.25C173.02 186.25 172.295 186.108 171.645 185.825C171.011 185.542 170.511 185.108 170.145 184.525C169.778 183.925 169.595 183.175 169.595 182.275C169.595 180.942 170.12 179.917 171.17 179.2C172.22 178.467 173.836 178.067 176.02 178L178.295 177.925V177.125C178.295 176.008 178.053 175.233 177.57 174.8C177.086 174.367 176.403 174.15 175.52 174.15C174.82 174.15 174.153 174.258 173.52 174.475C172.886 174.675 172.295 174.908 171.745 175.175L171.07 173.525C171.653 173.208 172.345 172.942 173.145 172.725C173.945 172.492 174.778 172.375 175.645 172.375ZM176.295 179.525C174.628 179.592 173.47 179.858 172.82 180.325C172.186 180.792 171.87 181.45 171.87 182.3C171.87 183.05 172.095 183.6 172.545 183.95C173.011 184.3 173.603 184.475 174.32 184.475C175.453 184.475 176.395 184.167 177.145 183.55C177.895 182.917 178.27 181.95 178.27 180.65V179.45L176.295 179.525ZM187.83 184.755C187.83 185.113 187.793 185.5 187.72 185.915C187.655 186.321 187.545 186.724 187.39 187.123C187.244 187.53 187.048 187.912 186.804 188.271C186.568 188.637 186.279 188.946 185.938 189.198L184.607 188.271C184.835 188.01 185.006 187.762 185.12 187.526C185.234 187.298 185.323 187.066 185.388 186.83C185.144 186.781 184.916 186.696 184.705 186.574C184.493 186.452 184.31 186.297 184.155 186.11C184.001 185.931 183.879 185.727 183.789 185.5C183.7 185.264 183.655 185.015 183.655 184.755C183.655 184.47 183.708 184.201 183.813 183.949C183.927 183.697 184.078 183.477 184.265 183.29C184.46 183.103 184.68 182.956 184.924 182.851C185.177 182.737 185.445 182.68 185.73 182.68C186.023 182.68 186.296 182.737 186.548 182.851C186.808 182.956 187.032 183.103 187.219 183.29C187.415 183.477 187.565 183.697 187.671 183.949C187.777 184.201 187.83 184.47 187.83 184.755ZM92.8503 200.6H95.2503L89.5253 207.05L95.7253 214H93.1753L87.1253 207.2V214H84.9253V200.6H87.1253V207.1L92.8503 200.6ZM109.319 207.275C109.319 208.392 109.169 209.383 108.869 210.25C108.586 211.1 108.169 211.825 107.619 212.425C107.086 213.025 106.428 213.483 105.644 213.8C104.878 214.1 104.019 214.25 103.069 214.25C102.186 214.25 101.369 214.1 100.619 213.8C99.8694 213.483 99.2194 213.025 98.6694 212.425C98.1194 211.825 97.6861 211.1 97.3694 210.25C97.0694 209.383 96.9194 208.392 96.9194 207.275C96.9194 205.792 97.1694 204.542 97.6694 203.525C98.1694 202.492 98.8861 201.708 99.8194 201.175C100.753 200.625 101.861 200.35 103.144 200.35C104.361 200.35 105.428 200.625 106.344 201.175C107.278 201.708 108.003 202.492 108.519 203.525C109.053 204.542 109.319 205.792 109.319 207.275ZM99.1944 207.275C99.1944 208.325 99.3278 209.242 99.5944 210.025C99.8778 210.792 100.311 211.383 100.894 211.8C101.478 212.217 102.219 212.425 103.119 212.425C104.019 212.425 104.761 212.217 105.344 211.8C105.928 211.383 106.353 210.792 106.619 210.025C106.903 209.242 107.044 208.325 107.044 207.275C107.044 206.208 106.903 205.3 106.619 204.55C106.336 203.8 105.903 203.225 105.319 202.825C104.753 202.408 104.011 202.2 103.094 202.2C101.728 202.2 100.736 202.65 100.119 203.55C99.5028 204.45 99.1944 205.692 99.1944 207.275ZM121.812 202.45H117.437V214H115.262V202.45H110.937V200.6H121.812V202.45ZM135.858 207.275C135.858 208.392 135.708 209.383 135.408 210.25C135.124 211.1 134.708 211.825 134.158 212.425C133.624 213.025 132.966 213.483 132.183 213.8C131.416 214.1 130.558 214.25 129.608 214.25C128.724 214.25 127.908 214.1 127.158 213.8C126.408 213.483 125.758 213.025 125.208 212.425C124.658 211.825 124.224 211.1 123.908 210.25C123.608 209.383 123.458 208.392 123.458 207.275C123.458 205.792 123.708 204.542 124.208 203.525C124.708 202.492 125.424 201.708 126.358 201.175C127.291 200.625 128.399 200.35 129.683 200.35C130.899 200.35 131.966 200.625 132.883 201.175C133.816 201.708 134.541 202.492 135.058 203.525C135.591 204.542 135.858 205.792 135.858 207.275ZM125.733 207.275C125.733 208.325 125.866 209.242 126.133 210.025C126.416 210.792 126.849 211.383 127.433 211.8C128.016 212.217 128.758 212.425 129.658 212.425C130.558 212.425 131.299 212.217 131.883 211.8C132.466 211.383 132.891 210.792 133.158 210.025C133.441 209.242 133.583 208.325 133.583 207.275C133.583 206.208 133.441 205.3 133.158 204.55C132.874 203.8 132.441 203.225 131.858 202.825C131.291 202.408 130.549 202.2 129.633 202.2C128.266 202.2 127.274 202.65 126.658 203.55C126.041 204.45 125.733 205.692 125.733 207.275ZM145.719 200.35C147.369 200.35 148.694 200.925 149.694 202.075C150.711 203.225 151.219 204.958 151.219 207.275C151.219 208.792 150.986 210.075 150.519 211.125C150.069 212.158 149.428 212.942 148.594 213.475C147.778 213.992 146.811 214.25 145.694 214.25C145.011 214.25 144.403 214.158 143.869 213.975C143.336 213.792 142.878 213.558 142.494 213.275C142.128 212.975 141.811 212.65 141.544 212.3H141.394C141.428 212.583 141.461 212.942 141.494 213.375C141.528 213.808 141.544 214.183 141.544 214.5V220H139.344V200.6H141.144L141.444 202.425H141.544C141.811 202.042 142.128 201.692 142.494 201.375C142.878 201.058 143.328 200.808 143.844 200.625C144.378 200.442 145.003 200.35 145.719 200.35ZM145.319 202.2C144.419 202.2 143.694 202.375 143.144 202.725C142.594 203.058 142.194 203.567 141.944 204.25C141.694 204.933 141.561 205.8 141.544 206.85V207.275C141.544 208.375 141.661 209.308 141.894 210.075C142.128 210.842 142.519 211.425 143.069 211.825C143.636 212.225 144.403 212.425 145.369 212.425C146.186 212.425 146.853 212.2 147.369 211.75C147.903 211.3 148.294 210.692 148.544 209.925C148.811 209.142 148.944 208.25 148.944 207.25C148.944 205.717 148.644 204.492 148.044 203.575C147.461 202.658 146.553 202.2 145.319 202.2ZM154.725 214V200.6H156.925V206.1H160.4C161.567 206.1 162.525 206.242 163.275 206.525C164.025 206.808 164.583 207.233 164.95 207.8C165.317 208.35 165.5 209.05 165.5 209.9C165.5 210.733 165.317 211.458 164.95 212.075C164.6 212.692 164.042 213.167 163.275 213.5C162.525 213.833 161.533 214 160.3 214H154.725ZM160.1 212.225C161.05 212.225 161.825 212.067 162.425 211.75C163.025 211.417 163.325 210.842 163.325 210.025C163.325 209.208 163.05 208.658 162.5 208.375C161.95 208.075 161.158 207.925 160.125 207.925H156.925V212.225H160.1ZM167.725 214V200.6H169.925V214H167.725ZM185.033 195.05C184.966 195.883 184.758 196.583 184.408 197.15C184.075 197.717 183.575 198.142 182.908 198.425C182.241 198.708 181.375 198.85 180.308 198.85C179.225 198.85 178.35 198.708 177.683 198.425C177.033 198.142 176.558 197.725 176.258 197.175C175.958 196.608 175.775 195.9 175.708 195.05H177.758C177.841 195.95 178.075 196.558 178.458 196.875C178.858 197.175 179.491 197.325 180.358 197.325C181.125 197.325 181.725 197.167 182.158 196.85C182.608 196.517 182.875 195.917 182.958 195.05H185.033ZM176.258 208.775C176.258 208.925 176.25 209.142 176.233 209.425C176.233 209.692 176.225 209.983 176.208 210.3C176.191 210.6 176.175 210.892 176.158 211.175C176.141 211.442 176.125 211.658 176.108 211.825L183.283 200.6H185.983V214H183.933V206.1C183.933 205.833 183.933 205.483 183.933 205.05C183.95 204.617 183.966 204.192 183.983 203.775C184 203.342 184.016 203.017 184.033 202.8L176.908 214H174.183V200.6H176.258V208.775ZM208.029 203.975C208.029 204.808 207.779 205.458 207.279 205.925C206.779 206.392 206.138 206.708 205.354 206.875V206.975C206.188 207.092 206.913 207.392 207.529 207.875C208.146 208.342 208.454 209.075 208.454 210.075C208.454 210.642 208.346 211.167 208.129 211.65C207.929 212.133 207.613 212.55 207.179 212.9C206.746 213.25 206.188 213.525 205.504 213.725C204.821 213.908 203.996 214 203.029 214H197.254V200.6H203.004C203.954 200.6 204.804 200.708 205.554 200.925C206.321 201.125 206.921 201.475 207.354 201.975C207.804 202.458 208.029 203.125 208.029 203.975ZM206.179 210.075C206.179 209.308 205.888 208.758 205.304 208.425C204.721 208.092 203.863 207.925 202.729 207.925H199.454V212.225H202.779C203.879 212.225 204.721 212.067 205.304 211.75C205.888 211.417 206.179 210.858 206.179 210.075ZM205.804 204.25C205.804 203.617 205.571 203.158 205.104 202.875C204.654 202.575 203.913 202.425 202.879 202.425H199.454V206.1H202.479C203.563 206.1 204.388 205.95 204.954 205.65C205.521 205.35 205.804 204.883 205.804 204.25ZM216.734 200.375C218.367 200.375 219.575 200.733 220.359 201.45C221.142 202.167 221.534 203.308 221.534 204.875V214H219.934L219.509 212.1H219.409C219.025 212.583 218.625 212.992 218.209 213.325C217.809 213.642 217.342 213.875 216.809 214.025C216.292 214.175 215.659 214.25 214.909 214.25C214.109 214.25 213.384 214.108 212.734 213.825C212.1 213.542 211.6 213.108 211.234 212.525C210.867 211.925 210.684 211.175 210.684 210.275C210.684 208.942 211.209 207.917 212.259 207.2C213.309 206.467 214.925 206.067 217.109 206L219.384 205.925V205.125C219.384 204.008 219.142 203.233 218.659 202.8C218.175 202.367 217.492 202.15 216.609 202.15C215.909 202.15 215.242 202.258 214.609 202.475C213.975 202.675 213.384 202.908 212.834 203.175L212.159 201.525C212.742 201.208 213.434 200.942 214.234 200.725C215.034 200.492 215.867 200.375 216.734 200.375ZM217.384 207.525C215.717 207.592 214.559 207.858 213.909 208.325C213.275 208.792 212.959 209.45 212.959 210.3C212.959 211.05 213.184 211.6 213.634 211.95C214.1 212.3 214.692 212.475 215.409 212.475C216.542 212.475 217.484 212.167 218.234 211.55C218.984 210.917 219.359 209.95 219.359 208.65V207.45L217.384 207.525ZM240.047 200.6V214H238.072V205.45C238.072 205.1 238.081 204.733 238.097 204.35C238.131 203.967 238.164 203.592 238.197 203.225H238.122L233.747 214H231.897L227.647 203.225H227.572C227.606 203.592 227.622 203.967 227.622 204.35C227.639 204.733 227.647 205.125 227.647 205.525V214H225.672V200.6H228.597L232.822 211.375L237.122 200.6H240.047ZM100.584 228.6V242H98.3838V230.475H91.4588V242H89.2588V228.6H100.584ZM116.509 235.275C116.509 236.392 116.359 237.383 116.059 238.25C115.776 239.1 115.359 239.825 114.809 240.425C114.276 241.025 113.618 241.483 112.834 241.8C112.068 242.1 111.209 242.25 110.259 242.25C109.376 242.25 108.559 242.1 107.809 241.8C107.059 241.483 106.409 241.025 105.859 240.425C105.309 239.825 104.876 239.1 104.559 238.25C104.259 237.383 104.109 236.392 104.109 235.275C104.109 233.792 104.359 232.542 104.859 231.525C105.359 230.492 106.076 229.708 107.009 229.175C107.943 228.625 109.051 228.35 110.334 228.35C111.551 228.35 112.618 228.625 113.534 229.175C114.468 229.708 115.193 230.492 115.709 231.525C116.243 232.542 116.509 233.792 116.509 235.275ZM106.384 235.275C106.384 236.325 106.518 237.242 106.784 238.025C107.068 238.792 107.501 239.383 108.084 239.8C108.668 240.217 109.409 240.425 110.309 240.425C111.209 240.425 111.951 240.217 112.534 239.8C113.118 239.383 113.543 238.792 113.809 238.025C114.093 237.242 114.234 236.325 114.234 235.275C114.234 234.208 114.093 233.3 113.809 232.55C113.526 231.8 113.093 231.225 112.509 230.825C111.943 230.408 111.201 230.2 110.284 230.2C108.918 230.2 107.926 230.65 107.309 231.55C106.693 232.45 106.384 233.692 106.384 235.275ZM122.196 228.6V234.175H129.471V228.6H131.671V242H129.471V236.025H122.196V242H119.996V228.6H122.196ZM142.289 228.35C143.939 228.35 145.264 228.925 146.264 230.075C147.281 231.225 147.789 232.958 147.789 235.275C147.789 236.792 147.556 238.075 147.089 239.125C146.639 240.158 145.997 240.942 145.164 241.475C144.347 241.992 143.381 242.25 142.264 242.25C141.581 242.25 140.972 242.158 140.439 241.975C139.906 241.792 139.447 241.558 139.064 241.275C138.697 240.975 138.381 240.65 138.114 240.3H137.964C137.997 240.583 138.031 240.942 138.064 241.375C138.097 241.808 138.114 242.183 138.114 242.5V248H135.914V228.6H137.714L138.014 230.425H138.114C138.381 230.042 138.697 229.692 139.064 229.375C139.447 229.058 139.897 228.808 140.414 228.625C140.947 228.442 141.572 228.35 142.289 228.35ZM141.889 230.2C140.989 230.2 140.264 230.375 139.714 230.725C139.164 231.058 138.764 231.567 138.514 232.25C138.264 232.933 138.131 233.8 138.114 234.85V235.275C138.114 236.375 138.231 237.308 138.464 238.075C138.697 238.842 139.089 239.425 139.639 239.825C140.206 240.225 140.972 240.425 141.939 240.425C142.756 240.425 143.422 240.2 143.939 239.75C144.472 239.3 144.864 238.692 145.114 237.925C145.381 237.142 145.514 236.25 145.514 235.25C145.514 233.717 145.214 232.492 144.614 231.575C144.031 230.658 143.122 230.2 141.889 230.2ZM156.37 228.375C158.003 228.375 159.212 228.733 159.995 229.45C160.778 230.167 161.17 231.308 161.17 232.875V242H159.57L159.145 240.1H159.045C158.662 240.583 158.262 240.992 157.845 241.325C157.445 241.642 156.978 241.875 156.445 242.025C155.928 242.175 155.295 242.25 154.545 242.25C153.745 242.25 153.02 242.108 152.37 241.825C151.737 241.542 151.237 241.108 150.87 240.525C150.503 239.925 150.32 239.175 150.32 238.275C150.32 236.942 150.845 235.917 151.895 235.2C152.945 234.467 154.562 234.067 156.745 234L159.02 233.925V233.125C159.02 232.008 158.778 231.233 158.295 230.8C157.812 230.367 157.128 230.15 156.245 230.15C155.545 230.15 154.878 230.258 154.245 230.475C153.612 230.675 153.02 230.908 152.47 231.175L151.795 229.525C152.378 229.208 153.07 228.942 153.87 228.725C154.67 228.492 155.503 228.375 156.37 228.375ZM157.02 235.525C155.353 235.592 154.195 235.858 153.545 236.325C152.912 236.792 152.595 237.45 152.595 238.3C152.595 239.05 152.82 239.6 153.27 239.95C153.737 240.3 154.328 240.475 155.045 240.475C156.178 240.475 157.12 240.167 157.87 239.55C158.62 238.917 158.995 237.95 158.995 236.65V235.45L157.02 235.525ZM176.084 231.975C176.084 232.808 175.834 233.458 175.334 233.925C174.834 234.392 174.192 234.708 173.409 234.875V234.975C174.242 235.092 174.967 235.392 175.584 235.875C176.2 236.342 176.509 237.075 176.509 238.075C176.509 238.642 176.4 239.167 176.184 239.65C175.984 240.133 175.667 240.55 175.234 240.9C174.8 241.25 174.242 241.525 173.559 241.725C172.875 241.908 172.05 242 171.084 242H165.309V228.6H171.059C172.009 228.6 172.859 228.708 173.609 228.925C174.375 229.125 174.975 229.475 175.409 229.975C175.859 230.458 176.084 231.125 176.084 231.975ZM174.234 238.075C174.234 237.308 173.942 236.758 173.359 236.425C172.775 236.092 171.917 235.925 170.784 235.925H167.509V240.225H170.834C171.934 240.225 172.775 240.067 173.359 239.75C173.942 239.417 174.234 238.858 174.234 238.075ZM173.859 232.25C173.859 231.617 173.625 231.158 173.159 230.875C172.709 230.575 171.967 230.425 170.934 230.425H167.509V234.1H170.534C171.617 234.1 172.442 233.95 173.009 233.65C173.575 233.35 173.859 232.883 173.859 232.25ZM181.788 236.775C181.788 236.925 181.78 237.142 181.763 237.425C181.763 237.692 181.755 237.983 181.738 238.3C181.721 238.6 181.705 238.892 181.688 239.175C181.671 239.442 181.655 239.658 181.638 239.825L188.813 228.6H191.513V242H189.463V234.1C189.463 233.833 189.463 233.483 189.463 233.05C189.48 232.617 189.496 232.192 189.513 231.775C189.53 231.342 189.546 231.017 189.563 230.8L182.438 242H179.713V228.6H181.788V236.775ZM205.027 230.45H200.652V242H198.477V230.45H194.152V228.6H205.027V230.45ZM212.798 242.25C211.615 242.25 210.556 242.008 209.623 241.525C208.706 241.042 207.981 240.292 207.448 239.275C206.931 238.258 206.673 236.958 206.673 235.375C206.673 233.725 206.948 232.383 207.498 231.35C208.048 230.317 208.79 229.558 209.723 229.075C210.673 228.592 211.748 228.35 212.948 228.35C213.631 228.35 214.29 228.425 214.923 228.575C215.556 228.708 216.073 228.875 216.473 229.075L215.798 230.9C215.398 230.75 214.931 230.608 214.398 230.475C213.865 230.342 213.365 230.275 212.898 230.275C211.998 230.275 211.256 230.467 210.673 230.85C210.09 231.233 209.656 231.8 209.373 232.55C209.09 233.3 208.948 234.233 208.948 235.35C208.948 236.417 209.09 237.325 209.373 238.075C209.656 238.825 210.081 239.392 210.648 239.775C211.215 240.158 211.923 240.35 212.773 240.35C213.506 240.35 214.148 240.275 214.698 240.125C215.265 239.975 215.781 239.792 216.248 239.575V241.525C215.798 241.758 215.298 241.933 214.748 242.05C214.215 242.183 213.565 242.25 212.798 242.25ZM220.26 242H217.71L221.535 236.375C221.018 236.242 220.518 236.033 220.035 235.75C219.551 235.45 219.16 235.042 218.86 234.525C218.56 233.992 218.41 233.333 218.41 232.55C218.41 231.267 218.843 230.292 219.71 229.625C220.576 228.942 221.726 228.6 223.16 228.6H229.16V242H226.96V236.675H223.71L220.26 242ZM220.535 232.575C220.535 233.342 220.818 233.917 221.385 234.3C221.968 234.667 222.776 234.85 223.81 234.85H226.96V230.425H223.385C222.368 230.425 221.635 230.625 221.185 231.025C220.751 231.425 220.535 231.942 220.535 232.575ZM236.646 240.755C236.646 241.048 236.593 241.325 236.487 241.585C236.381 241.837 236.235 242.057 236.047 242.244C235.86 242.431 235.64 242.578 235.388 242.684C235.136 242.798 234.863 242.854 234.57 242.854C234.285 242.854 234.013 242.798 233.752 242.684C233.5 242.578 233.276 242.431 233.081 242.244C232.894 242.057 232.743 241.837 232.629 241.585C232.524 241.325 232.471 241.048 232.471 240.755C232.471 240.47 232.524 240.201 232.629 239.949C232.743 239.697 232.894 239.477 233.081 239.29C233.276 239.103 233.5 238.956 233.752 238.851C234.013 238.737 234.285 238.68 234.57 238.68C234.863 238.68 235.136 238.737 235.388 238.851C235.64 238.956 235.86 239.103 236.047 239.29C236.235 239.477 236.381 239.697 236.487 239.949C236.593 240.201 236.646 240.47 236.646 240.755Z" fill="#724318"/>
</svg>
