<svg width="317" height="309" viewBox="0 0 317 309" fill="none" xmlns="http://www.w3.org/2000/svg">
<rect x="8" width="309" height="309" fill="#FFF5EF"/>
<ellipse cx="118.958" cy="144.262" rx="103.407" ry="61.0165" transform="rotate(22.7528 118.958 144.262)" fill="#D3C2B6"/>
<ellipse cx="222.365" cy="138.481" rx="88.6345" ry="55.236" fill="#D3C2B6"/>
<ellipse cx="118.197" cy="225.125" rx="72.5946" ry="45.6018" transform="rotate(4.10105 118.197 225.125)" fill="#D3C2B6"/>
<ellipse cx="206.309" cy="225.189" rx="72.5775" ry="45.6018" fill="#D3C2B6"/>
<path d="M52.7928 33.07C51.5008 33.07 50.3335 33.2967 49.2908 33.75C48.2482 34.1807 47.3642 34.8267 46.6388 35.688C45.9135 36.5267 45.3582 37.558 44.9728 38.782C44.5875 39.9833 44.3948 41.3433 44.3948 42.862C44.3948 44.8567 44.7008 46.5907 45.3128 48.064C45.9475 49.5373 46.8768 50.6707 48.1008 51.464C49.3475 52.2573 50.9002 52.654 52.7588 52.654C53.8242 52.654 54.8328 52.5633 55.7848 52.382C56.7368 52.2007 57.6662 51.974 58.5728 51.702V54.354C57.6662 54.694 56.7255 54.9433 55.7508 55.102C54.7988 55.2607 53.6542 55.34 52.3168 55.34C49.8462 55.34 47.7835 54.83 46.1288 53.81C44.4742 52.79 43.2275 51.3393 42.3888 49.458C41.5728 47.5767 41.1648 45.3667 41.1648 42.828C41.1648 40.992 41.4142 39.3147 41.9128 37.796C42.4342 36.2773 43.1822 34.9627 44.1568 33.852C45.1542 32.7413 46.3782 31.8913 47.8288 31.302C49.2795 30.69 50.9455 30.384 52.8268 30.384C54.0735 30.384 55.2748 30.5087 56.4308 30.758C57.5868 31.0073 58.6182 31.3587 59.5248 31.812L58.3008 34.396C57.5528 34.056 56.7142 33.75 55.7848 33.478C54.8782 33.206 53.8808 33.07 52.7928 33.07ZM79.3072 45.854C79.3072 47.3727 79.1032 48.7213 78.6952 49.9C78.3099 51.056 77.7432 52.042 76.9952 52.858C76.2699 53.674 75.3746 54.2973 74.3092 54.728C73.2666 55.136 72.0992 55.34 70.8072 55.34C69.6059 55.34 68.4952 55.136 67.4752 54.728C66.4552 54.2973 65.5712 53.674 64.8232 52.858C64.0752 52.042 63.4859 51.056 63.0552 49.9C62.6472 48.7213 62.4432 47.3727 62.4432 45.854C62.4432 43.8367 62.7832 42.1367 63.4632 40.754C64.1432 39.3487 65.1179 38.2833 66.3872 37.558C67.6566 36.81 69.1639 36.436 70.9092 36.436C72.5639 36.436 74.0146 36.81 75.2612 37.558C76.5306 38.2833 77.5166 39.3487 78.2192 40.754C78.9446 42.1367 79.3072 43.8367 79.3072 45.854ZM65.5372 45.854C65.5372 47.282 65.7186 48.5287 66.0812 49.594C66.4666 50.6367 67.0559 51.4413 67.8492 52.008C68.6426 52.5747 69.6512 52.858 70.8752 52.858C72.0992 52.858 73.1079 52.5747 73.9012 52.008C74.6946 51.4413 75.2726 50.6367 75.6352 49.594C76.0206 48.5287 76.2132 47.282 76.2132 45.854C76.2132 44.4033 76.0206 43.168 75.6352 42.148C75.2499 41.128 74.6606 40.346 73.8672 39.802C73.0966 39.2353 72.0879 38.952 70.8412 38.952C68.9826 38.952 67.6339 39.564 66.7952 40.788C65.9566 42.012 65.5372 43.7007 65.5372 45.854ZM83.0972 44.052C83.0972 41.4 83.3578 39.1447 83.8792 37.286C84.4232 35.4047 85.2505 33.9087 86.3612 32.798C87.4945 31.6647 88.9452 30.9053 90.7132 30.52C92.1865 30.2027 93.6258 29.9193 95.0312 29.67C96.4365 29.4207 97.7512 29.194 98.9752 28.99L99.4852 31.608C98.8958 31.6987 98.2385 31.812 97.5132 31.948C96.7878 32.0613 96.0512 32.186 95.3032 32.322C94.5552 32.4353 93.8298 32.56 93.1272 32.696C92.4472 32.8093 91.8465 32.9227 91.3252 33.036C90.5772 33.1947 89.9085 33.4667 89.3192 33.852C88.7298 34.2147 88.2198 34.7133 87.7892 35.348C87.3812 35.9827 87.0525 36.7647 86.8032 37.694C86.5538 38.6233 86.4065 39.7227 86.3612 40.992H86.5652C86.8825 40.5613 87.3132 40.1193 87.8572 39.666C88.4238 39.2127 89.0925 38.8273 89.8632 38.51C90.6565 38.1927 91.5518 38.034 92.5492 38.034C94.1358 38.034 95.4505 38.3853 96.4932 39.088C97.5585 39.768 98.3518 40.72 98.8732 41.944C99.4172 43.168 99.6892 44.596 99.6892 46.228C99.6892 48.2453 99.3378 49.934 98.6352 51.294C97.9325 52.654 96.9578 53.674 95.7112 54.354C94.4645 55.0113 93.0138 55.34 91.3592 55.34C90.1125 55.34 88.9792 55.102 87.9592 54.626C86.9392 54.1273 86.0665 53.402 85.3412 52.45C84.6158 51.498 84.0605 50.3193 83.6752 48.914C83.2898 47.5087 83.0972 45.888 83.0972 44.052ZM91.5972 52.858C92.5945 52.858 93.4558 52.654 94.1812 52.246C94.9292 51.838 95.5072 51.1693 95.9152 50.24C96.3232 49.3107 96.5272 48.0753 96.5272 46.534C96.5272 44.6753 96.1758 43.2133 95.4732 42.148C94.7932 41.06 93.6598 40.516 92.0732 40.516C91.0758 40.516 90.1692 40.7427 89.3532 41.196C88.5372 41.6267 87.8572 42.1253 87.3132 42.692C86.7692 43.2587 86.3838 43.7347 86.1572 44.12C86.1572 45.2307 86.2365 46.3073 86.3952 47.35C86.5538 48.3927 86.8258 49.3333 87.2112 50.172C87.6192 50.988 88.1745 51.6453 88.8772 52.144C89.6025 52.62 90.5092 52.858 91.5972 52.858ZM111.441 36.436C113.005 36.436 114.342 36.776 115.453 37.456C116.586 38.136 117.447 39.0993 118.037 40.346C118.649 41.57 118.955 43.0093 118.955 44.664V46.466H106.477C106.522 48.5287 107.043 50.104 108.041 51.192C109.061 52.2573 110.477 52.79 112.291 52.79C113.447 52.79 114.467 52.688 115.351 52.484C116.257 52.2573 117.187 51.94 118.139 51.532V54.15C117.209 54.558 116.291 54.8527 115.385 55.034C114.478 55.238 113.401 55.34 112.155 55.34C110.432 55.34 108.902 54.9887 107.565 54.286C106.25 53.5833 105.219 52.5407 104.471 51.158C103.745 49.7527 103.383 48.0413 103.383 46.024C103.383 44.0293 103.711 42.318 104.369 40.89C105.049 39.462 105.989 38.3627 107.191 37.592C108.415 36.8213 109.831 36.436 111.441 36.436ZM111.407 38.884C109.979 38.884 108.845 39.3487 108.007 40.278C107.191 41.1847 106.703 42.454 106.545 44.086H115.827C115.827 43.0433 115.668 42.1367 115.351 41.366C115.033 40.5953 114.546 39.9947 113.889 39.564C113.254 39.1107 112.427 38.884 111.407 38.884ZM130.904 55.34C129.295 55.34 127.855 55.0113 126.586 54.354C125.339 53.6967 124.353 52.6767 123.628 51.294C122.925 49.9113 122.574 48.1433 122.574 45.99C122.574 43.746 122.948 41.9213 123.696 40.516C124.444 39.1107 125.453 38.0793 126.722 37.422C128.014 36.7647 129.476 36.436 131.108 36.436C132.037 36.436 132.933 36.538 133.794 36.742C134.655 36.9233 135.358 37.15 135.902 37.422L134.984 39.904C134.44 39.7 133.805 39.5073 133.08 39.326C132.355 39.1447 131.675 39.054 131.04 39.054C129.816 39.054 128.807 39.3147 128.014 39.836C127.221 40.3573 126.631 41.128 126.246 42.148C125.861 43.168 125.668 44.4373 125.668 45.956C125.668 47.4067 125.861 48.642 126.246 49.662C126.631 50.682 127.209 51.4527 127.98 51.974C128.751 52.4953 129.714 52.756 130.87 52.756C131.867 52.756 132.74 52.654 133.488 52.45C134.259 52.246 134.961 51.9967 135.596 51.702V54.354C134.984 54.6713 134.304 54.9093 133.556 55.068C132.831 55.2493 131.947 55.34 130.904 55.34ZM146.968 36.436C148.532 36.436 149.869 36.776 150.98 37.456C152.113 38.136 152.975 39.0993 153.564 40.346C154.176 41.57 154.482 43.0093 154.482 44.664V46.466H142.004C142.049 48.5287 142.571 50.104 143.568 51.192C144.588 52.2573 146.005 52.79 147.818 52.79C148.974 52.79 149.994 52.688 150.878 52.484C151.785 52.2573 152.714 51.94 153.666 51.532V54.15C152.737 54.558 151.819 54.8527 150.912 55.034C150.005 55.238 148.929 55.34 147.682 55.34C145.959 55.34 144.429 54.9887 143.092 54.286C141.777 53.5833 140.746 52.5407 139.998 51.158C139.273 49.7527 138.91 48.0413 138.91 46.024C138.91 44.0293 139.239 42.318 139.896 40.89C140.576 39.462 141.517 38.3627 142.718 37.592C143.942 36.8213 145.359 36.436 146.968 36.436ZM146.934 38.884C145.506 38.884 144.373 39.3487 143.534 40.278C142.718 41.1847 142.231 42.454 142.072 44.086H151.354C151.354 43.0433 151.195 42.1367 150.878 41.366C150.561 40.5953 150.073 39.9947 149.416 39.564C148.781 39.1107 147.954 38.884 146.934 38.884ZM172.653 36.776V52.484H175.305V61.324H172.415V55H159.733V61.324H156.877V52.484H158.339C159.382 51.0333 160.243 49.458 160.923 47.758C161.626 46.0353 162.147 44.2447 162.487 42.386C162.85 40.5047 163.043 38.6347 163.065 36.776H172.653ZM165.717 39.122C165.627 40.6633 165.389 42.2613 165.003 43.916C164.618 45.548 164.119 47.112 163.507 48.608C162.918 50.104 162.227 51.396 161.433 52.484H169.763V39.122H165.717ZM194.721 45.854C194.721 47.3727 194.517 48.7213 194.109 49.9C193.724 51.056 193.157 52.042 192.409 52.858C191.684 53.674 190.789 54.2973 189.723 54.728C188.681 55.136 187.513 55.34 186.221 55.34C185.02 55.34 183.909 55.136 182.889 54.728C181.869 54.2973 180.985 53.674 180.237 52.858C179.489 52.042 178.9 51.056 178.469 49.9C178.061 48.7213 177.857 47.3727 177.857 45.854C177.857 43.8367 178.197 42.1367 178.877 40.754C179.557 39.3487 180.532 38.2833 181.801 37.558C183.071 36.81 184.578 36.436 186.323 36.436C187.978 36.436 189.429 36.81 190.675 37.558C191.945 38.2833 192.931 39.3487 193.633 40.754C194.359 42.1367 194.721 43.8367 194.721 45.854ZM180.951 45.854C180.951 47.282 181.133 48.5287 181.495 49.594C181.881 50.6367 182.47 51.4413 183.263 52.008C184.057 52.5747 185.065 52.858 186.289 52.858C187.513 52.858 188.522 52.5747 189.315 52.008C190.109 51.4413 190.687 50.6367 191.049 49.594C191.435 48.5287 191.627 47.282 191.627 45.854C191.627 44.4033 191.435 43.168 191.049 42.148C190.664 41.128 190.075 40.346 189.281 39.802C188.511 39.2353 187.502 38.952 186.255 38.952C184.397 38.952 183.048 39.564 182.209 40.788C181.371 42.012 180.951 43.7007 180.951 45.854ZM214.117 41.366C214.117 42.4993 213.777 43.3833 213.097 44.018C212.417 44.6527 211.545 45.0833 210.479 45.31V45.446C211.613 45.6047 212.599 46.0127 213.437 46.67C214.276 47.3047 214.695 48.302 214.695 49.662C214.695 50.4327 214.548 51.1467 214.253 51.804C213.981 52.4613 213.551 53.028 212.961 53.504C212.372 53.98 211.613 54.354 210.683 54.626C209.754 54.8753 208.632 55 207.317 55H199.463V36.776H207.283C208.575 36.776 209.731 36.9233 210.751 37.218C211.794 37.49 212.61 37.966 213.199 38.646C213.811 39.3033 214.117 40.21 214.117 41.366ZM211.601 49.662C211.601 48.6193 211.205 47.8713 210.411 47.418C209.618 46.9647 208.451 46.738 206.909 46.738H202.455V52.586H206.977C208.473 52.586 209.618 52.3707 210.411 51.94C211.205 51.4867 211.601 50.7273 211.601 49.662ZM211.091 41.74C211.091 40.8787 210.774 40.2553 210.139 39.87C209.527 39.462 208.519 39.258 207.113 39.258H202.455V44.256H206.569C208.043 44.256 209.165 44.052 209.935 43.644C210.706 43.236 211.091 42.6013 211.091 41.74ZM225.955 36.47C228.176 36.47 229.82 36.9573 230.885 37.932C231.95 38.9067 232.483 40.4593 232.483 42.59V55H230.307L229.729 52.416H229.593C229.072 53.0733 228.528 53.6287 227.961 54.082C227.417 54.5127 226.782 54.83 226.057 55.034C225.354 55.238 224.493 55.34 223.473 55.34C222.385 55.34 221.399 55.1473 220.515 54.762C219.654 54.3767 218.974 53.7873 218.475 52.994C217.976 52.178 217.727 51.158 217.727 49.934C217.727 48.1207 218.441 46.7267 219.869 45.752C221.297 44.7547 223.496 44.2107 226.465 44.12L229.559 44.018V42.93C229.559 41.4113 229.23 40.3573 228.573 39.768C227.916 39.1787 226.986 38.884 225.785 38.884C224.833 38.884 223.926 39.0313 223.065 39.326C222.204 39.598 221.399 39.9153 220.651 40.278L219.733 38.034C220.526 37.6033 221.467 37.2407 222.555 36.946C223.643 36.6287 224.776 36.47 225.955 36.47ZM226.839 46.194C224.572 46.2847 222.997 46.6473 222.113 47.282C221.252 47.9167 220.821 48.812 220.821 49.968C220.821 50.988 221.127 51.736 221.739 52.212C222.374 52.688 223.178 52.926 224.153 52.926C225.694 52.926 226.975 52.5067 227.995 51.668C229.015 50.8067 229.525 49.492 229.525 47.724V46.092L226.839 46.194ZM241.104 36.776V44.358H250.998V36.776H253.99V55H250.998V46.874H241.104V55H238.112V36.776H241.104ZM262.582 47.894C262.582 48.098 262.571 48.3927 262.548 48.778C262.548 49.1407 262.537 49.5373 262.514 49.968C262.491 50.376 262.469 50.7727 262.446 51.158C262.423 51.5207 262.401 51.8153 262.378 52.042L272.136 36.776H275.808V55H273.02V44.256C273.02 43.8933 273.02 43.4173 273.02 42.828C273.043 42.2387 273.065 41.6607 273.088 41.094C273.111 40.5047 273.133 40.0627 273.156 39.768L263.466 55H259.76V36.776H262.582V47.894ZM288.646 36.436C290.21 36.436 291.547 36.776 292.658 37.456C293.791 38.136 294.652 39.0993 295.242 40.346C295.854 41.57 296.16 43.0093 296.16 44.664V46.466H283.682C283.727 48.5287 284.248 50.104 285.246 51.192C286.266 52.2573 287.682 52.79 289.496 52.79C290.652 52.79 291.672 52.688 292.556 52.484C293.462 52.2573 294.392 51.94 295.344 51.532V54.15C294.414 54.558 293.496 54.8527 292.59 55.034C291.683 55.238 290.606 55.34 289.36 55.34C287.637 55.34 286.107 54.9887 284.77 54.286C283.455 53.5833 282.424 52.5407 281.676 51.158C280.95 49.7527 280.588 48.0413 280.588 46.024C280.588 44.0293 280.916 42.318 281.574 40.89C282.254 39.462 283.194 38.3627 284.396 37.592C285.62 36.8213 287.036 36.436 288.646 36.436ZM288.612 38.884C287.184 38.884 286.05 39.3487 285.212 40.278C284.396 41.1847 283.908 42.454 283.75 44.086H293.032C293.032 43.0433 292.873 42.1367 292.556 41.366C292.238 40.5953 291.751 39.9947 291.094 39.564C290.459 39.1107 289.632 38.884 288.612 38.884Z" fill="#724318"/>
<path d="M77.7081 101.578V116.16H79.8011V122.324H77.8231V118H66.5301V122.324H64.5521V116.16H65.8171C66.3691 115.209 66.8904 114.144 67.3811 112.963C67.8871 111.782 68.3317 110.548 68.7151 109.26C69.0984 107.957 69.4127 106.653 69.6581 105.35C69.9034 104.047 70.0567 102.789 70.1181 101.578H77.7081ZM71.9351 103.441C71.8737 104.33 71.7204 105.335 71.4751 106.454C71.2451 107.573 70.9461 108.723 70.5781 109.904C70.2254 111.069 69.8267 112.196 69.3821 113.285C68.9527 114.374 68.4927 115.332 68.0021 116.16H75.6611V103.441H71.9351ZM91.6554 118H89.6084V107.351H85.9744C85.8211 109.298 85.6294 110.962 85.3994 112.342C85.1694 113.707 84.8781 114.818 84.5254 115.677C84.1727 116.536 83.7511 117.164 83.2604 117.563C82.7697 117.962 82.1947 118.161 81.5354 118.161C81.3361 118.161 81.1367 118.146 80.9374 118.115C80.7534 118.1 80.6001 118.061 80.4774 118V116.482C80.5694 116.513 80.6691 116.536 80.7764 116.551C80.8837 116.566 80.9911 116.574 81.0984 116.574C81.4357 116.574 81.7424 116.436 82.0184 116.16C82.2944 115.884 82.5397 115.462 82.7544 114.895C82.9844 114.328 83.1914 113.615 83.3754 112.756C83.5594 111.882 83.7204 110.855 83.8584 109.674C83.9964 108.493 84.1191 107.159 84.2264 105.672H91.6554V118ZM96.3273 118H93.9813L97.5003 112.825C97.0249 112.702 96.5649 112.511 96.1203 112.25C95.6756 111.974 95.3153 111.598 95.0393 111.123C94.7633 110.632 94.6253 110.027 94.6253 109.306C94.6253 108.125 95.0239 107.228 95.8213 106.615C96.6186 105.986 97.6766 105.672 98.9953 105.672H104.515V118H102.491V113.101H99.5013L96.3273 118ZM96.5803 109.329C96.5803 110.034 96.8409 110.563 97.3623 110.916C97.8989 111.253 98.6426 111.422 99.5933 111.422H102.491V107.351H99.2023C98.2669 107.351 97.5923 107.535 97.1783 107.903C96.7796 108.271 96.5803 108.746 96.5803 109.329ZM124.775 108.777C124.775 109.544 124.545 110.142 124.085 110.571C123.625 111 123.035 111.292 122.314 111.445V111.537C123.081 111.644 123.748 111.92 124.315 112.365C124.883 112.794 125.166 113.469 125.166 114.389C125.166 114.91 125.067 115.393 124.867 115.838C124.683 116.283 124.392 116.666 123.993 116.988C123.595 117.31 123.081 117.563 122.452 117.747C121.824 117.916 121.065 118 120.175 118H114.862V105.672H120.152C121.026 105.672 121.808 105.772 122.498 105.971C123.204 106.155 123.756 106.477 124.154 106.937C124.568 107.382 124.775 107.995 124.775 108.777ZM123.073 114.389C123.073 113.684 122.805 113.178 122.268 112.871C121.732 112.564 120.942 112.411 119.899 112.411H116.886V116.367H119.945C120.957 116.367 121.732 116.221 122.268 115.93C122.805 115.623 123.073 115.11 123.073 114.389ZM122.728 109.03C122.728 108.447 122.514 108.026 122.084 107.765C121.67 107.489 120.988 107.351 120.037 107.351H116.886V110.732H119.669C120.666 110.732 121.425 110.594 121.946 110.318C122.468 110.042 122.728 109.613 122.728 109.03ZM138.832 111.813C138.832 112.84 138.694 113.753 138.418 114.55C138.158 115.332 137.774 115.999 137.268 116.551C136.778 117.103 136.172 117.525 135.451 117.816C134.746 118.092 133.956 118.23 133.082 118.23C132.27 118.23 131.518 118.092 130.828 117.816C130.138 117.525 129.54 117.103 129.034 116.551C128.528 115.999 128.13 115.332 127.838 114.55C127.562 113.753 127.424 112.84 127.424 111.813C127.424 110.448 127.654 109.298 128.114 108.363C128.574 107.412 129.234 106.692 130.092 106.201C130.951 105.695 131.971 105.442 133.151 105.442C134.271 105.442 135.252 105.695 136.095 106.201C136.954 106.692 137.621 107.412 138.096 108.363C138.587 109.298 138.832 110.448 138.832 111.813ZM129.517 111.813C129.517 112.779 129.64 113.622 129.885 114.343C130.146 115.048 130.545 115.593 131.081 115.976C131.618 116.359 132.3 116.551 133.128 116.551C133.956 116.551 134.639 116.359 135.175 115.976C135.712 115.593 136.103 115.048 136.348 114.343C136.609 113.622 136.739 112.779 136.739 111.813C136.739 110.832 136.609 109.996 136.348 109.306C136.088 108.616 135.689 108.087 135.152 107.719C134.631 107.336 133.949 107.144 133.105 107.144C131.848 107.144 130.936 107.558 130.368 108.386C129.801 109.214 129.517 110.356 129.517 111.813ZM145.283 105.442C146.218 105.442 147.031 105.572 147.721 105.833C148.411 106.078 148.948 106.446 149.331 106.937C149.714 107.412 149.906 107.995 149.906 108.685C149.906 109.436 149.699 110.034 149.285 110.479C148.871 110.908 148.304 111.223 147.583 111.422V111.514C148.074 111.652 148.526 111.844 148.94 112.089C149.354 112.334 149.684 112.656 149.929 113.055C150.19 113.454 150.32 113.967 150.32 114.596C150.32 115.271 150.128 115.884 149.745 116.436C149.377 116.988 148.802 117.425 148.02 117.747C147.253 118.069 146.264 118.23 145.053 118.23C144.47 118.23 143.911 118.199 143.374 118.138C142.853 118.077 142.377 117.985 141.948 117.862C141.534 117.739 141.166 117.594 140.844 117.425V115.608C141.365 115.853 141.979 116.076 142.684 116.275C143.405 116.474 144.187 116.574 145.03 116.574C145.643 116.574 146.195 116.505 146.686 116.367C147.192 116.229 147.591 116.014 147.882 115.723C148.173 115.416 148.319 115.002 148.319 114.481C148.319 114.006 148.189 113.622 147.928 113.331C147.667 113.024 147.276 112.794 146.755 112.641C146.249 112.488 145.597 112.411 144.8 112.411H143.144V110.755H144.478C145.536 110.755 146.379 110.617 147.008 110.341C147.652 110.05 147.974 109.559 147.974 108.869C147.974 108.286 147.729 107.849 147.238 107.558C146.763 107.267 146.073 107.121 145.168 107.121C144.493 107.121 143.895 107.19 143.374 107.328C142.868 107.451 142.308 107.642 141.695 107.903L140.982 106.293C141.641 106.002 142.331 105.787 143.052 105.649C143.773 105.511 144.516 105.442 145.283 105.442ZM166.54 105.672V118H164.723V110.134C164.723 109.812 164.731 109.475 164.746 109.122C164.777 108.769 164.808 108.424 164.838 108.087H164.769L160.744 118H159.042L155.132 108.087H155.063C155.094 108.424 155.109 108.769 155.109 109.122C155.125 109.475 155.132 109.835 155.132 110.203V118H153.315V105.672H156.006L159.893 115.585L163.849 105.672H166.54ZM181.194 111.813C181.194 112.84 181.056 113.753 180.78 114.55C180.519 115.332 180.136 115.999 179.63 116.551C179.139 117.103 178.533 117.525 177.813 117.816C177.107 118.092 176.318 118.23 175.444 118.23C174.631 118.23 173.88 118.092 173.19 117.816C172.5 117.525 171.902 117.103 171.396 116.551C170.89 115.999 170.491 115.332 170.2 114.55C169.924 113.753 169.786 112.84 169.786 111.813C169.786 110.448 170.016 109.298 170.476 108.363C170.936 107.412 171.595 106.692 172.454 106.201C173.312 105.695 174.332 105.442 175.513 105.442C176.632 105.442 177.613 105.695 178.457 106.201C179.315 106.692 179.982 107.412 180.458 108.363C180.948 109.298 181.194 110.448 181.194 111.813ZM171.879 111.813C171.879 112.779 172.001 113.622 172.247 114.343C172.507 115.048 172.906 115.593 173.443 115.976C173.979 116.359 174.662 116.551 175.49 116.551C176.318 116.551 177 116.359 177.537 115.976C178.073 115.593 178.464 115.048 178.71 114.343C178.97 113.622 179.101 112.779 179.101 111.813C179.101 110.832 178.97 109.996 178.71 109.306C178.449 108.616 178.05 108.087 177.514 107.719C176.992 107.336 176.31 107.144 175.467 107.144C174.209 107.144 173.297 107.558 172.73 108.386C172.162 109.214 171.879 110.356 171.879 111.813ZM198.741 105.672L193.658 111.652L199.178 118H196.878L191.542 111.744V118H189.656V111.744L184.32 118H182.02L187.54 111.652L182.457 105.672H184.665L189.656 111.652V105.672H191.542V111.652L196.556 105.672H198.741ZM203.226 105.672V110.801H209.919V105.672H211.943V118H209.919V112.503H203.226V118H201.202V105.672H203.226ZM226.565 111.813C226.565 112.84 226.427 113.753 226.151 114.55C225.89 115.332 225.507 115.999 225.001 116.551C224.51 117.103 223.904 117.525 223.184 117.816C222.478 118.092 221.689 118.23 220.815 118.23C220.002 118.23 219.251 118.092 218.561 117.816C217.871 117.525 217.273 117.103 216.767 116.551C216.261 115.999 215.862 115.332 215.571 114.55C215.295 113.753 215.157 112.84 215.157 111.813C215.157 110.448 215.387 109.298 215.847 108.363C216.307 107.412 216.966 106.692 217.825 106.201C218.683 105.695 219.703 105.442 220.884 105.442C222.003 105.442 222.984 105.695 223.828 106.201C224.686 106.692 225.353 107.412 225.829 108.363C226.319 109.298 226.565 110.448 226.565 111.813ZM217.25 111.813C217.25 112.779 217.372 113.622 217.618 114.343C217.878 115.048 218.277 115.593 218.814 115.976C219.35 116.359 220.033 116.551 220.861 116.551C221.689 116.551 222.371 116.359 222.908 115.976C223.444 115.593 223.835 115.048 224.081 114.343C224.341 113.622 224.472 112.779 224.472 111.813C224.472 110.832 224.341 109.996 224.081 109.306C223.82 108.616 223.421 108.087 222.885 107.719C222.363 107.336 221.681 107.144 220.838 107.144C219.58 107.144 218.668 107.558 218.101 108.386C217.533 109.214 217.25 110.356 217.25 111.813ZM234.717 118.23C233.629 118.23 232.655 118.008 231.796 117.563C230.953 117.118 230.286 116.428 229.795 115.493C229.32 114.558 229.082 113.362 229.082 111.905C229.082 110.387 229.335 109.153 229.841 108.202C230.347 107.251 231.03 106.554 231.888 106.109C232.762 105.664 233.751 105.442 234.855 105.442C235.484 105.442 236.09 105.511 236.672 105.649C237.255 105.772 237.73 105.925 238.098 106.109L237.477 107.788C237.109 107.65 236.68 107.52 236.189 107.397C235.699 107.274 235.239 107.213 234.809 107.213C233.981 107.213 233.299 107.389 232.762 107.742C232.226 108.095 231.827 108.616 231.566 109.306C231.306 109.996 231.175 110.855 231.175 111.882C231.175 112.863 231.306 113.699 231.566 114.389C231.827 115.079 232.218 115.6 232.739 115.953C233.261 116.306 233.912 116.482 234.694 116.482C235.369 116.482 235.959 116.413 236.465 116.275C236.987 116.137 237.462 115.968 237.891 115.769V117.563C237.477 117.778 237.017 117.939 236.511 118.046C236.021 118.169 235.423 118.23 234.717 118.23ZM249.333 107.374H245.308V118H243.307V107.374H239.328V105.672H249.333V107.374ZM253.671 113.193C253.671 113.331 253.663 113.53 253.648 113.791C253.648 114.036 253.64 114.305 253.625 114.596C253.609 114.872 253.594 115.14 253.579 115.401C253.563 115.646 253.548 115.846 253.533 115.999L260.134 105.672H262.618V118H260.732V110.732C260.732 110.487 260.732 110.165 260.732 109.766C260.747 109.367 260.762 108.976 260.778 108.593C260.793 108.194 260.808 107.895 260.824 107.696L254.269 118H251.762V105.672H253.671V113.193ZM104.852 133.777C104.852 134.544 104.622 135.142 104.162 135.571C103.702 136 103.112 136.292 102.391 136.445V136.537C103.158 136.644 103.825 136.92 104.392 137.365C104.96 137.794 105.243 138.469 105.243 139.389C105.243 139.91 105.144 140.393 104.944 140.838C104.76 141.283 104.469 141.666 104.07 141.988C103.672 142.31 103.158 142.563 102.529 142.747C101.901 142.916 101.142 143 100.252 143H94.9394V130.672H100.229C101.103 130.672 101.885 130.772 102.575 130.971C103.281 131.155 103.833 131.477 104.231 131.937C104.645 132.382 104.852 132.995 104.852 133.777ZM103.15 139.389C103.15 138.684 102.882 138.178 102.345 137.871C101.809 137.564 101.019 137.411 99.9764 137.411H96.9634V141.367H100.022C101.034 141.367 101.809 141.221 102.345 140.93C102.882 140.623 103.15 140.11 103.15 139.389ZM102.805 134.03C102.805 133.447 102.591 133.026 102.161 132.765C101.747 132.489 101.065 132.351 100.114 132.351H96.9634V135.732H99.7464C100.743 135.732 101.502 135.594 102.023 135.318C102.545 135.042 102.805 134.613 102.805 134.03ZM113.136 143.23C112.048 143.23 111.074 143.008 110.215 142.563C109.372 142.118 108.705 141.428 108.214 140.493C107.739 139.558 107.501 138.362 107.501 136.905C107.501 135.387 107.754 134.153 108.26 133.202C108.766 132.251 109.449 131.554 110.307 131.109C111.181 130.664 112.17 130.442 113.274 130.442C113.903 130.442 114.509 130.511 115.091 130.649C115.674 130.772 116.149 130.925 116.517 131.109L115.896 132.788C115.528 132.65 115.099 132.52 114.608 132.397C114.118 132.274 113.658 132.213 113.228 132.213C112.4 132.213 111.718 132.389 111.181 132.742C110.645 133.095 110.246 133.616 109.985 134.306C109.725 134.996 109.594 135.855 109.594 136.882C109.594 137.863 109.725 138.699 109.985 139.389C110.246 140.079 110.637 140.6 111.158 140.953C111.68 141.306 112.331 141.482 113.113 141.482C113.788 141.482 114.378 141.413 114.884 141.275C115.406 141.137 115.881 140.968 116.31 140.769V142.563C115.896 142.778 115.436 142.939 114.93 143.046C114.44 143.169 113.842 143.23 113.136 143.23ZM127.752 132.374H123.727V143H121.726V132.374H117.747V130.672H127.752V132.374ZM136.046 130.442C137.564 130.442 138.783 130.971 139.703 132.029C140.638 133.087 141.106 134.682 141.106 136.813C141.106 138.208 140.891 139.389 140.462 140.355C140.048 141.306 139.457 142.026 138.691 142.517C137.939 142.992 137.05 143.23 136.023 143.23C135.394 143.23 134.834 143.146 134.344 142.977C133.853 142.808 133.431 142.594 133.079 142.333C132.741 142.057 132.45 141.758 132.205 141.436H132.067C132.097 141.697 132.128 142.026 132.159 142.425C132.189 142.824 132.205 143.169 132.205 143.46V148.52H130.181V130.672H131.837L132.113 132.351H132.205C132.45 131.998 132.741 131.676 133.079 131.385C133.431 131.094 133.845 130.864 134.321 130.695C134.811 130.526 135.386 130.442 136.046 130.442ZM135.678 132.144C134.85 132.144 134.183 132.305 133.677 132.627C133.171 132.934 132.803 133.401 132.573 134.03C132.343 134.659 132.22 135.456 132.205 136.422V136.813C132.205 137.825 132.312 138.684 132.527 139.389C132.741 140.094 133.102 140.631 133.608 140.999C134.129 141.367 134.834 141.551 135.724 141.551C136.475 141.551 137.088 141.344 137.564 140.93C138.054 140.516 138.415 139.956 138.645 139.251C138.89 138.53 139.013 137.71 139.013 136.79C139.013 135.379 138.737 134.252 138.185 133.409C137.648 132.566 136.812 132.144 135.678 132.144ZM149.092 130.442C150.15 130.442 151.055 130.672 151.806 131.132C152.573 131.592 153.155 132.244 153.554 133.087C153.968 133.915 154.175 134.889 154.175 136.008V137.227H145.734C145.765 138.622 146.117 139.688 146.792 140.424C147.482 141.145 148.44 141.505 149.667 141.505C150.449 141.505 151.139 141.436 151.737 141.298C152.35 141.145 152.979 140.93 153.623 140.654V142.425C152.994 142.701 152.373 142.9 151.76 143.023C151.147 143.161 150.418 143.23 149.575 143.23C148.41 143.23 147.375 142.992 146.47 142.517C145.581 142.042 144.883 141.336 144.377 140.401C143.886 139.45 143.641 138.293 143.641 136.928C143.641 135.579 143.863 134.421 144.308 133.455C144.768 132.489 145.404 131.745 146.217 131.224C147.045 130.703 148.003 130.442 149.092 130.442ZM149.069 132.098C148.103 132.098 147.336 132.412 146.769 133.041C146.217 133.654 145.887 134.513 145.78 135.617H152.059C152.059 134.912 151.952 134.298 151.737 133.777C151.522 133.256 151.193 132.849 150.748 132.558C150.319 132.251 149.759 132.098 149.069 132.098ZM165.823 132.374H161.798V143H159.797V132.374H155.818V130.672H165.823V132.374ZM170.161 138.193C170.161 138.331 170.153 138.53 170.138 138.791C170.138 139.036 170.13 139.305 170.115 139.596C170.1 139.872 170.084 140.14 170.069 140.401C170.054 140.646 170.038 140.846 170.023 140.999L176.624 130.672H179.108V143H177.222V135.732C177.222 135.487 177.222 135.165 177.222 134.766C177.237 134.367 177.253 133.976 177.268 133.593C177.283 133.194 177.299 132.895 177.314 132.696L170.759 143H168.252V130.672H170.161V138.193ZM191.541 132.374H187.516V143H185.515V132.374H181.536V130.672H191.541V132.374ZM199.651 135.732C200.724 135.732 201.613 135.862 202.319 136.123C203.024 136.384 203.553 136.775 203.906 137.296C204.274 137.802 204.458 138.446 204.458 139.228C204.458 139.995 204.281 140.662 203.929 141.229C203.591 141.796 203.062 142.233 202.342 142.54C201.621 142.847 200.693 143 199.559 143H193.97V130.672H195.994V135.732H199.651ZM202.434 139.343C202.434 138.592 202.165 138.086 201.629 137.825C201.107 137.549 200.371 137.411 199.421 137.411H195.994V141.367H199.467C200.325 141.367 201.031 141.214 201.583 140.907C202.15 140.6 202.434 140.079 202.434 139.343ZM212.571 143.23C211.482 143.23 210.509 143.008 209.65 142.563C208.807 142.118 208.14 141.428 207.649 140.493C207.174 139.558 206.936 138.362 206.936 136.905C206.936 135.387 207.189 134.153 207.695 133.202C208.201 132.251 208.883 131.554 209.742 131.109C210.616 130.664 211.605 130.442 212.709 130.442C213.338 130.442 213.943 130.511 214.526 130.649C215.109 130.772 215.584 130.925 215.952 131.109L215.331 132.788C214.963 132.65 214.534 132.52 214.043 132.397C213.552 132.274 213.092 132.213 212.663 132.213C211.835 132.213 211.153 132.389 210.616 132.742C210.079 133.095 209.681 133.616 209.42 134.306C209.159 134.996 209.029 135.855 209.029 136.882C209.029 137.863 209.159 138.699 209.42 139.389C209.681 140.079 210.072 140.6 210.593 140.953C211.114 141.306 211.766 141.482 212.548 141.482C213.223 141.482 213.813 141.413 214.319 141.275C214.84 141.137 215.316 140.968 215.745 140.769V142.563C215.331 142.778 214.871 142.939 214.365 143.046C213.874 143.169 213.276 143.23 212.571 143.23ZM219.436 143H217.09L220.609 137.825C220.133 137.702 219.673 137.511 219.229 137.25C218.784 136.974 218.424 136.598 218.148 136.123C217.872 135.632 217.734 135.027 217.734 134.306C217.734 133.125 218.132 132.228 218.93 131.615C219.727 130.986 220.785 130.672 222.104 130.672H227.624V143H225.6V138.101H222.61L219.436 143ZM219.689 134.329C219.689 135.034 219.949 135.563 220.471 135.916C221.007 136.253 221.751 136.422 222.702 136.422H225.6V132.351H222.311C221.375 132.351 220.701 132.535 220.287 132.903C219.888 133.271 219.689 133.746 219.689 134.329ZM122.772 168.23C121.683 168.23 120.71 168.008 119.851 167.563C119.008 167.118 118.341 166.428 117.85 165.493C117.375 164.558 117.137 163.362 117.137 161.905C117.137 160.387 117.39 159.153 117.896 158.202C118.402 157.251 119.084 156.554 119.943 156.109C120.817 155.664 121.806 155.442 122.91 155.442C123.539 155.442 124.144 155.511 124.727 155.649C125.31 155.772 125.785 155.925 126.153 156.109L125.532 157.788C125.164 157.65 124.735 157.52 124.244 157.397C123.753 157.274 123.293 157.213 122.864 157.213C122.036 157.213 121.354 157.389 120.817 157.742C120.28 158.095 119.882 158.616 119.621 159.306C119.36 159.996 119.23 160.855 119.23 161.882C119.23 162.863 119.36 163.699 119.621 164.389C119.882 165.079 120.273 165.6 120.794 165.953C121.315 166.306 121.967 166.482 122.749 166.482C123.424 166.482 124.014 166.413 124.52 166.275C125.041 166.137 125.517 165.968 125.946 165.769V167.563C125.532 167.778 125.072 167.939 124.566 168.046C124.075 168.169 123.477 168.23 122.772 168.23ZM142.615 155.672H144.823L139.556 161.606L145.26 168H142.914L137.348 161.744V168H135.324V155.672H137.348V161.652L142.615 155.672ZM157.767 161.813C157.767 162.84 157.629 163.753 157.353 164.55C157.092 165.332 156.709 165.999 156.203 166.551C155.712 167.103 155.106 167.525 154.386 167.816C153.68 168.092 152.891 168.23 152.017 168.23C151.204 168.23 150.453 168.092 149.763 167.816C149.073 167.525 148.475 167.103 147.969 166.551C147.463 165.999 147.064 165.332 146.773 164.55C146.497 163.753 146.359 162.84 146.359 161.813C146.359 160.448 146.589 159.298 147.049 158.363C147.509 157.412 148.168 156.692 149.027 156.201C149.885 155.695 150.905 155.442 152.086 155.442C153.205 155.442 154.186 155.695 155.03 156.201C155.888 156.692 156.555 157.412 157.031 158.363C157.521 159.298 157.767 160.448 157.767 161.813ZM148.452 161.813C148.452 162.779 148.574 163.622 148.82 164.343C149.08 165.048 149.479 165.593 150.016 165.976C150.552 166.359 151.235 166.551 152.063 166.551C152.891 166.551 153.573 166.359 154.11 165.976C154.646 165.593 155.037 165.048 155.283 164.343C155.543 163.622 155.674 162.779 155.674 161.813C155.674 160.832 155.543 159.996 155.283 159.306C155.022 158.616 154.623 158.087 154.087 157.719C153.565 157.336 152.883 157.144 152.04 157.144C150.782 157.144 149.87 157.558 149.303 158.386C148.735 159.214 148.452 160.356 148.452 161.813ZM169.26 157.374H165.235V168H163.234V157.374H159.255V155.672H169.26V157.374ZM182.182 161.813C182.182 162.84 182.044 163.753 181.768 164.55C181.507 165.332 181.124 165.999 180.618 166.551C180.127 167.103 179.521 167.525 178.801 167.816C178.095 168.092 177.306 168.23 176.432 168.23C175.619 168.23 174.868 168.092 174.178 167.816C173.488 167.525 172.89 167.103 172.384 166.551C171.878 165.999 171.479 165.332 171.188 164.55C170.912 163.753 170.774 162.84 170.774 161.813C170.774 160.448 171.004 159.298 171.464 158.363C171.924 157.412 172.583 156.692 173.442 156.201C174.3 155.695 175.32 155.442 176.501 155.442C177.62 155.442 178.601 155.695 179.445 156.201C180.303 156.692 180.97 157.412 181.446 158.363C181.936 159.298 182.182 160.448 182.182 161.813ZM172.867 161.813C172.867 162.779 172.989 163.622 173.235 164.343C173.495 165.048 173.894 165.593 174.431 165.976C174.967 166.359 175.65 166.551 176.478 166.551C177.306 166.551 177.988 166.359 178.525 165.976C179.061 165.593 179.452 165.048 179.698 164.343C179.958 163.622 180.089 162.779 180.089 161.813C180.089 160.832 179.958 159.996 179.698 159.306C179.437 158.616 179.038 158.087 178.502 157.719C177.98 157.336 177.298 157.144 176.455 157.144C175.197 157.144 174.285 157.558 173.718 158.386C173.15 159.214 172.867 160.356 172.867 161.813ZM198.615 155.672V168H196.798V160.134C196.798 159.812 196.805 159.475 196.821 159.122C196.851 158.769 196.882 158.424 196.913 158.087H196.844L192.819 168H191.117L187.207 158.087H187.138C187.168 158.424 187.184 158.769 187.184 159.122C187.199 159.475 187.207 159.835 187.207 160.203V168H185.39V155.672H188.081L191.968 165.585L195.924 155.672H198.615ZM205.536 166.854C205.536 167.184 205.502 167.54 205.435 167.921C205.375 168.296 205.274 168.666 205.132 169.033C204.997 169.408 204.817 169.759 204.593 170.089C204.376 170.426 204.11 170.71 203.795 170.942L202.571 170.089C202.781 169.849 202.938 169.621 203.043 169.404C203.148 169.194 203.23 168.981 203.29 168.764C203.065 168.719 202.856 168.64 202.661 168.528C202.466 168.416 202.298 168.273 202.156 168.101C202.014 167.936 201.901 167.749 201.819 167.54C201.736 167.322 201.695 167.094 201.695 166.854C201.695 166.592 201.744 166.345 201.841 166.113C201.946 165.881 202.085 165.679 202.257 165.507C202.437 165.335 202.639 165.2 202.863 165.103C203.095 164.998 203.342 164.945 203.604 164.945C203.874 164.945 204.125 164.998 204.357 165.103C204.597 165.2 204.802 165.335 204.975 165.507C205.154 165.679 205.293 165.881 205.39 166.113C205.487 166.345 205.536 166.592 205.536 166.854ZM84.4751 180.672V185.801H91.1681V180.672H93.1921V193H91.1681V187.503H84.4751V193H82.4511V180.672H84.4751ZM95.1636 180.672H97.3256L99.9936 187.687C100.147 188.101 100.285 188.5 100.408 188.883C100.546 189.266 100.668 189.642 100.776 190.01C100.883 190.363 100.967 190.708 101.029 191.045H101.121C101.213 190.662 101.358 190.163 101.558 189.55C101.757 188.921 101.964 188.293 102.179 187.664L104.686 180.672H106.871L101.558 194.702C101.266 195.469 100.921 196.136 100.523 196.703C100.139 197.286 99.664 197.73 99.0966 198.037C98.5446 198.359 97.87 198.52 97.0726 198.52C96.7046 198.52 96.3826 198.497 96.1066 198.451C95.8306 198.42 95.593 198.382 95.3936 198.336V196.726C95.5623 196.757 95.7616 196.787 95.9916 196.818C96.237 196.849 96.49 196.864 96.7506 196.864C97.226 196.864 97.6323 196.772 97.9696 196.588C98.3223 196.419 98.6213 196.166 98.8666 195.829C99.112 195.507 99.319 195.124 99.4876 194.679L100.132 193.046L95.1636 180.672ZM123.609 180.672L118.526 186.652L124.046 193H121.746L116.41 186.744V193H114.524V186.744L109.188 193H106.888L112.408 186.652L107.325 180.672H109.533L114.524 186.652V180.672H116.41V186.652L121.424 180.672H123.609ZM128.094 180.672V185.801H134.787V180.672H136.811V193H134.787V187.503H128.094V193H126.07V180.672H128.094ZM151.433 186.813C151.433 187.84 151.295 188.753 151.019 189.55C150.758 190.332 150.375 190.999 149.869 191.551C149.378 192.103 148.772 192.525 148.052 192.816C147.346 193.092 146.557 193.23 145.683 193.23C144.87 193.23 144.119 193.092 143.429 192.816C142.739 192.525 142.141 192.103 141.635 191.551C141.129 190.999 140.73 190.332 140.439 189.55C140.163 188.753 140.025 187.84 140.025 186.813C140.025 185.448 140.255 184.298 140.715 183.363C141.175 182.412 141.834 181.692 142.693 181.201C143.551 180.695 144.571 180.442 145.752 180.442C146.871 180.442 147.852 180.695 148.696 181.201C149.554 181.692 150.221 182.412 150.697 183.363C151.187 184.298 151.433 185.448 151.433 186.813ZM142.118 186.813C142.118 187.779 142.24 188.622 142.486 189.343C142.746 190.048 143.145 190.593 143.682 190.976C144.218 191.359 144.901 191.551 145.729 191.551C146.557 191.551 147.239 191.359 147.776 190.976C148.312 190.593 148.703 190.048 148.949 189.343C149.209 188.622 149.34 187.779 149.34 186.813C149.34 185.832 149.209 184.996 148.949 184.306C148.688 183.616 148.289 183.087 147.753 182.719C147.231 182.336 146.549 182.144 145.706 182.144C144.448 182.144 143.536 182.558 142.969 183.386C142.401 184.214 142.118 185.356 142.118 186.813ZM171.506 180.672V193H169.482V182.397H163.111V193H161.087V180.672H171.506ZM181.304 180.442C182.822 180.442 184.041 180.971 184.961 182.029C185.897 183.087 186.364 184.682 186.364 186.813C186.364 188.208 186.15 189.389 185.72 190.355C185.306 191.306 184.716 192.026 183.949 192.517C183.198 192.992 182.309 193.23 181.281 193.23C180.653 193.23 180.093 193.146 179.602 192.977C179.112 192.808 178.69 192.594 178.337 192.333C178 192.057 177.709 191.758 177.463 191.436H177.325C177.356 191.697 177.387 192.026 177.417 192.425C177.448 192.824 177.463 193.169 177.463 193.46V198.52H175.439V180.672H177.095L177.371 182.351H177.463C177.709 181.998 178 181.676 178.337 181.385C178.69 181.094 179.104 180.864 179.579 180.695C180.07 180.526 180.645 180.442 181.304 180.442ZM180.936 182.144C180.108 182.144 179.441 182.305 178.935 182.627C178.429 182.934 178.061 183.401 177.831 184.03C177.601 184.659 177.479 185.456 177.463 186.422V186.813C177.463 187.825 177.571 188.684 177.785 189.389C178 190.094 178.36 190.631 178.866 190.999C179.388 191.367 180.093 191.551 180.982 191.551C181.734 191.551 182.347 191.344 182.822 190.93C183.313 190.516 183.673 189.956 183.903 189.251C184.149 188.53 184.271 187.71 184.271 186.79C184.271 185.379 183.995 184.252 183.443 183.409C182.907 182.566 182.071 182.144 180.936 182.144ZM200.308 186.813C200.308 187.84 200.17 188.753 199.894 189.55C199.633 190.332 199.25 190.999 198.744 191.551C198.253 192.103 197.647 192.525 196.927 192.816C196.221 193.092 195.432 193.23 194.558 193.23C193.745 193.23 192.994 193.092 192.304 192.816C191.614 192.525 191.016 192.103 190.51 191.551C190.004 190.999 189.605 190.332 189.314 189.55C189.038 188.753 188.9 187.84 188.9 186.813C188.9 185.448 189.13 184.298 189.59 183.363C190.05 182.412 190.709 181.692 191.568 181.201C192.426 180.695 193.446 180.442 194.627 180.442C195.746 180.442 196.727 180.695 197.571 181.201C198.429 181.692 199.096 182.412 199.572 183.363C200.062 184.298 200.308 185.448 200.308 186.813ZM190.993 186.813C190.993 187.779 191.115 188.622 191.361 189.343C191.621 190.048 192.02 190.593 192.557 190.976C193.093 191.359 193.776 191.551 194.604 191.551C195.432 191.551 196.114 191.359 196.651 190.976C197.187 190.593 197.578 190.048 197.824 189.343C198.084 188.622 198.215 187.779 198.215 186.813C198.215 185.832 198.084 184.996 197.824 184.306C197.563 183.616 197.164 183.087 196.628 182.719C196.106 182.336 195.424 182.144 194.581 182.144C193.323 182.144 192.411 182.558 191.844 183.386C191.276 184.214 190.993 185.356 190.993 186.813ZM213.498 175.566C213.436 176.333 213.245 176.977 212.923 177.498C212.616 178.019 212.156 178.41 211.543 178.671C210.929 178.932 210.132 179.062 209.151 179.062C208.154 179.062 207.349 178.932 206.736 178.671C206.138 178.41 205.701 178.027 205.425 177.521C205.149 177 204.98 176.348 204.919 175.566H206.805C206.881 176.394 207.096 176.954 207.449 177.245C207.817 177.521 208.399 177.659 209.197 177.659C209.902 177.659 210.454 177.513 210.853 177.222C211.267 176.915 211.512 176.363 211.589 175.566H213.498ZM205.425 188.193C205.425 188.331 205.417 188.53 205.402 188.791C205.402 189.036 205.394 189.305 205.379 189.596C205.363 189.872 205.348 190.14 205.333 190.401C205.317 190.646 205.302 190.846 205.287 190.999L211.888 180.672H214.372V193H212.486V185.732C212.486 185.487 212.486 185.165 212.486 184.766C212.501 184.367 212.516 183.976 212.532 183.593C212.547 183.194 212.562 182.895 212.578 182.696L206.023 193H203.516V180.672H205.425V188.193ZM226.805 182.374H222.78V193H220.779V182.374H216.8V180.672H226.805V182.374ZM231.142 188.193C231.142 188.331 231.135 188.53 231.119 188.791C231.119 189.036 231.112 189.305 231.096 189.596C231.081 189.872 231.066 190.14 231.05 190.401C231.035 190.646 231.02 190.846 231.004 190.999L237.605 180.672H240.089V193H238.203V185.732C238.203 185.487 238.203 185.165 238.203 184.766C238.219 184.367 238.234 183.976 238.249 183.593C238.265 183.194 238.28 182.895 238.295 182.696L231.74 193H229.233V180.672H231.142V188.193ZM128.994 211.813C128.994 212.84 128.856 213.753 128.58 214.55C128.32 215.332 127.936 215.999 127.43 216.551C126.94 217.103 126.334 217.525 125.613 217.816C124.908 218.092 124.118 218.23 123.244 218.23C122.432 218.23 121.68 218.092 120.99 217.816C120.3 217.525 119.702 217.103 119.196 216.551C118.69 215.999 118.292 215.332 118 214.55C117.724 213.753 117.586 212.84 117.586 211.813C117.586 210.448 117.816 209.298 118.276 208.363C118.736 207.412 119.396 206.692 120.254 206.201C121.113 205.695 122.133 205.442 123.313 205.442C124.433 205.442 125.414 205.695 126.257 206.201C127.116 206.692 127.783 207.412 128.258 208.363C128.749 209.298 128.994 210.448 128.994 211.813ZM119.679 211.813C119.679 212.779 119.802 213.622 120.047 214.343C120.308 215.048 120.707 215.593 121.243 215.976C121.78 216.359 122.462 216.551 123.29 216.551C124.118 216.551 124.801 216.359 125.337 215.976C125.874 215.593 126.265 215.048 126.51 214.343C126.771 213.622 126.901 212.779 126.901 211.813C126.901 210.832 126.771 209.996 126.51 209.306C126.25 208.616 125.851 208.087 125.314 207.719C124.793 207.336 124.111 207.144 123.267 207.144C122.01 207.144 121.098 207.558 120.53 208.386C119.963 209.214 119.679 210.356 119.679 211.813ZM134.226 205.672V210.801H140.919V205.672H142.943V218H140.919V212.503H134.226V218H132.202V205.672H134.226ZM156.231 218H154.184V207.351H150.55C150.396 209.298 150.205 210.962 149.975 212.342C149.745 213.707 149.453 214.818 149.101 215.677C148.748 216.536 148.326 217.164 147.836 217.563C147.345 217.962 146.77 218.161 146.111 218.161C145.911 218.161 145.712 218.146 145.513 218.115C145.329 218.1 145.175 218.061 145.053 218V216.482C145.145 216.513 145.244 216.536 145.352 216.551C145.459 216.566 145.566 216.574 145.674 216.574C146.011 216.574 146.318 216.436 146.594 216.16C146.87 215.884 147.115 215.462 147.33 214.895C147.56 214.328 147.767 213.615 147.951 212.756C148.135 211.882 148.296 210.855 148.434 209.674C148.572 208.493 148.694 207.159 148.802 205.672H156.231V218ZM164.812 205.465C166.315 205.465 167.427 205.795 168.147 206.454C168.868 207.113 169.228 208.164 169.228 209.605V218H167.756L167.365 216.252H167.273C166.921 216.697 166.553 217.072 166.169 217.379C165.801 217.67 165.372 217.885 164.881 218.023C164.406 218.161 163.823 218.23 163.133 218.23C162.397 218.23 161.73 218.1 161.132 217.839C160.55 217.578 160.09 217.18 159.752 216.643C159.415 216.091 159.246 215.401 159.246 214.573C159.246 213.346 159.729 212.403 160.695 211.744C161.661 211.069 163.149 210.701 165.157 210.64L167.25 210.571V209.835C167.25 208.808 167.028 208.095 166.583 207.696C166.139 207.297 165.51 207.098 164.697 207.098C164.053 207.098 163.44 207.198 162.857 207.397C162.275 207.581 161.73 207.796 161.224 208.041L160.603 206.523C161.14 206.232 161.776 205.986 162.512 205.787C163.248 205.572 164.015 205.465 164.812 205.465ZM165.41 212.043C163.877 212.104 162.811 212.35 162.213 212.779C161.631 213.208 161.339 213.814 161.339 214.596C161.339 215.286 161.546 215.792 161.96 216.114C162.39 216.436 162.934 216.597 163.593 216.597C164.636 216.597 165.502 216.313 166.192 215.746C166.882 215.163 167.227 214.274 167.227 213.078V211.974L165.41 212.043ZM183.018 200.566C182.957 201.333 182.765 201.977 182.443 202.498C182.136 203.019 181.676 203.41 181.063 203.671C180.45 203.932 179.652 204.062 178.671 204.062C177.674 204.062 176.869 203.932 176.256 203.671C175.658 203.41 175.221 203.027 174.945 202.521C174.669 202 174.5 201.348 174.439 200.566H176.325C176.402 201.394 176.616 201.954 176.969 202.245C177.337 202.521 177.92 202.659 178.717 202.659C179.422 202.659 179.974 202.513 180.373 202.222C180.787 201.915 181.032 201.363 181.109 200.566H183.018ZM174.945 213.193C174.945 213.331 174.937 213.53 174.922 213.791C174.922 214.036 174.914 214.305 174.899 214.596C174.884 214.872 174.868 215.14 174.853 215.401C174.838 215.646 174.822 215.846 174.807 215.999L181.408 205.672H183.892V218H182.006V210.732C182.006 210.487 182.006 210.165 182.006 209.766C182.021 209.367 182.037 208.976 182.052 208.593C182.067 208.194 182.083 207.895 182.098 207.696L175.543 218H173.036V205.672H174.945V213.193ZM189.839 205.672V210.801H196.532V205.672H198.556V218H196.532V212.503H189.839V218H187.815V205.672H189.839ZM211.297 208.342V211.396H201.864V208.342H211.297ZM82.567 243.23C81.4783 243.23 80.5047 243.008 79.646 242.563C78.8027 242.118 78.1357 241.428 77.645 240.493C77.1697 239.558 76.932 238.362 76.932 236.905C76.932 235.387 77.185 234.153 77.691 233.202C78.197 232.251 78.8793 231.554 79.738 231.109C80.612 230.664 81.601 230.442 82.705 230.442C83.3337 230.442 83.9393 230.511 84.522 230.649C85.1047 230.772 85.58 230.925 85.948 231.109L85.327 232.788C84.959 232.65 84.5297 232.52 84.039 232.397C83.5483 232.274 83.0883 232.213 82.659 232.213C81.831 232.213 81.1487 232.389 80.612 232.742C80.0753 233.095 79.6767 233.616 79.416 234.306C79.1553 234.996 79.025 235.855 79.025 236.882C79.025 237.863 79.1553 238.699 79.416 239.389C79.6767 240.079 80.0677 240.6 80.589 240.953C81.1103 241.306 81.762 241.482 82.544 241.482C83.2187 241.482 83.809 241.413 84.315 241.275C84.8363 241.137 85.3117 240.968 85.741 240.769V242.563C85.327 242.778 84.867 242.939 84.361 243.046C83.8703 243.169 83.2723 243.23 82.567 243.23ZM99.3908 236.813C99.3908 237.84 99.2528 238.753 98.9768 239.55C98.7161 240.332 98.3328 240.999 97.8268 241.551C97.3361 242.103 96.7304 242.525 96.0098 242.816C95.3044 243.092 94.5148 243.23 93.6408 243.23C92.8281 243.23 92.0768 243.092 91.3868 242.816C90.6968 242.525 90.0988 242.103 89.5928 241.551C89.0868 240.999 88.6881 240.332 88.3968 239.55C88.1208 238.753 87.9828 237.84 87.9828 236.813C87.9828 235.448 88.2128 234.298 88.6728 233.363C89.1328 232.412 89.7921 231.692 90.6508 231.201C91.5094 230.695 92.5291 230.442 93.7098 230.442C94.8291 230.442 95.8104 230.695 96.6538 231.201C97.5124 231.692 98.1794 232.412 98.6548 233.363C99.1454 234.298 99.3908 235.448 99.3908 236.813ZM90.0758 236.813C90.0758 237.779 90.1984 238.622 90.4438 239.343C90.7044 240.048 91.1031 240.593 91.6398 240.976C92.1764 241.359 92.8588 241.551 93.6868 241.551C94.5148 241.551 95.1971 241.359 95.7338 240.976C96.2704 240.593 96.6614 240.048 96.9068 239.343C97.1674 238.622 97.2978 237.779 97.2978 236.813C97.2978 235.832 97.1674 234.996 96.9068 234.306C96.6461 233.616 96.2474 233.087 95.7108 232.719C95.1894 232.336 94.5071 232.144 93.6638 232.144C92.4064 232.144 91.4941 232.558 90.9268 233.386C90.3594 234.214 90.0758 235.356 90.0758 236.813ZM101.955 235.594C101.955 233.8 102.131 232.274 102.484 231.017C102.852 229.744 103.411 228.732 104.163 227.981C104.929 227.214 105.911 226.701 107.107 226.44C108.103 226.225 109.077 226.034 110.028 225.865C110.978 225.696 111.868 225.543 112.696 225.405L113.041 227.176C112.642 227.237 112.197 227.314 111.707 227.406C111.216 227.483 110.718 227.567 110.212 227.659C109.706 227.736 109.215 227.82 108.74 227.912C108.28 227.989 107.873 228.065 107.521 228.142C107.015 228.249 106.562 228.433 106.164 228.694C105.765 228.939 105.42 229.277 105.129 229.706C104.853 230.135 104.63 230.664 104.462 231.293C104.293 231.922 104.193 232.665 104.163 233.524H104.301C104.515 233.233 104.807 232.934 105.175 232.627C105.558 232.32 106.01 232.06 106.532 231.845C107.068 231.63 107.674 231.523 108.349 231.523C109.422 231.523 110.311 231.761 111.017 232.236C111.737 232.696 112.274 233.34 112.627 234.168C112.995 234.996 113.179 235.962 113.179 237.066C113.179 238.431 112.941 239.573 112.466 240.493C111.99 241.413 111.331 242.103 110.488 242.563C109.644 243.008 108.663 243.23 107.544 243.23C106.7 243.23 105.934 243.069 105.244 242.747C104.554 242.41 103.963 241.919 103.473 241.275C102.982 240.631 102.606 239.834 102.346 238.883C102.085 237.932 101.955 236.836 101.955 235.594ZM107.705 241.551C108.379 241.551 108.962 241.413 109.453 241.137C109.959 240.861 110.35 240.409 110.626 239.78C110.902 239.151 111.04 238.316 111.04 237.273C111.04 236.016 110.802 235.027 110.327 234.306C109.867 233.57 109.1 233.202 108.027 233.202C107.352 233.202 106.739 233.355 106.187 233.662C105.635 233.953 105.175 234.291 104.807 234.674C104.439 235.057 104.178 235.379 104.025 235.64C104.025 236.391 104.078 237.12 104.186 237.825C104.293 238.53 104.477 239.167 104.738 239.734C105.014 240.286 105.389 240.731 105.865 241.068C106.355 241.39 106.969 241.551 107.705 241.551ZM121.128 230.442C122.186 230.442 123.091 230.672 123.842 231.132C124.609 231.592 125.191 232.244 125.59 233.087C126.004 233.915 126.211 234.889 126.211 236.008V237.227H117.77C117.801 238.622 118.153 239.688 118.828 240.424C119.518 241.145 120.476 241.505 121.703 241.505C122.485 241.505 123.175 241.436 123.773 241.298C124.386 241.145 125.015 240.93 125.659 240.654V242.425C125.03 242.701 124.409 242.9 123.796 243.023C123.183 243.161 122.454 243.23 121.611 243.23C120.446 243.23 119.411 242.992 118.506 242.517C117.617 242.042 116.919 241.336 116.413 240.401C115.922 239.45 115.677 238.293 115.677 236.928C115.677 235.579 115.899 234.421 116.344 233.455C116.804 232.489 117.44 231.745 118.253 231.224C119.081 230.703 120.039 230.442 121.128 230.442ZM121.105 232.098C120.139 232.098 119.372 232.412 118.805 233.041C118.253 233.654 117.923 234.513 117.816 235.617H124.095C124.095 234.912 123.988 234.298 123.773 233.777C123.558 233.256 123.229 232.849 122.784 232.558C122.355 232.251 121.795 232.098 121.105 232.098ZM134.295 243.23C133.206 243.23 132.232 243.008 131.374 242.563C130.53 242.118 129.863 241.428 129.373 240.493C128.897 239.558 128.66 238.362 128.66 236.905C128.66 235.387 128.913 234.153 129.419 233.202C129.925 232.251 130.607 231.554 131.466 231.109C132.34 230.664 133.329 230.442 134.433 230.442C135.061 230.442 135.667 230.511 136.25 230.649C136.832 230.772 137.308 230.925 137.676 231.109L137.055 232.788C136.687 232.65 136.257 232.52 135.767 232.397C135.276 232.274 134.816 232.213 134.387 232.213C133.559 232.213 132.876 232.389 132.34 232.742C131.803 233.095 131.404 233.616 131.144 234.306C130.883 234.996 130.753 235.855 130.753 236.882C130.753 237.863 130.883 238.699 131.144 239.389C131.404 240.079 131.795 240.6 132.317 240.953C132.838 241.306 133.49 241.482 134.272 241.482C134.946 241.482 135.537 241.413 136.043 241.275C136.564 241.137 137.039 240.968 137.469 240.769V242.563C137.055 242.778 136.595 242.939 136.089 243.046C135.598 243.169 135 243.23 134.295 243.23ZM145.161 230.442C146.219 230.442 147.124 230.672 147.875 231.132C148.642 231.592 149.225 232.244 149.623 233.087C150.037 233.915 150.244 234.889 150.244 236.008V237.227H141.803C141.834 238.622 142.187 239.688 142.861 240.424C143.551 241.145 144.51 241.505 145.736 241.505C146.518 241.505 147.208 241.436 147.806 241.298C148.42 241.145 149.048 240.93 149.692 240.654V242.425C149.064 242.701 148.443 242.9 147.829 243.023C147.216 243.161 146.488 243.23 145.644 243.23C144.479 243.23 143.444 242.992 142.539 242.517C141.65 242.042 140.952 241.336 140.446 240.401C139.956 239.45 139.71 238.293 139.71 236.928C139.71 235.579 139.933 234.421 140.377 233.455C140.837 232.489 141.474 231.745 142.286 231.224C143.114 230.703 144.073 230.442 145.161 230.442ZM145.138 232.098C144.172 232.098 143.406 232.412 142.838 233.041C142.286 233.654 141.957 234.513 141.849 235.617H148.128C148.128 234.912 148.021 234.298 147.806 233.777C147.592 233.256 147.262 232.849 146.817 232.558C146.388 232.251 145.828 232.098 145.138 232.098ZM162.537 230.672V241.298H164.331V247.278H162.376V243H153.797V247.278H151.865V241.298H152.854C153.559 240.317 154.142 239.251 154.602 238.101C155.077 236.936 155.43 235.724 155.66 234.467C155.905 233.194 156.035 231.929 156.051 230.672H162.537ZM157.845 232.259C157.783 233.302 157.622 234.383 157.362 235.502C157.101 236.606 156.764 237.664 156.35 238.676C155.951 239.688 155.483 240.562 154.947 241.298H160.582V232.259H157.845ZM177.465 236.813C177.465 237.84 177.327 238.753 177.051 239.55C176.79 240.332 176.407 240.999 175.901 241.551C175.41 242.103 174.805 242.525 174.084 242.816C173.379 243.092 172.589 243.23 171.715 243.23C170.902 243.23 170.151 243.092 169.461 242.816C168.771 242.525 168.173 242.103 167.667 241.551C167.161 240.999 166.762 240.332 166.471 239.55C166.195 238.753 166.057 237.84 166.057 236.813C166.057 235.448 166.287 234.298 166.747 233.363C167.207 232.412 167.866 231.692 168.725 231.201C169.584 230.695 170.603 230.442 171.784 230.442C172.903 230.442 173.885 230.695 174.728 231.201C175.587 231.692 176.254 232.412 176.729 233.363C177.22 234.298 177.465 235.448 177.465 236.813ZM168.15 236.813C168.15 237.779 168.273 238.622 168.518 239.343C168.779 240.048 169.177 240.593 169.714 240.976C170.251 241.359 170.933 241.551 171.761 241.551C172.589 241.551 173.271 241.359 173.808 240.976C174.345 240.593 174.736 240.048 174.981 239.343C175.242 238.622 175.372 237.779 175.372 236.813C175.372 235.832 175.242 234.996 174.981 234.306C174.72 233.616 174.322 233.087 173.785 232.719C173.264 232.336 172.581 232.144 171.738 232.144C170.481 232.144 169.568 232.558 169.001 233.386C168.434 234.214 168.15 235.356 168.15 236.813ZM190.586 233.777C190.586 234.544 190.356 235.142 189.896 235.571C189.436 236 188.845 236.292 188.125 236.445V236.537C188.891 236.644 189.558 236.92 190.126 237.365C190.693 237.794 190.977 238.469 190.977 239.389C190.977 239.91 190.877 240.393 190.678 240.838C190.494 241.283 190.202 241.666 189.804 241.988C189.405 242.31 188.891 242.563 188.263 242.747C187.634 242.916 186.875 243 185.986 243H180.673V230.672H185.963C186.837 230.672 187.619 230.772 188.309 230.971C189.014 231.155 189.566 231.477 189.965 231.937C190.379 232.382 190.586 232.995 190.586 233.777ZM188.884 239.389C188.884 238.684 188.615 238.178 188.079 237.871C187.542 237.564 186.752 237.411 185.71 237.411H182.697V241.367H185.756C186.768 241.367 187.542 241.221 188.079 240.93C188.615 240.623 188.884 240.11 188.884 239.389ZM188.539 234.03C188.539 233.447 188.324 233.026 187.895 232.765C187.481 232.489 186.798 232.351 185.848 232.351H182.697V235.732H185.48C186.476 235.732 187.235 235.594 187.757 235.318C188.278 235.042 188.539 234.613 188.539 234.03ZM198.594 230.465C200.096 230.465 201.208 230.795 201.929 231.454C202.649 232.113 203.01 233.164 203.01 234.605V243H201.538L201.147 241.252H201.055C200.702 241.697 200.334 242.072 199.951 242.379C199.583 242.67 199.153 242.885 198.663 243.023C198.187 243.161 197.605 243.23 196.915 243.23C196.179 243.23 195.512 243.1 194.914 242.839C194.331 242.578 193.871 242.18 193.534 241.643C193.196 241.091 193.028 240.401 193.028 239.573C193.028 238.346 193.511 237.403 194.477 236.744C195.443 236.069 196.93 235.701 198.939 235.64L201.032 235.571V234.835C201.032 233.808 200.809 233.095 200.365 232.696C199.92 232.297 199.291 232.098 198.479 232.098C197.835 232.098 197.221 232.198 196.639 232.397C196.056 232.581 195.512 232.796 195.006 233.041L194.385 231.523C194.921 231.232 195.558 230.986 196.294 230.787C197.03 230.572 197.796 230.465 198.594 230.465ZM199.192 237.043C197.658 237.104 196.593 237.35 195.995 237.779C195.412 238.208 195.121 238.814 195.121 239.596C195.121 240.286 195.328 240.792 195.742 241.114C196.171 241.436 196.715 241.597 197.375 241.597C198.417 241.597 199.284 241.313 199.974 240.746C200.664 240.163 201.009 239.274 201.009 238.078V236.974L199.192 237.043ZM208.841 230.672V235.801H215.534V230.672H217.558V243H215.534V237.503H208.841V243H206.817V230.672H208.841ZM223.371 238.193C223.371 238.331 223.363 238.53 223.348 238.791C223.348 239.036 223.34 239.305 223.325 239.596C223.31 239.872 223.294 240.14 223.279 240.401C223.264 240.646 223.248 240.846 223.233 240.999L229.834 230.672H232.318V243H230.432V235.732C230.432 235.487 230.432 235.165 230.432 234.766C230.447 234.367 230.463 233.976 230.478 233.593C230.493 233.194 230.509 232.895 230.524 232.696L223.969 243H221.462V230.672H223.371V238.193ZM241.002 230.442C242.06 230.442 242.965 230.672 243.716 231.132C244.483 231.592 245.065 232.244 245.464 233.087C245.878 233.915 246.085 234.889 246.085 236.008V237.227H237.644C237.675 238.622 238.027 239.688 238.702 240.424C239.392 241.145 240.35 241.505 241.577 241.505C242.359 241.505 243.049 241.436 243.647 241.298C244.26 241.145 244.889 240.93 245.533 240.654V242.425C244.904 242.701 244.283 242.9 243.67 243.023C243.057 243.161 242.328 243.23 241.485 243.23C240.32 243.23 239.285 242.992 238.38 242.517C237.491 242.042 236.793 241.336 236.287 240.401C235.796 239.45 235.551 238.293 235.551 236.928C235.551 235.579 235.773 234.421 236.218 233.455C236.678 232.489 237.314 231.745 238.127 231.224C238.955 230.703 239.913 230.442 241.002 230.442ZM240.979 232.098C240.013 232.098 239.246 232.412 238.679 233.041C238.127 233.654 237.797 234.513 237.69 235.617H243.969C243.969 234.912 243.862 234.298 243.647 233.777C243.432 233.256 243.103 232.849 242.658 232.558C242.229 232.251 241.669 232.098 240.979 232.098ZM252.21 241.854C252.21 242.124 252.161 242.379 252.064 242.618C251.967 242.85 251.832 243.052 251.66 243.225C251.487 243.397 251.285 243.532 251.053 243.629C250.821 243.734 250.57 243.786 250.301 243.786C250.039 243.786 249.788 243.734 249.548 243.629C249.316 243.532 249.11 243.397 248.931 243.225C248.758 243.052 248.62 242.85 248.515 242.618C248.418 242.379 248.369 242.124 248.369 241.854C248.369 241.592 248.418 241.345 248.515 241.113C248.62 240.881 248.758 240.679 248.931 240.507C249.11 240.335 249.316 240.2 249.548 240.103C249.788 239.998 250.039 239.945 250.301 239.945C250.57 239.945 250.821 239.998 251.053 240.103C251.285 240.2 251.487 240.335 251.66 240.507C251.832 240.679 251.967 240.881 252.064 241.113C252.161 241.345 252.21 241.592 252.21 241.854Z" fill="#724318"/>
</svg>
