<svg width="314" height="309" viewBox="0 0 314 309" fill="none" xmlns="http://www.w3.org/2000/svg">
<rect x="5" width="309" height="309" fill="#DCB193"/>
<ellipse cx="115.929" cy="141.81" rx="100.773" ry="59.4624" transform="rotate(22.7528 115.929 141.81)" fill="#FFF5EF"/>
<ellipse cx="216.702" cy="136.176" rx="86.377" ry="53.8291" fill="#FFF5EF"/>
<ellipse cx="115.187" cy="220.614" rx="70.7456" ry="44.4403" transform="rotate(4.10105 115.187 220.614)" fill="#FFF5EF"/>
<ellipse cx="201.054" cy="220.676" rx="70.729" ry="44.4403" fill="#FFF5EF"/>
<path d="M86.8149 36.402C86.8149 38.0567 86.2936 39.3713 85.2509 40.346C84.2083 41.298 82.8143 41.91 81.0689 42.182V42.318C83.1089 42.59 84.6616 43.2247 85.7269 44.222C86.7923 45.2193 87.3249 46.5227 87.3249 48.132C87.3249 49.56 86.9623 50.818 86.2369 51.906C85.5116 52.9713 84.4236 53.81 82.9729 54.422C81.5223 55.034 79.7089 55.34 77.5329 55.34C76.2183 55.34 74.9603 55.238 73.7589 55.034C72.5803 54.8527 71.4809 54.5127 70.4609 54.014V51.226C71.1636 51.566 71.9116 51.8607 72.7049 52.11C73.5209 52.3367 74.3369 52.518 75.1529 52.654C75.9689 52.7673 76.7509 52.824 77.4989 52.824C79.6749 52.824 81.3183 52.416 82.4289 51.6C83.5623 50.784 84.1289 49.628 84.1289 48.132C84.1289 46.5907 83.4716 45.4687 82.1569 44.766C80.8423 44.0633 79.0063 43.712 76.6489 43.712H73.1809V41.162H76.4789C78.0883 41.162 79.4143 40.9807 80.4569 40.618C81.5223 40.2553 82.3156 39.7453 82.8369 39.088C83.3809 38.408 83.6529 37.6147 83.6529 36.708C83.6529 35.484 83.1996 34.5433 82.2929 33.886C81.3863 33.2287 80.2076 32.9 78.7569 32.9C77.2383 32.9 75.9689 33.0927 74.9489 33.478C73.9516 33.8633 72.9769 34.362 72.0249 34.974L70.5629 32.9C71.1976 32.424 71.9229 32.0047 72.7389 31.642C73.5776 31.2567 74.5069 30.9507 75.5269 30.724C76.5469 30.4973 77.6349 30.384 78.7909 30.384C80.5363 30.384 81.9983 30.6447 83.1769 31.166C84.3783 31.6873 85.2849 32.4013 85.8969 33.308C86.5089 34.192 86.8149 35.2233 86.8149 36.402ZM95.0392 36.776V44.358H104.933V36.776H107.925V55H104.933V46.874H95.0392V55H92.0472V36.776H95.0392ZM120.598 36.47C122.819 36.47 124.462 36.9573 125.528 37.932C126.593 38.9067 127.126 40.4593 127.126 42.59V55H124.95L124.372 52.416H124.236C123.714 53.0733 123.17 53.6287 122.604 54.082C122.06 54.5127 121.425 54.83 120.7 55.034C119.997 55.238 119.136 55.34 118.116 55.34C117.028 55.34 116.042 55.1473 115.158 54.762C114.296 54.3767 113.616 53.7873 113.118 52.994C112.619 52.178 112.37 51.158 112.37 49.934C112.37 48.1207 113.084 46.7267 114.512 45.752C115.94 44.7547 118.138 44.2107 121.108 44.12L124.202 44.018V42.93C124.202 41.4113 123.873 40.3573 123.216 39.768C122.558 39.1787 121.629 38.884 120.428 38.884C119.476 38.884 118.569 39.0313 117.708 39.326C116.846 39.598 116.042 39.9153 115.294 40.278L114.376 38.034C115.169 37.6033 116.11 37.2407 117.198 36.946C118.286 36.6287 119.419 36.47 120.598 36.47ZM121.482 46.194C119.215 46.2847 117.64 46.6473 116.756 47.282C115.894 47.9167 115.464 48.812 115.464 49.968C115.464 50.988 115.77 51.736 116.382 52.212C117.016 52.688 117.821 52.926 118.796 52.926C120.337 52.926 121.618 52.5067 122.638 51.668C123.658 50.8067 124.168 49.492 124.168 47.724V46.092L121.482 46.194ZM143.532 36.776H146.796L139.01 45.548L147.442 55H143.974L135.746 45.752V55H132.754V36.776H135.746V45.616L143.532 36.776ZM165.93 45.854C165.93 47.3727 165.726 48.7213 165.318 49.9C164.933 51.056 164.366 52.042 163.618 52.858C162.893 53.674 161.998 54.2973 160.932 54.728C159.89 55.136 158.722 55.34 157.43 55.34C156.229 55.34 155.118 55.136 154.098 54.728C153.078 54.2973 152.194 53.674 151.446 52.858C150.698 52.042 150.109 51.056 149.678 49.9C149.27 48.7213 149.066 47.3727 149.066 45.854C149.066 43.8367 149.406 42.1367 150.086 40.754C150.766 39.3487 151.741 38.2833 153.01 37.558C154.28 36.81 155.787 36.436 157.532 36.436C159.187 36.436 160.638 36.81 161.884 37.558C163.154 38.2833 164.14 39.3487 164.842 40.754C165.568 42.1367 165.93 43.8367 165.93 45.854ZM152.16 45.854C152.16 47.282 152.342 48.5287 152.704 49.594C153.09 50.6367 153.679 51.4413 154.472 52.008C155.266 52.5747 156.274 52.858 157.498 52.858C158.722 52.858 159.731 52.5747 160.524 52.008C161.318 51.4413 161.896 50.6367 162.258 49.594C162.644 48.5287 162.836 47.282 162.836 45.854C162.836 44.4033 162.644 43.168 162.258 42.148C161.873 41.128 161.284 40.346 160.49 39.802C159.72 39.2353 158.711 38.952 157.464 38.952C155.606 38.952 154.257 39.564 153.418 40.788C152.58 42.012 152.16 43.7007 152.16 45.854ZM190.222 36.776V55H187.536V43.372C187.536 42.896 187.548 42.3973 187.57 41.876C187.616 41.3547 187.661 40.8447 187.706 40.346H187.604L181.654 55H179.138L173.358 40.346H173.256C173.302 40.8447 173.324 41.3547 173.324 41.876C173.347 42.3973 173.358 42.93 173.358 43.474V55H170.672V36.776H174.65L180.396 51.43L186.244 36.776H190.222ZM203.349 55.34C201.74 55.34 200.301 55.0113 199.031 54.354C197.785 53.6967 196.799 52.6767 196.073 51.294C195.371 49.9113 195.019 48.1433 195.019 45.99C195.019 43.746 195.393 41.9213 196.141 40.516C196.889 39.1107 197.898 38.0793 199.167 37.422C200.459 36.7647 201.921 36.436 203.553 36.436C204.483 36.436 205.378 36.538 206.239 36.742C207.101 36.9233 207.803 37.15 208.347 37.422L207.429 39.904C206.885 39.7 206.251 39.5073 205.525 39.326C204.8 39.1447 204.12 39.054 203.485 39.054C202.261 39.054 201.253 39.3147 200.459 39.836C199.666 40.3573 199.077 41.128 198.691 42.148C198.306 43.168 198.113 44.4373 198.113 45.956C198.113 47.4067 198.306 48.642 198.691 49.662C199.077 50.682 199.655 51.4527 200.425 51.974C201.196 52.4953 202.159 52.756 203.315 52.756C204.313 52.756 205.185 52.654 205.933 52.45C206.704 52.246 207.407 51.9967 208.041 51.702V54.354C207.429 54.6713 206.749 54.9093 206.001 55.068C205.276 55.2493 204.392 55.34 203.349 55.34ZM224.955 39.292H219.005V55H216.047V39.292H210.165V36.776H224.955V39.292ZM243.199 41.366C243.199 42.4993 242.859 43.3833 242.179 44.018C241.499 44.6527 240.627 45.0833 239.561 45.31V45.446C240.695 45.6047 241.681 46.0127 242.519 46.67C243.358 47.3047 243.777 48.302 243.777 49.662C243.777 50.4327 243.63 51.1467 243.335 51.804C243.063 52.4613 242.633 53.028 242.043 53.504C241.454 53.98 240.695 54.354 239.765 54.626C238.836 54.8753 237.714 55 236.399 55H228.545V36.776H236.365C237.657 36.776 238.813 36.9233 239.833 37.218C240.876 37.49 241.692 37.966 242.281 38.646C242.893 39.3033 243.199 40.21 243.199 41.366ZM240.683 49.662C240.683 48.6193 240.287 47.8713 239.493 47.418C238.7 46.9647 237.533 46.738 235.991 46.738H231.537V52.586H236.059C237.555 52.586 238.7 52.3707 239.493 51.94C240.287 51.4867 240.683 50.7273 240.683 49.662ZM240.173 41.74C240.173 40.8787 239.856 40.2553 239.221 39.87C238.609 39.462 237.601 39.258 236.195 39.258H231.537V44.256H235.651C237.125 44.256 238.247 44.052 239.017 43.644C239.788 43.236 240.173 42.6013 240.173 41.74ZM263.979 45.854C263.979 47.3727 263.775 48.7213 263.367 49.9C262.982 51.056 262.415 52.042 261.667 52.858C260.942 53.674 260.046 54.2973 258.981 54.728C257.938 55.136 256.771 55.34 255.479 55.34C254.278 55.34 253.167 55.136 252.147 54.728C251.127 54.2973 250.243 53.674 249.495 52.858C248.747 52.042 248.158 51.056 247.727 49.9C247.319 48.7213 247.115 47.3727 247.115 45.854C247.115 43.8367 247.455 42.1367 248.135 40.754C248.815 39.3487 249.79 38.2833 251.059 37.558C252.328 36.81 253.836 36.436 255.581 36.436C257.236 36.436 258.686 36.81 259.933 37.558C261.202 38.2833 262.188 39.3487 262.891 40.754C263.616 42.1367 263.979 43.8367 263.979 45.854ZM250.209 45.854C250.209 47.282 250.39 48.5287 250.753 49.594C251.138 50.6367 251.728 51.4413 252.521 52.008C253.314 52.5747 254.323 52.858 255.547 52.858C256.771 52.858 257.78 52.5747 258.573 52.008C259.366 51.4413 259.944 50.6367 260.307 49.594C260.692 48.5287 260.885 47.282 260.885 45.854C260.885 44.4033 260.692 43.168 260.307 42.148C259.922 41.128 259.332 40.346 258.539 39.802C257.768 39.2353 256.76 38.952 255.513 38.952C253.654 38.952 252.306 39.564 251.467 40.788C250.628 42.012 250.209 43.7007 250.209 45.854Z" fill="#724318"/>
<path d="M106.276 104.875C105.326 104.875 104.467 105.042 103.701 105.375C102.934 105.692 102.284 106.167 101.751 106.8C101.217 107.417 100.809 108.175 100.526 109.075C100.242 109.958 100.101 110.958 100.101 112.075C100.101 113.542 100.326 114.817 100.776 115.9C101.242 116.983 101.926 117.817 102.826 118.4C103.742 118.983 104.884 119.275 106.251 119.275C107.034 119.275 107.776 119.208 108.476 119.075C109.176 118.942 109.859 118.775 110.526 118.575V120.525C109.859 120.775 109.167 120.958 108.451 121.075C107.751 121.192 106.909 121.25 105.926 121.25C104.109 121.25 102.592 120.875 101.376 120.125C100.159 119.375 99.2424 118.308 98.6257 116.925C98.0257 115.542 97.7257 113.917 97.7257 112.05C97.7257 110.7 97.909 109.467 98.2757 108.35C98.659 107.233 99.209 106.267 99.9257 105.45C100.659 104.633 101.559 104.008 102.626 103.575C103.692 103.125 104.917 102.9 106.301 102.9C107.217 102.9 108.101 102.992 108.951 103.175C109.801 103.358 110.559 103.617 111.226 103.95L110.326 105.85C109.776 105.6 109.159 105.375 108.476 105.175C107.809 104.975 107.076 104.875 106.276 104.875ZM124.897 110.975C124.897 111.808 124.647 112.458 124.147 112.925C123.647 113.392 123.005 113.708 122.222 113.875V113.975C123.055 114.092 123.78 114.392 124.397 114.875C125.013 115.342 125.322 116.075 125.322 117.075C125.322 117.642 125.213 118.167 124.997 118.65C124.797 119.133 124.48 119.55 124.047 119.9C123.613 120.25 123.055 120.525 122.372 120.725C121.688 120.908 120.863 121 119.897 121H114.122V107.6H119.872C120.822 107.6 121.672 107.708 122.422 107.925C123.188 108.125 123.788 108.475 124.222 108.975C124.672 109.458 124.897 110.125 124.897 110.975ZM123.047 117.075C123.047 116.308 122.755 115.758 122.172 115.425C121.588 115.092 120.73 114.925 119.597 114.925H116.322V119.225H119.647C120.747 119.225 121.588 119.067 122.172 118.75C122.755 118.417 123.047 117.858 123.047 117.075ZM122.672 111.25C122.672 110.617 122.438 110.158 121.972 109.875C121.522 109.575 120.78 109.425 119.747 109.425H116.322V113.1H119.347C120.43 113.1 121.255 112.95 121.822 112.65C122.388 112.35 122.672 111.883 122.672 111.25ZM129.351 121H126.801L130.626 115.375C130.109 115.242 129.609 115.033 129.126 114.75C128.643 114.45 128.251 114.042 127.951 113.525C127.651 112.992 127.501 112.333 127.501 111.55C127.501 110.267 127.934 109.292 128.801 108.625C129.668 107.942 130.818 107.6 132.251 107.6H138.251V121H136.051V115.675H132.801L129.351 121ZM129.626 111.575C129.626 112.342 129.909 112.917 130.476 113.3C131.059 113.667 131.868 113.85 132.901 113.85H136.051V109.425H132.476C131.459 109.425 130.726 109.625 130.276 110.025C129.843 110.425 129.626 110.942 129.626 111.575ZM158.566 107.6L153.041 114.1L159.041 121H156.541L150.741 114.2V121H148.691V114.2L142.891 121H140.391L146.391 114.1L140.866 107.6H143.266L148.691 114.1V107.6H150.741V114.1L156.191 107.6H158.566ZM163.316 115.775C163.316 115.925 163.307 116.142 163.291 116.425C163.291 116.692 163.282 116.983 163.266 117.3C163.249 117.6 163.232 117.892 163.216 118.175C163.199 118.442 163.182 118.658 163.166 118.825L170.341 107.6H173.041V121H170.991V113.1C170.991 112.833 170.991 112.483 170.991 112.05C171.007 111.617 171.024 111.192 171.041 110.775C171.057 110.342 171.074 110.017 171.091 109.8L163.966 121H161.241V107.6H163.316V115.775ZM186.555 109.45H182.18V121H180.005V109.45H175.68V107.6H186.555V109.45ZM194.126 107.35C195.276 107.35 196.259 107.6 197.076 108.1C197.909 108.6 198.542 109.308 198.976 110.225C199.426 111.125 199.651 112.183 199.651 113.4V114.725H190.476C190.509 116.242 190.892 117.4 191.626 118.2C192.376 118.983 193.417 119.375 194.751 119.375C195.601 119.375 196.351 119.3 197.001 119.15C197.667 118.983 198.351 118.75 199.051 118.45V120.375C198.367 120.675 197.692 120.892 197.026 121.025C196.359 121.175 195.567 121.25 194.651 121.25C193.384 121.25 192.259 120.992 191.276 120.475C190.309 119.958 189.551 119.192 189.001 118.175C188.467 117.142 188.201 115.883 188.201 114.4C188.201 112.933 188.442 111.675 188.926 110.625C189.426 109.575 190.117 108.767 191.001 108.2C191.901 107.633 192.942 107.35 194.126 107.35ZM194.101 109.15C193.051 109.15 192.217 109.492 191.601 110.175C191.001 110.842 190.642 111.775 190.526 112.975H197.351C197.351 112.208 197.234 111.542 197.001 110.975C196.767 110.408 196.409 109.967 195.926 109.65C195.459 109.317 194.851 109.15 194.101 109.15ZM208.437 121.25C207.254 121.25 206.195 121.008 205.262 120.525C204.345 120.042 203.62 119.292 203.087 118.275C202.57 117.258 202.312 115.958 202.312 114.375C202.312 112.725 202.587 111.383 203.137 110.35C203.687 109.317 204.429 108.558 205.362 108.075C206.312 107.592 207.387 107.35 208.587 107.35C209.27 107.35 209.929 107.425 210.562 107.575C211.195 107.708 211.712 107.875 212.112 108.075L211.437 109.9C211.037 109.75 210.57 109.608 210.037 109.475C209.504 109.342 209.004 109.275 208.537 109.275C207.637 109.275 206.895 109.467 206.312 109.85C205.729 110.233 205.295 110.8 205.012 111.55C204.729 112.3 204.587 113.233 204.587 114.35C204.587 115.417 204.729 116.325 205.012 117.075C205.295 117.825 205.72 118.392 206.287 118.775C206.854 119.158 207.562 119.35 208.412 119.35C209.145 119.35 209.787 119.275 210.337 119.125C210.904 118.975 211.42 118.792 211.887 118.575V120.525C211.437 120.758 210.937 120.933 210.387 121.05C209.854 121.183 209.204 121.25 208.437 121.25ZM221.249 113.1C222.415 113.1 223.382 113.242 224.149 113.525C224.915 113.808 225.49 114.233 225.874 114.8C226.274 115.35 226.474 116.05 226.474 116.9C226.474 117.733 226.282 118.458 225.899 119.075C225.532 119.692 224.957 120.167 224.174 120.5C223.39 120.833 222.382 121 221.149 121H215.074V107.6H217.274V113.1H221.249ZM224.274 117.025C224.274 116.208 223.982 115.658 223.399 115.375C222.832 115.075 222.032 114.925 220.999 114.925H217.274V119.225H221.049C221.982 119.225 222.749 119.058 223.349 118.725C223.965 118.392 224.274 117.825 224.274 117.025ZM82.7778 149.25C81.5945 149.25 80.5362 149.008 79.6028 148.525C78.6862 148.042 77.9612 147.292 77.4278 146.275C76.9112 145.258 76.6528 143.958 76.6528 142.375C76.6528 140.725 76.9278 139.383 77.4778 138.35C78.0278 137.317 78.7695 136.558 79.7028 136.075C80.6528 135.592 81.7278 135.35 82.9278 135.35C83.6112 135.35 84.2695 135.425 84.9028 135.575C85.5362 135.708 86.0528 135.875 86.4528 136.075L85.7778 137.9C85.3778 137.75 84.9112 137.608 84.3778 137.475C83.8445 137.342 83.3445 137.275 82.8778 137.275C81.9778 137.275 81.2362 137.467 80.6528 137.85C80.0695 138.233 79.6362 138.8 79.3528 139.55C79.0695 140.3 78.9278 141.233 78.9278 142.35C78.9278 143.417 79.0695 144.325 79.3528 145.075C79.6362 145.825 80.0612 146.392 80.6278 146.775C81.1945 147.158 81.9028 147.35 82.7528 147.35C83.4862 147.35 84.1278 147.275 84.6778 147.125C85.2445 146.975 85.7612 146.792 86.2278 146.575V148.525C85.7778 148.758 85.2778 148.933 84.7278 149.05C84.1945 149.183 83.5445 149.25 82.7778 149.25ZM99.5964 142.15L94.9714 135.6H97.4714L100.921 140.65L104.346 135.6H106.821L102.196 142.15L107.071 149H104.571L100.921 143.65L97.2214 149H94.7464L99.5964 142.15ZM120.816 142.275C120.816 143.392 120.666 144.383 120.366 145.25C120.082 146.1 119.666 146.825 119.116 147.425C118.582 148.025 117.924 148.483 117.141 148.8C116.374 149.1 115.516 149.25 114.566 149.25C113.682 149.25 112.866 149.1 112.116 148.8C111.366 148.483 110.716 148.025 110.166 147.425C109.616 146.825 109.182 146.1 108.866 145.25C108.566 144.383 108.416 143.392 108.416 142.275C108.416 140.792 108.666 139.542 109.166 138.525C109.666 137.492 110.382 136.708 111.316 136.175C112.249 135.625 113.357 135.35 114.641 135.35C115.857 135.35 116.924 135.625 117.841 136.175C118.774 136.708 119.499 137.492 120.016 138.525C120.549 139.542 120.816 140.792 120.816 142.275ZM110.691 142.275C110.691 143.325 110.824 144.242 111.091 145.025C111.374 145.792 111.807 146.383 112.391 146.8C112.974 147.217 113.716 147.425 114.616 147.425C115.516 147.425 116.257 147.217 116.841 146.8C117.424 146.383 117.849 145.792 118.116 145.025C118.399 144.242 118.541 143.325 118.541 142.275C118.541 141.208 118.399 140.3 118.116 139.55C117.832 138.8 117.399 138.225 116.816 137.825C116.249 137.408 115.507 137.2 114.591 137.2C113.224 137.2 112.232 137.65 111.616 138.55C110.999 139.45 110.691 140.692 110.691 142.275ZM127.827 135.35C128.844 135.35 129.727 135.492 130.477 135.775C131.227 136.042 131.811 136.442 132.227 136.975C132.644 137.492 132.852 138.125 132.852 138.875C132.852 139.692 132.627 140.342 132.177 140.825C131.727 141.292 131.111 141.633 130.327 141.85V141.95C130.861 142.1 131.352 142.308 131.802 142.575C132.252 142.842 132.611 143.192 132.877 143.625C133.161 144.058 133.302 144.617 133.302 145.3C133.302 146.033 133.094 146.7 132.677 147.3C132.277 147.9 131.652 148.375 130.802 148.725C129.969 149.075 128.894 149.25 127.577 149.25C126.944 149.25 126.336 149.217 125.752 149.15C125.186 149.083 124.669 148.983 124.202 148.85C123.752 148.717 123.352 148.558 123.002 148.375V146.4C123.569 146.667 124.236 146.908 125.002 147.125C125.786 147.342 126.636 147.45 127.552 147.45C128.219 147.45 128.819 147.375 129.352 147.225C129.902 147.075 130.336 146.842 130.652 146.525C130.969 146.192 131.127 145.742 131.127 145.175C131.127 144.658 130.986 144.242 130.702 143.925C130.419 143.592 129.994 143.342 129.427 143.175C128.877 143.008 128.169 142.925 127.302 142.925H125.502V141.125H126.952C128.102 141.125 129.019 140.975 129.702 140.675C130.402 140.358 130.752 139.825 130.752 139.075C130.752 138.442 130.486 137.967 129.952 137.65C129.436 137.333 128.686 137.175 127.702 137.175C126.969 137.175 126.319 137.25 125.752 137.4C125.202 137.533 124.594 137.742 123.927 138.025L123.152 136.275C123.869 135.958 124.619 135.725 125.402 135.575C126.186 135.425 126.994 135.35 127.827 135.35ZM137.383 149H134.833L138.658 143.375C138.141 143.242 137.641 143.033 137.158 142.75C136.675 142.45 136.283 142.042 135.983 141.525C135.683 140.992 135.533 140.333 135.533 139.55C135.533 138.267 135.966 137.292 136.833 136.625C137.7 135.942 138.85 135.6 140.283 135.6H146.283V149H144.083V143.675H140.833L137.383 149ZM137.658 139.575C137.658 140.342 137.941 140.917 138.508 141.3C139.091 141.667 139.9 141.85 140.933 141.85H144.083V137.425H140.508C139.491 137.425 138.758 137.625 138.308 138.025C137.875 138.425 137.658 138.942 137.658 139.575ZM155.698 135.35C156.848 135.35 157.831 135.6 158.648 136.1C159.481 136.6 160.115 137.308 160.548 138.225C160.998 139.125 161.223 140.183 161.223 141.4V142.725H152.048C152.081 144.242 152.465 145.4 153.198 146.2C153.948 146.983 154.99 147.375 156.323 147.375C157.173 147.375 157.923 147.3 158.573 147.15C159.24 146.983 159.923 146.75 160.623 146.45V148.375C159.94 148.675 159.265 148.892 158.598 149.025C157.931 149.175 157.14 149.25 156.223 149.25C154.956 149.25 153.831 148.992 152.848 148.475C151.881 147.958 151.123 147.192 150.573 146.175C150.04 145.142 149.773 143.883 149.773 142.4C149.773 140.933 150.015 139.675 150.498 138.625C150.998 137.575 151.69 136.767 152.573 136.2C153.473 135.633 154.515 135.35 155.698 135.35ZM155.673 137.15C154.623 137.15 153.79 137.492 153.173 138.175C152.573 138.842 152.215 139.775 152.098 140.975H158.923C158.923 140.208 158.806 139.542 158.573 138.975C158.34 138.408 157.981 137.967 157.498 137.65C157.031 137.317 156.423 137.15 155.673 137.15ZM175.409 138.975C175.409 139.808 175.159 140.458 174.659 140.925C174.159 141.392 173.518 141.708 172.734 141.875V141.975C173.568 142.092 174.293 142.392 174.909 142.875C175.526 143.342 175.834 144.075 175.834 145.075C175.834 145.642 175.726 146.167 175.509 146.65C175.309 147.133 174.993 147.55 174.559 147.9C174.126 148.25 173.568 148.525 172.884 148.725C172.201 148.908 171.376 149 170.409 149H164.634V135.6H170.384C171.334 135.6 172.184 135.708 172.934 135.925C173.701 136.125 174.301 136.475 174.734 136.975C175.184 137.458 175.409 138.125 175.409 138.975ZM173.559 145.075C173.559 144.308 173.268 143.758 172.684 143.425C172.101 143.092 171.243 142.925 170.109 142.925H166.834V147.225H170.159C171.259 147.225 172.101 147.067 172.684 146.75C173.268 146.417 173.559 145.858 173.559 145.075ZM173.184 139.25C173.184 138.617 172.951 138.158 172.484 137.875C172.034 137.575 171.293 137.425 170.259 137.425H166.834V141.1H169.859C170.943 141.1 171.768 140.95 172.334 140.65C172.901 140.35 173.184 139.883 173.184 139.25ZM184.114 135.375C185.747 135.375 186.955 135.733 187.739 136.45C188.522 137.167 188.914 138.308 188.914 139.875V149H187.314L186.889 147.1H186.789C186.405 147.583 186.005 147.992 185.589 148.325C185.189 148.642 184.722 148.875 184.189 149.025C183.672 149.175 183.039 149.25 182.289 149.25C181.489 149.25 180.764 149.108 180.114 148.825C179.48 148.542 178.98 148.108 178.614 147.525C178.247 146.925 178.064 146.175 178.064 145.275C178.064 143.942 178.589 142.917 179.639 142.2C180.689 141.467 182.305 141.067 184.489 141L186.764 140.925V140.125C186.764 139.008 186.522 138.233 186.039 137.8C185.555 137.367 184.872 137.15 183.989 137.15C183.289 137.15 182.622 137.258 181.989 137.475C181.355 137.675 180.764 137.908 180.214 138.175L179.539 136.525C180.122 136.208 180.814 135.942 181.614 135.725C182.414 135.492 183.247 135.375 184.114 135.375ZM184.764 142.525C183.097 142.592 181.939 142.858 181.289 143.325C180.655 143.792 180.339 144.45 180.339 145.3C180.339 146.05 180.564 146.6 181.014 146.95C181.48 147.3 182.072 147.475 182.789 147.475C183.922 147.475 184.864 147.167 185.614 146.55C186.364 145.917 186.739 144.95 186.739 143.65V142.45L184.764 142.525ZM207.427 135.6V149H205.452V140.45C205.452 140.1 205.461 139.733 205.477 139.35C205.511 138.967 205.544 138.592 205.577 138.225H205.502L201.127 149H199.277L195.027 138.225H194.952C194.986 138.592 195.002 138.967 195.002 139.35C195.019 139.733 195.027 140.125 195.027 140.525V149H193.052V135.6H195.977L200.202 146.375L204.502 135.6H207.427ZM213.78 143.775C213.78 143.925 213.771 144.142 213.755 144.425C213.755 144.692 213.746 144.983 213.73 145.3C213.713 145.6 213.696 145.892 213.68 146.175C213.663 146.442 213.646 146.658 213.63 146.825L220.805 135.6H223.505V149H221.455V141.1C221.455 140.833 221.455 140.483 221.455 140.05C221.471 139.617 221.488 139.192 221.505 138.775C221.521 138.342 221.538 138.017 221.555 137.8L214.43 149H211.705V135.6H213.78V143.775ZM236.851 143.775C236.851 143.925 236.843 144.142 236.826 144.425C236.826 144.692 236.818 144.983 236.801 145.3C236.784 145.6 236.768 145.892 236.751 146.175C236.734 146.442 236.718 146.658 236.701 146.825L243.876 135.6H246.576V149H244.526V141.1C244.526 140.833 244.526 140.483 244.526 140.05C244.543 139.617 244.559 139.192 244.576 138.775C244.593 138.342 244.609 138.017 244.626 137.8L237.501 149H234.776V135.6H236.851V143.775ZM86.1155 163.6V177H83.9155V165.475H76.9905V177H74.7905V163.6H86.1155ZM102.041 170.275C102.041 171.392 101.891 172.383 101.591 173.25C101.308 174.1 100.891 174.825 100.341 175.425C99.8078 176.025 99.1494 176.483 98.3661 176.8C97.5994 177.1 96.7411 177.25 95.7911 177.25C94.9078 177.25 94.0911 177.1 93.3411 176.8C92.5911 176.483 91.9411 176.025 91.3911 175.425C90.8411 174.825 90.4078 174.1 90.0911 173.25C89.7911 172.383 89.6411 171.392 89.6411 170.275C89.6411 168.792 89.8911 167.542 90.3911 166.525C90.8911 165.492 91.6078 164.708 92.5411 164.175C93.4744 163.625 94.5828 163.35 95.8661 163.35C97.0828 163.35 98.1494 163.625 99.0661 164.175C99.9994 164.708 100.724 165.492 101.241 166.525C101.774 167.542 102.041 168.792 102.041 170.275ZM91.9161 170.275C91.9161 171.325 92.0494 172.242 92.3161 173.025C92.5994 173.792 93.0328 174.383 93.6161 174.8C94.1994 175.217 94.9411 175.425 95.8411 175.425C96.7411 175.425 97.4828 175.217 98.0661 174.8C98.6494 174.383 99.0744 173.792 99.3411 173.025C99.6244 172.242 99.7661 171.325 99.7661 170.275C99.7661 169.208 99.6244 168.3 99.3411 167.55C99.0578 166.8 98.6244 166.225 98.0411 165.825C97.4744 165.408 96.7328 165.2 95.8161 165.2C94.4494 165.2 93.4578 165.65 92.8411 166.55C92.2244 167.45 91.9161 168.692 91.9161 170.275ZM109.053 163.35C110.069 163.35 110.953 163.492 111.703 163.775C112.453 164.042 113.036 164.442 113.453 164.975C113.869 165.492 114.078 166.125 114.078 166.875C114.078 167.692 113.853 168.342 113.403 168.825C112.953 169.292 112.336 169.633 111.553 169.85V169.95C112.086 170.1 112.578 170.308 113.028 170.575C113.478 170.842 113.836 171.192 114.103 171.625C114.386 172.058 114.528 172.617 114.528 173.3C114.528 174.033 114.319 174.7 113.903 175.3C113.503 175.9 112.878 176.375 112.028 176.725C111.194 177.075 110.119 177.25 108.803 177.25C108.169 177.25 107.561 177.217 106.978 177.15C106.411 177.083 105.894 176.983 105.428 176.85C104.978 176.717 104.578 176.558 104.228 176.375V174.4C104.794 174.667 105.461 174.908 106.228 175.125C107.011 175.342 107.861 175.45 108.778 175.45C109.444 175.45 110.044 175.375 110.578 175.225C111.128 175.075 111.561 174.842 111.878 174.525C112.194 174.192 112.353 173.742 112.353 173.175C112.353 172.658 112.211 172.242 111.928 171.925C111.644 171.592 111.219 171.342 110.653 171.175C110.103 171.008 109.394 170.925 108.528 170.925H106.728V169.125H108.178C109.328 169.125 110.244 168.975 110.928 168.675C111.628 168.358 111.978 167.825 111.978 167.075C111.978 166.442 111.711 165.967 111.178 165.65C110.661 165.333 109.911 165.175 108.928 165.175C108.194 165.175 107.544 165.25 106.978 165.4C106.428 165.533 105.819 165.742 105.153 166.025L104.378 164.275C105.094 163.958 105.844 163.725 106.628 163.575C107.411 163.425 108.219 163.35 109.053 163.35ZM119.984 163.6V169.175H127.259V163.6H129.459V177H127.259V171.025H119.984V177H117.784V163.6H119.984ZM138.777 163.375C140.41 163.375 141.618 163.733 142.402 164.45C143.185 165.167 143.577 166.308 143.577 167.875V177H141.977L141.552 175.1H141.452C141.068 175.583 140.668 175.992 140.252 176.325C139.852 176.642 139.385 176.875 138.852 177.025C138.335 177.175 137.702 177.25 136.952 177.25C136.152 177.25 135.427 177.108 134.777 176.825C134.143 176.542 133.643 176.108 133.277 175.525C132.91 174.925 132.727 174.175 132.727 173.275C132.727 171.942 133.252 170.917 134.302 170.2C135.352 169.467 136.968 169.067 139.152 169L141.427 168.925V168.125C141.427 167.008 141.185 166.233 140.702 165.8C140.218 165.367 139.535 165.15 138.652 165.15C137.952 165.15 137.285 165.258 136.652 165.475C136.018 165.675 135.427 165.908 134.877 166.175L134.202 164.525C134.785 164.208 135.477 163.942 136.277 163.725C137.077 163.492 137.91 163.375 138.777 163.375ZM139.427 170.525C137.76 170.592 136.602 170.858 135.952 171.325C135.318 171.792 135.002 172.45 135.002 173.3C135.002 174.05 135.227 174.6 135.677 174.95C136.143 175.3 136.735 175.475 137.452 175.475C138.585 175.475 139.527 175.167 140.277 174.55C141.027 173.917 141.402 172.95 141.402 171.65V170.45L139.427 170.525ZM155.64 163.6H158.04L152.315 170.05L158.515 177H155.965L149.915 170.2V177H147.715V163.6H149.915V170.1L155.64 163.6ZM172.109 170.275C172.109 171.392 171.959 172.383 171.659 173.25C171.376 174.1 170.959 174.825 170.409 175.425C169.876 176.025 169.218 176.483 168.434 176.8C167.668 177.1 166.809 177.25 165.859 177.25C164.976 177.25 164.159 177.1 163.409 176.8C162.659 176.483 162.009 176.025 161.459 175.425C160.909 174.825 160.476 174.1 160.159 173.25C159.859 172.383 159.709 171.392 159.709 170.275C159.709 168.792 159.959 167.542 160.459 166.525C160.959 165.492 161.676 164.708 162.609 164.175C163.543 163.625 164.651 163.35 165.934 163.35C167.151 163.35 168.218 163.625 169.134 164.175C170.068 164.708 170.793 165.492 171.309 166.525C171.843 167.542 172.109 168.792 172.109 170.275ZM161.984 170.275C161.984 171.325 162.118 172.242 162.384 173.025C162.668 173.792 163.101 174.383 163.684 174.8C164.268 175.217 165.009 175.425 165.909 175.425C166.809 175.425 167.551 175.217 168.134 174.8C168.718 174.383 169.143 173.792 169.409 173.025C169.693 172.242 169.834 171.325 169.834 170.275C169.834 169.208 169.693 168.3 169.409 167.55C169.126 166.8 168.693 166.225 168.109 165.825C167.543 165.408 166.801 165.2 165.884 165.2C164.518 165.2 163.526 165.65 162.909 166.55C162.293 167.45 161.984 168.692 161.984 170.275ZM189.971 163.6V177H187.996V168.45C187.996 168.1 188.005 167.733 188.021 167.35C188.055 166.967 188.088 166.592 188.121 166.225H188.046L183.671 177H181.821L177.571 166.225H177.496C177.53 166.592 177.546 166.967 177.546 167.35C177.563 167.733 177.571 168.125 177.571 168.525V177H175.596V163.6H178.521L182.746 174.375L187.046 163.6H189.971ZM200.424 169.1C201.59 169.1 202.557 169.242 203.324 169.525C204.09 169.808 204.665 170.233 205.049 170.8C205.449 171.35 205.649 172.05 205.649 172.9C205.649 173.733 205.457 174.458 205.074 175.075C204.707 175.692 204.132 176.167 203.349 176.5C202.565 176.833 201.557 177 200.324 177H194.249V163.6H196.449V169.1H200.424ZM203.449 173.025C203.449 172.208 203.157 171.658 202.574 171.375C202.007 171.075 201.207 170.925 200.174 170.925H196.449V175.225H200.224C201.157 175.225 201.924 175.058 202.524 174.725C203.14 174.392 203.449 173.825 203.449 173.025ZM217.097 165.45H212.722V177H210.547V165.45H206.222V163.6H217.097V165.45ZM224.668 163.35C225.818 163.35 226.801 163.6 227.618 164.1C228.451 164.6 229.084 165.308 229.518 166.225C229.968 167.125 230.193 168.183 230.193 169.4V170.725H221.018C221.051 172.242 221.434 173.4 222.168 174.2C222.918 174.983 223.959 175.375 225.293 175.375C226.143 175.375 226.893 175.3 227.543 175.15C228.209 174.983 228.893 174.75 229.593 174.45V176.375C228.909 176.675 228.234 176.892 227.568 177.025C226.901 177.175 226.109 177.25 225.193 177.25C223.926 177.25 222.801 176.992 221.818 176.475C220.851 175.958 220.093 175.192 219.543 174.175C219.009 173.142 218.743 171.883 218.743 170.4C218.743 168.933 218.984 167.675 219.468 166.625C219.968 165.575 220.659 164.767 221.543 164.2C222.443 163.633 223.484 163.35 224.668 163.35ZM224.643 165.15C223.593 165.15 222.759 165.492 222.143 166.175C221.543 166.842 221.184 167.775 221.068 168.975H227.893C227.893 168.208 227.776 167.542 227.543 166.975C227.309 166.408 226.951 165.967 226.468 165.65C226.001 165.317 225.393 165.15 224.643 165.15ZM238.979 177.25C237.796 177.25 236.737 177.008 235.804 176.525C234.887 176.042 234.162 175.292 233.629 174.275C233.112 173.258 232.854 171.958 232.854 170.375C232.854 168.725 233.129 167.383 233.679 166.35C234.229 165.317 234.971 164.558 235.904 164.075C236.854 163.592 237.929 163.35 239.129 163.35C239.812 163.35 240.471 163.425 241.104 163.575C241.737 163.708 242.254 163.875 242.654 164.075L241.979 165.9C241.579 165.75 241.112 165.608 240.579 165.475C240.046 165.342 239.546 165.275 239.079 165.275C238.179 165.275 237.437 165.467 236.854 165.85C236.271 166.233 235.837 166.8 235.554 167.55C235.271 168.3 235.129 169.233 235.129 170.35C235.129 171.417 235.271 172.325 235.554 173.075C235.837 173.825 236.262 174.392 236.829 174.775C237.396 175.158 238.104 175.35 238.954 175.35C239.687 175.35 240.329 175.275 240.879 175.125C241.446 174.975 241.962 174.792 242.429 174.575V176.525C241.979 176.758 241.479 176.933 240.929 177.05C240.396 177.183 239.746 177.25 238.979 177.25ZM251.791 169.1C252.957 169.1 253.924 169.242 254.691 169.525C255.457 169.808 256.032 170.233 256.416 170.8C256.816 171.35 257.016 172.05 257.016 172.9C257.016 173.733 256.824 174.458 256.441 175.075C256.074 175.692 255.499 176.167 254.716 176.5C253.932 176.833 252.924 177 251.691 177H245.616V163.6H247.816V169.1H251.791ZM254.816 173.025C254.816 172.208 254.524 171.658 253.941 171.375C253.374 171.075 252.574 170.925 251.541 170.925H247.816V175.225H251.591C252.524 175.225 253.291 175.058 253.891 174.725C254.507 174.392 254.816 173.825 254.816 173.025ZM104.055 205.25C102.871 205.25 101.813 205.008 100.88 204.525C99.963 204.042 99.238 203.292 98.7047 202.275C98.188 201.258 97.9297 199.958 97.9297 198.375C97.9297 196.725 98.2047 195.383 98.7547 194.35C99.3047 193.317 100.046 192.558 100.98 192.075C101.93 191.592 103.005 191.35 104.205 191.35C104.888 191.35 105.546 191.425 106.18 191.575C106.813 191.708 107.33 191.875 107.73 192.075L107.055 193.9C106.655 193.75 106.188 193.608 105.655 193.475C105.121 193.342 104.621 193.275 104.155 193.275C103.255 193.275 102.513 193.467 101.93 193.85C101.346 194.233 100.913 194.8 100.63 195.55C100.346 196.3 100.205 197.233 100.205 198.35C100.205 199.417 100.346 200.325 100.63 201.075C100.913 201.825 101.338 202.392 101.905 202.775C102.471 203.158 103.18 203.35 104.03 203.35C104.763 203.35 105.405 203.275 105.955 203.125C106.521 202.975 107.038 202.792 107.505 202.575V204.525C107.055 204.758 106.555 204.933 106.005 205.05C105.471 205.183 104.821 205.25 104.055 205.25ZM116.998 196.95C116.998 195 117.19 193.342 117.573 191.975C117.973 190.592 118.582 189.492 119.398 188.675C120.232 187.842 121.298 187.283 122.598 187C123.682 186.767 124.74 186.558 125.773 186.375C126.807 186.192 127.773 186.025 128.673 185.875L129.048 187.8C128.615 187.867 128.132 187.95 127.598 188.05C127.065 188.133 126.523 188.225 125.973 188.325C125.423 188.408 124.89 188.5 124.373 188.6C123.873 188.683 123.432 188.767 123.048 188.85C122.498 188.967 122.007 189.167 121.573 189.45C121.14 189.717 120.765 190.083 120.448 190.55C120.148 191.017 119.907 191.592 119.723 192.275C119.54 192.958 119.432 193.767 119.398 194.7H119.548C119.782 194.383 120.098 194.058 120.498 193.725C120.915 193.392 121.407 193.108 121.973 192.875C122.557 192.642 123.215 192.525 123.948 192.525C125.115 192.525 126.082 192.783 126.848 193.3C127.632 193.8 128.215 194.5 128.598 195.4C128.998 196.3 129.198 197.35 129.198 198.55C129.198 200.033 128.94 201.275 128.423 202.275C127.907 203.275 127.19 204.025 126.273 204.525C125.357 205.008 124.29 205.25 123.073 205.25C122.157 205.25 121.323 205.075 120.573 204.725C119.823 204.358 119.182 203.825 118.648 203.125C118.115 202.425 117.707 201.558 117.423 200.525C117.14 199.492 116.998 198.3 116.998 196.95ZM123.248 203.425C123.982 203.425 124.615 203.275 125.148 202.975C125.698 202.675 126.123 202.183 126.423 201.5C126.723 200.817 126.873 199.908 126.873 198.775C126.873 197.408 126.615 196.333 126.098 195.55C125.598 194.75 124.765 194.35 123.598 194.35C122.865 194.35 122.198 194.517 121.598 194.85C120.998 195.167 120.498 195.533 120.098 195.95C119.698 196.367 119.415 196.717 119.248 197C119.248 197.817 119.307 198.608 119.423 199.375C119.54 200.142 119.74 200.833 120.023 201.45C120.323 202.05 120.732 202.533 121.248 202.9C121.782 203.25 122.448 203.425 123.248 203.425ZM130.564 191.6H132.914L135.814 199.225C135.981 199.675 136.131 200.108 136.264 200.525C136.414 200.942 136.547 201.35 136.664 201.75C136.781 202.133 136.872 202.508 136.939 202.875H137.039C137.139 202.458 137.297 201.917 137.514 201.25C137.731 200.567 137.956 199.883 138.189 199.2L140.914 191.6H143.289L137.514 206.85C137.197 207.683 136.822 208.408 136.389 209.025C135.972 209.658 135.456 210.142 134.839 210.475C134.239 210.825 133.506 211 132.639 211C132.239 211 131.889 210.975 131.589 210.925C131.289 210.892 131.031 210.85 130.814 210.8V209.05C130.997 209.083 131.214 209.117 131.464 209.15C131.731 209.183 132.006 209.2 132.289 209.2C132.806 209.2 133.247 209.1 133.614 208.9C133.997 208.717 134.322 208.442 134.589 208.075C134.856 207.725 135.081 207.308 135.264 206.825L135.964 205.05L130.564 191.6ZM154.87 191.6V203.15H156.82V209.65H154.695V205H145.37V209.65H143.27V203.15H144.345C145.112 202.083 145.745 200.925 146.245 199.675C146.762 198.408 147.145 197.092 147.395 195.725C147.662 194.342 147.803 192.967 147.82 191.6H154.87ZM149.77 193.325C149.703 194.458 149.528 195.633 149.245 196.85C148.962 198.05 148.595 199.2 148.145 200.3C147.712 201.4 147.203 202.35 146.62 203.15H152.745V193.325H149.77ZM157.346 191.6H159.696L162.596 199.225C162.763 199.675 162.913 200.108 163.046 200.525C163.196 200.942 163.33 201.35 163.446 201.75C163.563 202.133 163.655 202.508 163.721 202.875H163.821C163.921 202.458 164.08 201.917 164.296 201.25C164.513 200.567 164.738 199.883 164.971 199.2L167.696 191.6H170.071L164.296 206.85C163.98 207.683 163.605 208.408 163.171 209.025C162.755 209.658 162.238 210.142 161.621 210.475C161.021 210.825 160.288 211 159.421 211C159.021 211 158.671 210.975 158.371 210.925C158.071 210.892 157.813 210.85 157.596 210.8V209.05C157.78 209.083 157.996 209.117 158.246 209.15C158.513 209.183 158.788 209.2 159.071 209.2C159.588 209.2 160.03 209.1 160.396 208.9C160.78 208.717 161.105 208.442 161.371 208.075C161.638 207.725 161.863 207.308 162.046 206.825L162.746 205.05L157.346 191.6ZM190.34 191.6V203.175H192.29V209.625H190.09V205H172.19V191.6H174.39V203.15H180.165V191.6H182.365V203.15H188.165V191.6H190.34ZM196.922 199.775C196.922 199.925 196.913 200.142 196.897 200.425C196.897 200.692 196.888 200.983 196.872 201.3C196.855 201.6 196.838 201.892 196.822 202.175C196.805 202.442 196.788 202.658 196.772 202.825L203.947 191.6H206.647V205H204.597V197.1C204.597 196.833 204.597 196.483 204.597 196.05C204.613 195.617 204.63 195.192 204.647 194.775C204.663 194.342 204.68 194.017 204.697 193.8L197.572 205H194.847V191.6H196.922V199.775ZM225.286 191.6V205H223.311V196.45C223.311 196.1 223.319 195.733 223.336 195.35C223.369 194.967 223.403 194.592 223.436 194.225H223.361L218.986 205H217.136L212.886 194.225H212.811C212.844 194.592 212.861 194.967 212.861 195.35C212.878 195.733 212.886 196.125 212.886 196.525V205H210.911V191.6H213.836L218.061 202.375L222.361 191.6H225.286ZM92.2672 222.975C92.2672 223.808 92.0172 224.458 91.5172 224.925C91.0172 225.392 90.3755 225.708 89.5922 225.875V225.975C90.4255 226.092 91.1505 226.392 91.7672 226.875C92.3839 227.342 92.6922 228.075 92.6922 229.075C92.6922 229.642 92.5839 230.167 92.3672 230.65C92.1672 231.133 91.8505 231.55 91.4172 231.9C90.9839 232.25 90.4255 232.525 89.7422 232.725C89.0589 232.908 88.2339 233 87.2672 233H81.4922V219.6H87.2422C88.1922 219.6 89.0422 219.708 89.7922 219.925C90.5589 220.125 91.1589 220.475 91.5922 220.975C92.0422 221.458 92.2672 222.125 92.2672 222.975ZM90.4172 229.075C90.4172 228.308 90.1255 227.758 89.5422 227.425C88.9589 227.092 88.1005 226.925 86.9672 226.925H83.6922V231.225H87.0172C88.1172 231.225 88.9589 231.067 89.5422 230.75C90.1255 230.417 90.4172 229.858 90.4172 229.075ZM90.0422 223.25C90.0422 222.617 89.8089 222.158 89.3422 221.875C88.8922 221.575 88.1505 221.425 87.1172 221.425H83.6922V225.1H86.7172C87.8005 225.1 88.6255 224.95 89.1922 224.65C89.7589 224.35 90.0422 223.883 90.0422 223.25ZM100.971 219.375C102.605 219.375 103.813 219.733 104.596 220.45C105.38 221.167 105.771 222.308 105.771 223.875V233H104.171L103.746 231.1H103.646C103.263 231.583 102.863 231.992 102.446 232.325C102.046 232.642 101.58 232.875 101.046 233.025C100.53 233.175 99.8965 233.25 99.1465 233.25C98.3465 233.25 97.6215 233.108 96.9715 232.825C96.3382 232.542 95.8382 232.108 95.4715 231.525C95.1048 230.925 94.9215 230.175 94.9215 229.275C94.9215 227.942 95.4465 226.917 96.4965 226.2C97.5465 225.467 99.1632 225.067 101.346 225L103.621 224.925V224.125C103.621 223.008 103.38 222.233 102.896 221.8C102.413 221.367 101.73 221.15 100.846 221.15C100.146 221.15 99.4798 221.258 98.8465 221.475C98.2132 221.675 97.6215 221.908 97.0715 222.175L96.3965 220.525C96.9798 220.208 97.6715 219.942 98.4715 219.725C99.2715 219.492 100.105 219.375 100.971 219.375ZM101.621 226.525C99.9548 226.592 98.7965 226.858 98.1465 227.325C97.5132 227.792 97.1965 228.45 97.1965 229.3C97.1965 230.05 97.4215 230.6 97.8715 230.95C98.3382 231.3 98.9298 231.475 99.6465 231.475C100.78 231.475 101.721 231.167 102.471 230.55C103.221 229.917 103.596 228.95 103.596 227.65V226.45L101.621 226.525ZM128.085 219.6V233H109.91V219.6H112.11V231.15H117.885V219.6H120.085V231.15H125.885V219.6H128.085ZM134.446 227.775C134.446 227.925 134.438 228.142 134.421 228.425C134.421 228.692 134.413 228.983 134.396 229.3C134.379 229.6 134.363 229.892 134.346 230.175C134.329 230.442 134.313 230.658 134.296 230.825L141.471 219.6H144.171V233H142.121V225.1C142.121 224.833 142.121 224.483 142.121 224.05C142.138 223.617 142.154 223.192 142.171 222.775C142.188 222.342 142.204 222.017 142.221 221.8L135.096 233H132.371V219.6H134.446V227.775ZM162.811 219.6V233H160.836V224.45C160.836 224.1 160.844 223.733 160.861 223.35C160.894 222.967 160.927 222.592 160.961 222.225H160.886L156.511 233H154.661L150.411 222.225H150.336C150.369 222.592 150.386 222.967 150.386 223.35C150.402 223.733 150.411 224.125 150.411 224.525V233H148.436V219.6H151.361L155.586 230.375L159.886 219.6H162.811ZM182.02 219.6H184.42L178.695 226.05L184.895 233H182.345L176.295 226.2V233H174.095V219.6H176.295V226.1L182.02 219.6ZM198.489 226.275C198.489 227.392 198.339 228.383 198.039 229.25C197.756 230.1 197.339 230.825 196.789 231.425C196.256 232.025 195.597 232.483 194.814 232.8C194.047 233.1 193.189 233.25 192.239 233.25C191.356 233.25 190.539 233.1 189.789 232.8C189.039 232.483 188.389 232.025 187.839 231.425C187.289 230.825 186.856 230.1 186.539 229.25C186.239 228.383 186.089 227.392 186.089 226.275C186.089 224.792 186.339 223.542 186.839 222.525C187.339 221.492 188.056 220.708 188.989 220.175C189.922 219.625 191.031 219.35 192.314 219.35C193.531 219.35 194.597 219.625 195.514 220.175C196.447 220.708 197.172 221.492 197.689 222.525C198.222 223.542 198.489 224.792 198.489 226.275ZM188.364 226.275C188.364 227.325 188.497 228.242 188.764 229.025C189.047 229.792 189.481 230.383 190.064 230.8C190.647 231.217 191.389 231.425 192.289 231.425C193.189 231.425 193.931 231.217 194.514 230.8C195.097 230.383 195.522 229.792 195.789 229.025C196.072 228.242 196.214 227.325 196.214 226.275C196.214 225.208 196.072 224.3 195.789 223.55C195.506 222.8 195.072 222.225 194.489 221.825C193.922 221.408 193.181 221.2 192.264 221.2C190.897 221.2 189.906 221.65 189.289 222.55C188.672 223.45 188.364 224.692 188.364 226.275ZM210.981 221.45H206.606V233H204.431V221.45H200.106V219.6H210.981V221.45ZM225.027 226.275C225.027 227.392 224.877 228.383 224.577 229.25C224.294 230.1 223.877 230.825 223.327 231.425C222.794 232.025 222.135 232.483 221.352 232.8C220.585 233.1 219.727 233.25 218.777 233.25C217.894 233.25 217.077 233.1 216.327 232.8C215.577 232.483 214.927 232.025 214.377 231.425C213.827 230.825 213.394 230.1 213.077 229.25C212.777 228.383 212.627 227.392 212.627 226.275C212.627 224.792 212.877 223.542 213.377 222.525C213.877 221.492 214.594 220.708 215.527 220.175C216.46 219.625 217.569 219.35 218.852 219.35C220.069 219.35 221.135 219.625 222.052 220.175C222.985 220.708 223.71 221.492 224.227 222.525C224.76 223.542 225.027 224.792 225.027 226.275ZM214.902 226.275C214.902 227.325 215.035 228.242 215.302 229.025C215.585 229.792 216.019 230.383 216.602 230.8C217.185 231.217 217.927 231.425 218.827 231.425C219.727 231.425 220.469 231.217 221.052 230.8C221.635 230.383 222.06 229.792 222.327 229.025C222.61 228.242 222.752 227.325 222.752 226.275C222.752 225.208 222.61 224.3 222.327 223.55C222.044 222.8 221.61 222.225 221.027 221.825C220.46 221.408 219.719 221.2 218.802 221.2C217.435 221.2 216.444 221.65 215.827 222.55C215.21 223.45 214.902 224.692 214.902 226.275ZM242.889 219.6V233H240.914V224.45C240.914 224.1 240.922 223.733 240.939 223.35C240.972 222.967 241.005 222.592 241.039 222.225H240.964L236.589 233H234.739L230.489 222.225H230.414C230.447 222.592 230.464 222.967 230.464 223.35C230.48 223.733 230.489 224.125 230.489 224.525V233H228.514V219.6H231.439L235.664 230.375L239.964 219.6H242.889ZM250.412 231.755C250.412 232.048 250.359 232.325 250.253 232.585C250.148 232.837 250.001 233.057 249.814 233.244C249.627 233.431 249.407 233.578 249.155 233.684C248.903 233.798 248.63 233.854 248.337 233.854C248.052 233.854 247.779 233.798 247.519 233.684C247.267 233.578 247.043 233.431 246.848 233.244C246.66 233.057 246.51 232.837 246.396 232.585C246.29 232.325 246.237 232.048 246.237 231.755C246.237 231.47 246.29 231.201 246.396 230.949C246.51 230.697 246.66 230.477 246.848 230.29C247.043 230.103 247.267 229.956 247.519 229.851C247.779 229.737 248.052 229.68 248.337 229.68C248.63 229.68 248.903 229.737 249.155 229.851C249.407 229.956 249.627 230.103 249.814 230.29C250.001 230.477 250.148 230.697 250.253 230.949C250.359 231.201 250.412 231.47 250.412 231.755Z" fill="#724318"/>
</svg>
