<svg width="495" height="39" viewBox="0 0 495 39" fill="none" xmlns="http://www.w3.org/2000/svg">
<path d="M4.24422 9.56V18.48H15.8842V9.56H19.4042V31H15.8842V21.44H4.24422V31H0.724219V9.56H4.24422ZM34.313 9.2C36.9263 9.2 38.8596 9.77333 40.113 10.92C41.3663 12.0667 41.993 13.8933 41.993 16.4V31H39.433L38.753 27.96H38.593C37.9796 28.7333 37.3396 29.3867 36.673 29.92C36.033 30.4267 35.2863 30.8 34.433 31.04C33.6063 31.28 32.593 31.4 31.393 31.4C30.113 31.4 28.953 31.1733 27.913 30.72C26.8996 30.2667 26.0996 29.5733 25.513 28.64C24.9263 27.68 24.633 26.48 24.633 25.04C24.633 22.9067 25.473 21.2667 27.153 20.12C28.833 18.9467 31.4196 18.3067 34.913 18.2L38.553 18.08V16.8C38.553 15.0133 38.1663 13.7733 37.393 13.08C36.6196 12.3867 35.5263 12.04 34.113 12.04C32.993 12.04 31.9263 12.2133 30.913 12.56C29.8996 12.88 28.953 13.2533 28.073 13.68L26.993 11.04C27.9263 10.5333 29.033 10.1067 30.313 9.76C31.593 9.38667 32.9263 9.2 34.313 9.2ZM35.353 20.64C32.6863 20.7467 30.833 21.1733 29.793 21.92C28.7796 22.6667 28.273 23.72 28.273 25.08C28.273 26.28 28.633 27.16 29.353 27.72C30.0996 28.28 31.0463 28.56 32.193 28.56C34.0063 28.56 35.513 28.0667 36.713 27.08C37.913 26.0667 38.513 24.52 38.513 22.44V20.52L35.353 20.64ZM65.9748 0.679999C65.8682 2.01333 65.5348 3.13333 64.9748 4.04C64.4415 4.94667 63.6415 5.62667 62.5748 6.08C61.5082 6.53333 60.1215 6.76 58.4148 6.76C56.6815 6.76 55.2815 6.53333 54.2148 6.08C53.1748 5.62667 52.4148 4.96 51.9348 4.08C51.4548 3.17333 51.1615 2.04 51.0548 0.679999H54.3348C54.4682 2.12 54.8415 3.09333 55.4548 3.6C56.0948 4.08 57.1082 4.32 58.4948 4.32C59.7215 4.32 60.6815 4.06666 61.3748 3.56C62.0948 3.02667 62.5215 2.06667 62.6548 0.679999H65.9748ZM51.9348 22.64C51.9348 22.88 51.9215 23.2267 51.8948 23.68C51.8948 24.1067 51.8815 24.5733 51.8548 25.08C51.8282 25.56 51.8015 26.0267 51.7748 26.48C51.7482 26.9067 51.7215 27.2533 51.6948 27.52L63.1748 9.56H67.4948V31H64.2148V18.36C64.2148 17.9333 64.2148 17.3733 64.2148 16.68C64.2415 15.9867 64.2682 15.3067 64.2948 14.64C64.3215 13.9467 64.3482 13.4267 64.3748 13.08L52.9748 31H48.6148V9.56H51.9348V22.64ZM90.238 9.56V28.04H93.358V38.44H89.958V31H75.038V38.44H71.678V28.04H73.398C74.6246 26.3333 75.638 24.48 76.438 22.48C77.2646 20.4533 77.878 18.3467 78.278 16.16C78.7046 13.9467 78.9313 11.7467 78.958 9.56H90.238ZM82.078 12.32C81.9713 14.1333 81.6913 16.0133 81.238 17.96C80.7846 19.88 80.198 21.72 79.478 23.48C78.7846 25.24 77.9713 26.76 77.038 28.04H86.838V12.32H82.078ZM100.88 22.64C100.88 22.88 100.867 23.2267 100.84 23.68C100.84 24.1067 100.827 24.5733 100.8 25.08C100.773 25.56 100.747 26.0267 100.72 26.48C100.693 26.9067 100.667 27.2533 100.64 27.52L112.12 9.56H116.44V31H113.16V18.36C113.16 17.9333 113.16 17.3733 113.16 16.68C113.187 15.9867 113.213 15.3067 113.24 14.64C113.267 13.9467 113.293 13.4267 113.32 13.08L101.92 31H97.5602V9.56H100.88V22.64ZM138.063 12.52H131.063V31H127.583V12.52H120.663V9.56H138.063V12.52ZM150.176 9.16C152.016 9.16 153.589 9.56 154.896 10.36C156.229 11.16 157.243 12.2933 157.936 13.76C158.656 15.2 159.016 16.8933 159.016 18.84V20.96H144.336C144.389 23.3867 145.003 25.24 146.176 26.52C147.376 27.7733 149.043 28.4 151.176 28.4C152.536 28.4 153.736 28.28 154.776 28.04C155.843 27.7733 156.936 27.4 158.056 26.92V30C156.963 30.48 155.883 30.8267 154.816 31.04C153.749 31.28 152.483 31.4 151.016 31.4C148.989 31.4 147.189 30.9867 145.616 30.16C144.069 29.3333 142.856 28.1067 141.976 26.48C141.123 24.8267 140.696 22.8133 140.696 20.44C140.696 18.0933 141.083 16.08 141.856 14.4C142.656 12.72 143.763 11.4267 145.176 10.52C146.616 9.61333 148.283 9.16 150.176 9.16ZM150.136 12.04C148.456 12.04 147.123 12.5867 146.136 13.68C145.176 14.7467 144.603 16.24 144.416 18.16H155.336C155.336 16.9333 155.149 15.8667 154.776 14.96C154.403 14.0533 153.829 13.3467 153.056 12.84C152.309 12.3067 151.336 12.04 150.136 12.04ZM184.402 31.4C182.509 31.4 180.816 31.0133 179.322 30.24C177.856 29.4667 176.696 28.2667 175.842 26.64C175.016 25.0133 174.602 22.9333 174.602 20.4C174.602 17.76 175.042 15.6133 175.922 13.96C176.802 12.3067 177.989 11.0933 179.482 10.32C181.002 9.54667 182.722 9.16 184.642 9.16C185.736 9.16 186.789 9.28 187.802 9.52C188.816 9.73333 189.642 10 190.282 10.32L189.202 13.24C188.562 13 187.816 12.7733 186.962 12.56C186.109 12.3467 185.309 12.24 184.562 12.24C183.122 12.24 181.936 12.5467 181.002 13.16C180.069 13.7733 179.376 14.68 178.922 15.88C178.469 17.08 178.242 18.5733 178.242 20.36C178.242 22.0667 178.469 23.52 178.922 24.72C179.376 25.92 180.056 26.8267 180.962 27.44C181.869 28.0533 183.002 28.36 184.362 28.36C185.536 28.36 186.562 28.24 187.442 28C188.349 27.76 189.176 27.4667 189.922 27.12V30.24C189.202 30.6133 188.402 30.8933 187.522 31.08C186.669 31.2933 185.629 31.4 184.402 31.4ZM212.261 14.96C212.261 16.2933 211.861 17.3333 211.061 18.08C210.261 18.8267 209.234 19.3333 207.981 19.6V19.76C209.314 19.9467 210.474 20.4267 211.461 21.2C212.448 21.9467 212.941 23.12 212.941 24.72C212.941 25.6267 212.768 26.4667 212.421 27.24C212.101 28.0133 211.594 28.68 210.901 29.24C210.208 29.8 209.314 30.24 208.221 30.56C207.128 30.8533 205.808 31 204.261 31H195.021V9.56H204.221C205.741 9.56 207.101 9.73333 208.301 10.08C209.528 10.4 210.488 10.96 211.181 11.76C211.901 12.5333 212.261 13.6 212.261 14.96ZM209.301 24.72C209.301 23.4933 208.834 22.6133 207.901 22.08C206.968 21.5467 205.594 21.28 203.781 21.28H198.541V28.16H203.861C205.621 28.16 206.968 27.9067 207.901 27.4C208.834 26.8667 209.301 25.9733 209.301 24.72ZM208.701 15.4C208.701 14.3867 208.328 13.6533 207.581 13.2C206.861 12.72 205.674 12.48 204.021 12.48H198.541V18.36H203.381C205.114 18.36 206.434 18.12 207.341 17.64C208.248 17.16 208.701 16.4133 208.701 15.4ZM236.708 20.24C236.708 22.0267 236.468 23.6133 235.988 25C235.535 26.36 234.868 27.52 233.988 28.48C233.135 29.44 232.081 30.1733 230.828 30.68C229.601 31.16 228.228 31.4 226.708 31.4C225.295 31.4 223.988 31.16 222.788 30.68C221.588 30.1733 220.548 29.44 219.668 28.48C218.788 27.52 218.095 26.36 217.588 25C217.108 23.6133 216.868 22.0267 216.868 20.24C216.868 17.8667 217.268 15.8667 218.068 14.24C218.868 12.5867 220.015 11.3333 221.508 10.48C223.001 9.6 224.775 9.16 226.828 9.16C228.775 9.16 230.481 9.6 231.948 10.48C233.441 11.3333 234.601 12.5867 235.428 14.24C236.281 15.8667 236.708 17.8667 236.708 20.24ZM220.508 20.24C220.508 21.92 220.721 23.3867 221.148 24.64C221.601 25.8667 222.295 26.8133 223.228 27.48C224.161 28.1467 225.348 28.48 226.788 28.48C228.228 28.48 229.415 28.1467 230.348 27.48C231.281 26.8133 231.961 25.8667 232.388 24.64C232.841 23.3867 233.068 21.92 233.068 20.24C233.068 18.5333 232.841 17.08 232.388 15.88C231.935 14.68 231.241 13.76 230.308 13.12C229.401 12.4533 228.215 12.12 226.748 12.12C224.561 12.12 222.975 12.84 221.988 14.28C221.001 15.72 220.508 17.7067 220.508 20.24ZM250.567 9.16C252.407 9.16 253.98 9.56 255.287 10.36C256.62 11.16 257.633 12.2933 258.327 13.76C259.047 15.2 259.407 16.8933 259.407 18.84V20.96H244.727C244.78 23.3867 245.393 25.24 246.567 26.52C247.767 27.7733 249.433 28.4 251.567 28.4C252.927 28.4 254.127 28.28 255.167 28.04C256.233 27.7733 257.327 27.4 258.447 26.92V30C257.353 30.48 256.273 30.8267 255.207 31.04C254.14 31.28 252.873 31.4 251.407 31.4C249.38 31.4 247.58 30.9867 246.007 30.16C244.46 29.3333 243.247 28.1067 242.367 26.48C241.513 24.8267 241.087 22.8133 241.087 20.44C241.087 18.0933 241.473 16.08 242.247 14.4C243.047 12.72 244.153 11.4267 245.567 10.52C247.007 9.61333 248.673 9.16 250.567 9.16ZM250.527 12.04C248.847 12.04 247.513 12.5867 246.527 13.68C245.567 14.7467 244.993 16.24 244.807 18.16H255.727C255.727 16.9333 255.54 15.8667 255.167 14.96C254.793 14.0533 254.22 13.3467 253.447 12.84C252.7 12.3067 251.727 12.04 250.527 12.04ZM277.945 9.56V12.52H268.385V31H264.865V9.56H277.945ZM300.419 20.24C300.419 22.0267 300.179 23.6133 299.699 25C299.246 26.36 298.579 27.52 297.699 28.48C296.846 29.44 295.792 30.1733 294.539 30.68C293.312 31.16 291.939 31.4 290.419 31.4C289.006 31.4 287.699 31.16 286.499 30.68C285.299 30.1733 284.259 29.44 283.379 28.48C282.499 27.52 281.806 26.36 281.299 25C280.819 23.6133 280.579 22.0267 280.579 20.24C280.579 17.8667 280.979 15.8667 281.779 14.24C282.579 12.5867 283.726 11.3333 285.219 10.48C286.712 9.6 288.486 9.16 290.539 9.16C292.486 9.16 294.192 9.6 295.659 10.48C297.152 11.3333 298.312 12.5867 299.139 14.24C299.992 15.8667 300.419 17.8667 300.419 20.24ZM284.219 20.24C284.219 21.92 284.432 23.3867 284.859 24.64C285.312 25.8667 286.006 26.8133 286.939 27.48C287.872 28.1467 289.059 28.48 290.499 28.48C291.939 28.48 293.126 28.1467 294.059 27.48C294.992 26.8133 295.672 25.8667 296.099 24.64C296.552 23.3867 296.779 21.92 296.779 20.24C296.779 18.5333 296.552 17.08 296.099 15.88C295.646 14.68 294.952 13.76 294.019 13.12C293.112 12.4533 291.926 12.12 290.459 12.12C288.272 12.12 286.686 12.84 285.699 14.28C284.712 15.72 284.219 17.7067 284.219 20.24ZM333.646 31H330.086V12.48H323.766C323.499 15.8667 323.166 18.76 322.766 21.16C322.366 23.5333 321.859 25.4667 321.246 26.96C320.632 28.4533 319.899 29.5467 319.046 30.24C318.192 30.9333 317.192 31.28 316.046 31.28C315.699 31.28 315.352 31.2533 315.006 31.2C314.686 31.1733 314.419 31.1067 314.206 31V28.36C314.366 28.4133 314.539 28.4533 314.726 28.48C314.912 28.5067 315.099 28.52 315.286 28.52C315.872 28.52 316.406 28.28 316.886 27.8C317.366 27.32 317.792 26.5867 318.166 25.6C318.566 24.6133 318.926 23.3733 319.246 21.88C319.566 20.36 319.846 18.5733 320.086 16.52C320.326 14.4667 320.539 12.1467 320.726 9.56H333.646V31ZM368.291 20.24C368.291 22.6133 367.904 24.64 367.131 26.32C366.357 27.9733 365.264 29.24 363.851 30.12C362.437 30.9733 360.757 31.4 358.811 31.4C356.997 31.4 355.411 31.0267 354.051 30.28C352.691 29.5067 351.611 28.3867 350.811 26.92C350.011 25.4267 349.544 23.6 349.411 21.44H343.971V31H340.451V9.56H343.971V18.48H349.451C349.637 16.4533 350.131 14.76 350.931 13.4C351.757 12.0133 352.837 10.96 354.171 10.24C355.531 9.52 357.104 9.16 358.891 9.16C360.731 9.16 362.357 9.6 363.771 10.48C365.184 11.3333 366.291 12.5867 367.091 14.24C367.891 15.8667 368.291 17.8667 368.291 20.24ZM353.011 20.24C353.011 22.0267 353.211 23.5333 353.611 24.76C354.037 25.9867 354.677 26.92 355.531 27.56C356.384 28.1733 357.491 28.48 358.851 28.48C360.211 28.48 361.317 28.1733 362.171 27.56C363.024 26.92 363.651 25.9867 364.051 24.76C364.451 23.5333 364.651 22.0267 364.651 20.24C364.651 18.4533 364.451 16.96 364.051 15.76C363.651 14.56 363.024 13.6533 362.171 13.04C361.317 12.4267 360.211 12.12 358.851 12.12C357.491 12.12 356.384 12.4267 355.531 13.04C354.677 13.6533 354.037 14.56 353.611 15.76C353.211 16.96 353.011 18.4533 353.011 20.24ZM372.768 18.12C372.768 15 373.075 12.3467 373.688 10.16C374.328 7.94667 375.302 6.18667 376.608 4.88C377.942 3.54667 379.648 2.65333 381.728 2.2C383.462 1.82667 385.155 1.49333 386.808 1.2C388.462 0.906665 390.008 0.639998 391.448 0.399998L392.048 3.48C391.355 3.58667 390.582 3.72 389.728 3.88C388.875 4.01333 388.008 4.16 387.128 4.32C386.248 4.45333 385.395 4.6 384.568 4.76C383.768 4.89333 383.062 5.02667 382.448 5.16C381.568 5.34666 380.782 5.66666 380.088 6.12C379.395 6.54667 378.795 7.13333 378.288 7.88C377.808 8.62667 377.422 9.54667 377.128 10.64C376.835 11.7333 376.662 13.0267 376.608 14.52H376.848C377.222 14.0133 377.728 13.4933 378.368 12.96C379.035 12.4267 379.822 11.9733 380.728 11.6C381.662 11.2267 382.715 11.04 383.888 11.04C385.755 11.04 387.302 11.4533 388.528 12.28C389.782 13.08 390.715 14.2 391.328 15.64C391.968 17.08 392.288 18.76 392.288 20.68C392.288 23.0533 391.875 25.04 391.048 26.64C390.222 28.24 389.075 29.44 387.608 30.24C386.142 31.0133 384.435 31.4 382.488 31.4C381.022 31.4 379.688 31.12 378.488 30.56C377.288 29.9733 376.262 29.12 375.408 28C374.555 26.88 373.902 25.4933 373.448 23.84C372.995 22.1867 372.768 20.28 372.768 18.12ZM382.768 28.48C383.942 28.48 384.955 28.24 385.808 27.76C386.688 27.28 387.368 26.4933 387.848 25.4C388.328 24.3067 388.568 22.8533 388.568 21.04C388.568 18.8533 388.155 17.1333 387.328 15.88C386.528 14.6 385.195 13.96 383.328 13.96C382.155 13.96 381.088 14.2267 380.128 14.76C379.168 15.2667 378.368 15.8533 377.728 16.52C377.088 17.1867 376.635 17.7467 376.368 18.2C376.368 19.5067 376.462 20.7733 376.648 22C376.835 23.2267 377.155 24.3333 377.608 25.32C378.088 26.28 378.742 27.0533 379.568 27.64C380.422 28.2 381.488 28.48 382.768 28.48ZM401.154 22.64C401.154 22.88 401.14 23.2267 401.114 23.68C401.114 24.1067 401.1 24.5733 401.074 25.08C401.047 25.56 401.02 26.0267 400.994 26.48C400.967 26.9067 400.94 27.2533 400.914 27.52L412.394 9.56H416.714V31H413.434V18.36C413.434 17.9333 413.434 17.3733 413.434 16.68C413.46 15.9867 413.487 15.3067 413.514 14.64C413.54 13.9467 413.567 13.4267 413.594 13.08L402.194 31H397.834V9.56H401.154V22.64ZM446.537 9.56V31H443.377V17.32C443.377 16.76 443.39 16.1733 443.417 15.56C443.47 14.9467 443.523 14.3467 443.577 13.76H443.457L436.457 31H433.497L426.697 13.76H426.577C426.63 14.3467 426.657 14.9467 426.657 15.56C426.683 16.1733 426.697 16.8 426.697 17.44V31H423.537V9.56H428.217L434.977 26.8L441.857 9.56H446.537ZM474.54 38.44H471.1V31H453.38V9.56H456.9V28.04H467.98V9.56H471.5V28.08H474.54V38.44ZM486.774 9.2C489.387 9.2 491.321 9.77333 492.574 10.92C493.827 12.0667 494.454 13.8933 494.454 16.4V31H491.894L491.214 27.96H491.054C490.441 28.7333 489.801 29.3867 489.134 29.92C488.494 30.4267 487.747 30.8 486.894 31.04C486.067 31.28 485.054 31.4 483.854 31.4C482.574 31.4 481.414 31.1733 480.374 30.72C479.361 30.2667 478.561 29.5733 477.974 28.64C477.387 27.68 477.094 26.48 477.094 25.04C477.094 22.9067 477.934 21.2667 479.614 20.12C481.294 18.9467 483.881 18.3067 487.374 18.2L491.014 18.08V16.8C491.014 15.0133 490.627 13.7733 489.854 13.08C489.081 12.3867 487.987 12.04 486.574 12.04C485.454 12.04 484.387 12.2133 483.374 12.56C482.361 12.88 481.414 13.2533 480.534 13.68L479.454 11.04C480.387 10.5333 481.494 10.1067 482.774 9.76C484.054 9.38667 485.387 9.2 486.774 9.2ZM487.814 20.64C485.147 20.7467 483.294 21.1733 482.254 21.92C481.241 22.6667 480.734 23.72 480.734 25.08C480.734 26.28 481.094 27.16 481.814 27.72C482.561 28.28 483.507 28.56 484.654 28.56C486.467 28.56 487.974 28.0667 489.174 27.08C490.374 26.0667 490.974 24.52 490.974 22.44V20.52L487.814 20.64Z" fill="url(#paint0_linear_425_154)"/>
<defs>
<linearGradient id="paint0_linear_425_154" x1="247.5" y1="-2" x2="247.5" y2="43" gradientUnits="userSpaceOnUse">
<stop stop-color="#DE9F64"/>
<stop offset="1" stop-color="#8E531C"/>
</linearGradient>
</defs>
</svg>
