<svg width="379" height="251" viewBox="0 0 379 251" fill="none" xmlns="http://www.w3.org/2000/svg">
<path d="M72.5563 33V26.2H78.5563C84.7163 26.2 88.3963 22.04 88.3963 16.68C88.3963 10.04 82.3163 6.6 76.7963 6.6C69.1963 6.6 65.1963 11.32 64.0763 18.44L56.9563 17.08C58.4763 6.84 65.8363 0.199999 76.8763 0.199999C87.0363 0.199999 95.9163 5.72 95.9163 16.36C95.9163 22.52 92.5562 27 87.5163 28.92C94.7163 30.2 98.5563 36.12 98.5563 42.6C98.5563 54.84 88.1563 60.2 77.4363 60.2C66.6363 60.2 57.4362 55.08 55.3563 42.84L62.3163 40.92C63.6763 49.32 69.5163 53.8 77.4363 53.8C83.5163 53.8 90.7963 51.4 90.7963 42.52C90.7963 34.36 83.7563 33 78.5563 33H72.5563ZM115.507 18.04V1.4H152.627V52.28H158.707V74.92H151.107V59H110.947V74.92H103.347V52.28H105.587C114.787 52.28 115.507 31.08 115.507 18.04ZM145.027 52.28V8.2H123.107V13.96C123.107 28.44 122.627 48.76 115.267 52.28H145.027ZM208.882 59H168.322V1.4H208.082V8.2H175.922V26.2H204.082V33H175.922V52.2H208.882V59ZM222.516 30.2C222.516 43.56 228.356 53.8 241.156 53.8C249.796 53.8 255.156 48.44 257.476 40.36L265.236 41.88C262.676 52.68 254.276 60.2 241.156 60.2C223.556 60.2 214.516 46.76 214.516 30.2C214.516 13.64 223.556 0.199999 241.156 0.199999C254.276 0.199999 262.756 7.48 265.236 18.6L257.476 20.12C255.796 12.12 250.596 6.6 241.156 6.6C229.156 6.6 222.516 16.84 222.516 30.2ZM275.666 1.4H283.266V24.6H296.306C310.626 24.6 317.826 30.52 317.826 42.12C317.826 55.32 307.266 59 295.666 59H275.666V1.4ZM283.266 31.4V52.2H296.306C303.906 52.2 309.986 50.52 309.986 41.88C309.986 34.92 305.506 31.4 296.466 31.4H283.266ZM7.91406 147H0.314063V89.4H7.91406V114.2H37.6741V89.4H45.2741V147H37.6741V121H7.91406V147ZM74.8484 89.4H82.6084L104.848 147H96.6084L91.4084 133H65.4884L60.2084 147H52.4484L74.8484 89.4ZM78.6884 98.12L68.0484 126.2H88.9284L78.6884 98.12ZM115.572 147H106.452L128.612 117.16L109.092 89.4H118.132L133.092 111.48L149.172 89.4H157.412L137.332 116.76L159.012 147H149.572L132.692 122.76L115.572 147ZM160.648 118.2C160.648 101.64 170.488 88.2 188.088 88.2C205.608 88.2 215.448 101.64 215.448 118.2C215.448 134.76 205.608 148.2 188.088 148.2C170.488 148.2 160.648 134.76 160.648 118.2ZM168.648 118.2C168.648 131.56 175.288 141.8 188.088 141.8C200.008 141.8 207.448 131.56 207.448 118.2C207.448 104.84 200.008 94.6 188.088 94.6C176.088 94.6 168.648 104.84 168.648 118.2ZM229.218 106.04V89.4H266.338V140.28H272.418V162.92H264.818V147H224.658V162.92H217.058V140.28H219.298C228.498 140.28 229.218 119.08 229.218 106.04ZM258.738 140.28V96.2H236.818V101.96C236.818 116.44 236.338 136.76 228.978 140.28H258.738ZM324.193 89.4V147H316.593V123.8H308.353C299.473 123.8 295.393 129.4 290.993 137.32L285.553 147H276.433L284.193 133.64C287.073 128.68 290.753 123.72 296.593 122.04C287.553 121.08 282.033 115.08 282.033 106.28C282.033 93.48 292.593 89.4 304.193 89.4H324.193ZM316.593 117V96.2H303.553C295.953 96.2 289.873 98.68 289.873 106.52C289.873 113.48 294.353 117 303.393 117H316.593ZM359.115 147H351.515V96.2H332.155V89.4H378.475V96.2H359.115V147ZM37.6163 194.04V177.4H74.7363V228.28H80.8163V250.92H73.2163V235H33.0563V250.92H25.4563V228.28H27.6963C36.8963 228.28 37.6163 207.08 37.6163 194.04ZM67.1363 228.28V184.2H45.2162V189.96C45.2162 204.44 44.7363 224.76 37.3763 228.28H67.1363ZM98.0313 235H90.4313V177.4H110.431C122.031 177.4 132.591 181.08 132.591 194.28C132.591 205.88 125.391 211.8 111.071 211.8H98.0313V235ZM98.0313 184.2V205H111.231C120.271 205 124.751 201.48 124.751 194.52C124.751 185.88 118.671 184.2 111.071 184.2H98.0313ZM160.449 219.32L137.409 177.4H145.569L164.129 211.4L179.889 177.4H187.809L166.369 222.28C162.609 230.2 160.209 236.2 151.329 236.2C149.329 236.2 145.569 235.56 143.489 232.92L146.209 227.24C147.569 228.28 149.009 229.48 151.329 229.48C154.529 229.48 156.529 227.88 158.529 223.48L160.449 219.32ZM209.041 209V202.2H215.041C221.201 202.2 224.881 198.04 224.881 192.68C224.881 186.04 218.801 182.6 213.281 182.6C205.681 182.6 201.681 187.32 200.561 194.44L193.441 193.08C194.961 182.84 202.321 176.2 213.361 176.2C223.521 176.2 232.401 181.72 232.401 192.36C232.401 198.52 229.041 203 224.001 204.92C231.201 206.2 235.041 212.12 235.041 218.6C235.041 230.84 224.641 236.2 213.921 236.2C203.121 236.2 193.921 231.08 191.841 218.84L198.801 216.92C200.161 225.32 206.001 229.8 213.921 229.8C220.001 229.8 227.281 227.4 227.281 218.52C227.281 210.36 220.241 209 215.041 209H209.041ZM285.991 235H245.431V177.4H285.191V184.2H253.031V202.2H281.191V209H253.031V228.2H285.991V235ZM329.049 161.4H334.649C334.649 168.2 330.169 174.76 320.569 174.76C310.969 174.76 306.809 168.12 306.809 161.4H312.409C312.809 165.4 315.129 168.28 320.569 168.28C326.009 168.28 328.649 165.4 329.049 161.4ZM306.409 235H298.009V177.4H305.609V223.4L334.569 177.4H342.969V235H335.369V188.6L306.409 235Z" fill="url(#paint0_linear_301_362)"/>
<defs>
<linearGradient id="paint0_linear_301_362" x1="187" y1="-5" x2="187" y2="259" gradientUnits="userSpaceOnUse">
<stop stop-color="#DE9F64"/>
<stop offset="1" stop-color="#8E531C"/>
</linearGradient>
</defs>
</svg>
