<svg width="318" height="93" viewBox="0 0 318 93" fill="none" xmlns="http://www.w3.org/2000/svg">
<path d="M48.0465 20.08C46.4865 21.82 44.6565 22.45 42.7965 22.45C39.9165 22.45 37.4865 21.07 37.4865 17.89C37.4865 14.53 40.1265 13.18 43.6065 12.85C45.2565 12.7 47.0865 12.4 47.8665 12.04V11.44C47.8665 9.01 46.3365 8.11 44.2665 8.11C42.3165 8.11 41.0565 9.19 40.5165 11.23L37.9665 10.66C38.7465 7.06 41.5365 5.95 44.5365 5.95C48.7065 5.95 50.5665 8.05 50.5665 11.98V18.82C50.5665 20.41 50.8665 21.43 51.4065 22H48.6765C48.2265 21.58 48.1365 20.83 48.0465 20.08ZM47.8665 17.8V14.11C47.1765 14.44 45.4365 14.77 43.9065 15.01C42.2565 15.28 40.3065 15.64 40.3065 17.77C40.3065 19.75 41.7765 20.29 43.2165 20.29C45.2265 20.29 47.0565 18.85 47.8665 17.8ZM61.7045 8.65V6.4H74.4245V8.65H69.4145V22.03H66.7145V8.65H61.7045ZM86.6305 20.08C85.0705 21.82 83.2405 22.45 81.3805 22.45C78.5005 22.45 76.0705 21.07 76.0705 17.89C76.0705 14.53 78.7105 13.18 82.1905 12.85C83.8405 12.7 85.6705 12.4 86.4505 12.04V11.44C86.4505 9.01 84.9205 8.11 82.8505 8.11C80.9005 8.11 79.6405 9.19 79.1005 11.23L76.5505 10.66C77.3305 7.06 80.1205 5.95 83.1205 5.95C87.2905 5.95 89.1505 8.05 89.1505 11.98V18.82C89.1505 20.41 89.4505 21.43 89.9905 22H87.2605C86.8105 21.58 86.7205 20.83 86.6305 20.08ZM86.4505 17.8V14.11C85.7605 14.44 84.0205 14.77 82.4905 15.01C80.8405 15.28 78.8905 15.64 78.8905 17.77C78.8905 19.75 80.3605 20.29 81.8005 20.29C83.8105 20.29 85.6405 18.85 86.4505 17.8ZM93.2889 22V6.4H95.9889V13H97.2489C98.1489 13 99.1389 12.79 99.8889 11.56C100.399 10.72 101.269 8.44 101.539 7.96C102.379 6.49 103.249 6.25 104.989 6.25H105.529V8.74H104.779C103.369 8.74 103.279 9.7 102.829 10.84C102.109 12.64 101.269 13.63 100.099 13.93V14.05C101.239 14.32 102.469 15.25 103.339 16.81L106.219 22H103.069L100.519 17.2C99.7089 15.79 98.7489 15.25 97.5489 15.25H95.9889V22H93.2889ZM118.988 15.25V22H116.288V15.25H116.078C114.878 15.25 113.888 15.73 113.108 17.2L110.558 22H107.408L110.288 16.81C111.218 15.28 112.088 14.41 113.228 14.14V14.02C112.058 13.72 111.458 12.64 110.738 10.84C110.288 9.7 110.198 8.89 108.788 8.89H108.038V6.4H108.578C110.318 6.4 111.278 6.49 112.178 7.96C112.478 8.44 113.438 10.72 113.798 11.56C114.398 12.94 115.178 13 116.078 13H116.288V6.4H118.988V13H119.198C120.098 13 120.878 12.94 121.478 11.56C121.838 10.72 122.798 8.44 123.098 7.96C123.998 6.49 124.958 6.4 126.698 6.4H127.238V8.89H126.488C125.078 8.89 124.988 9.7 124.538 10.84C123.818 12.64 123.218 13.72 122.048 14.02V14.14C123.188 14.41 124.058 15.28 124.988 16.81L127.868 22H124.718L122.168 17.2C121.388 15.73 120.398 15.25 119.198 15.25H118.988ZM143.112 14.89H131.622C131.862 18.64 133.962 20.2 136.212 20.2C138.042 20.2 139.842 19.06 140.382 16.72L142.932 17.26C142.032 20.74 139.452 22.45 136.062 22.45C131.742 22.45 128.922 19.36 128.922 14.2C128.922 9.04 131.742 5.95 136.062 5.95C140.772 5.95 143.142 9.37 143.142 13.9C143.142 13.99 143.142 14.68 143.112 14.89ZM136.062 8.2C134.202 8.2 132.192 9.55 131.712 12.73H140.262C140.142 10.09 138.582 8.2 136.062 8.2ZM156.41 12.79V6.4H167.69V22H164.99V8.65H159.11V13.39C159.11 17.29 159.11 22.45 155.12 22.45C154.25 22.45 153.56 22.15 153.29 22V19.63C153.62 19.81 154.04 19.96 154.46 19.96C156.53 19.99 156.41 15.58 156.41 12.79ZM171.599 22V6.4H174.299V13H177.479C177.869 8.56 180.659 5.95 184.439 5.95C188.549 5.95 191.429 9.04 191.429 14.2C191.429 19.36 188.549 22.45 184.439 22.45C180.599 22.45 177.839 19.78 177.479 15.25H174.299V22H171.599ZM180.149 14.2C180.149 18.46 182.189 20.2 184.439 20.2C186.689 20.2 188.729 18.46 188.729 14.2C188.729 9.94 186.689 8.2 184.439 8.2C182.189 8.2 180.149 9.94 180.149 14.2ZM207.352 0.0999994L207.052 2.77C206.632 3.22 205.612 3.31 204.952 3.37L201.112 3.67C197.212 3.97 196.252 7.12 196.042 9.22C197.302 7.06 199.372 6.4 201.472 6.4C205.492 6.4 208.162 9.34 208.162 14.29C208.162 19.39 205.102 22.45 200.872 22.45C196.732 22.45 193.522 19.9 193.522 13C193.522 8.74 194.182 1.69 200.782 1.12L205.252 0.729998C206.122 0.64 206.932 0.49 207.352 0.0999994ZM196.282 14.41C196.282 18.67 198.562 20.2 200.872 20.2C203.182 20.2 205.462 18.67 205.462 14.41C205.462 10.15 203.182 8.65 200.872 8.65C198.862 8.65 196.282 10.15 196.282 14.41ZM210.25 14.2C210.25 9.04 213.22 5.95 217.54 5.95C221.86 5.95 224.83 9.04 224.83 14.2C224.83 19.36 221.86 22.45 217.54 22.45C213.22 22.45 210.25 19.36 210.25 14.2ZM212.95 14.2C212.95 18.46 215.17 20.2 217.54 20.2C219.91 20.2 222.13 18.46 222.13 14.2C222.13 9.94 219.91 8.2 217.54 8.2C215.17 8.2 212.95 9.94 212.95 14.2ZM227.82 22V6.4H233.64C236.55 6.4 239.7 7.12 239.7 10.57C239.7 12.04 239.01 13.15 237.78 13.9C239.37 14.35 240.45 16.09 240.39 17.65C240.24 20.89 237.75 22 234.57 22H227.82ZM230.52 8.65V13H233.01C234.72 13 236.94 12.88 236.94 10.81C236.94 8.74 235.02 8.65 233.1 8.65H230.52ZM230.52 15.25V19.75H233.67C235.68 19.75 237.57 19.69 237.63 17.53C237.63 15.37 236.04 15.25 233.4 15.25H230.52ZM243.406 22V6.4H246.106V12.55H249.166C252.496 12.55 255.526 13.48 255.526 17.29C255.526 20.74 252.646 22 250.066 22H243.406ZM246.106 14.71V19.84H249.196C251.386 19.84 252.766 19.15 252.766 17.29C252.766 15.43 251.416 14.71 249.466 14.71H246.106ZM266.726 22V6.4H269.426V18.31L276.716 6.4H279.626V22H276.926V10.18L269.636 22H266.726ZM3.52793 61H0.82793V39.4H3.22793V41.53C4.12793 40.03 5.56793 38.95 7.63793 38.95C11.9579 38.95 14.3279 42.34 14.3279 47.2C14.3279 52.06 11.9579 55.45 7.63793 55.45C5.77793 55.45 4.42793 54.61 3.52793 53.35V61ZM3.19793 47.2C3.19793 51.16 5.11793 53.2 7.48793 53.2C9.85793 53.2 11.6279 51.16 11.6279 47.2C11.6279 43.24 9.85793 41.2 7.48793 41.2C5.41793 41.2 3.19793 43.24 3.19793 47.2ZM26.9821 53.08C25.4221 54.82 23.5921 55.45 21.7321 55.45C18.8521 55.45 16.4221 54.07 16.4221 50.89C16.4221 47.53 19.0621 46.18 22.5421 45.85C24.1921 45.7 26.0221 45.4 26.8021 45.04V44.44C26.8021 42.01 25.2721 41.11 23.2021 41.11C21.2521 41.11 19.9921 42.19 19.4521 44.23L16.9021 43.66C17.6821 40.06 20.4721 38.95 23.4721 38.95C27.6421 38.95 29.5021 41.05 29.5021 44.98V51.82C29.5021 53.41 29.8021 54.43 30.3421 55H27.6121C27.1621 54.58 27.0721 53.83 26.9821 53.08ZM26.8021 50.8V47.11C26.1121 47.44 24.3721 47.77 22.8421 48.01C21.1921 48.28 19.2421 48.64 19.2421 50.77C19.2421 52.75 20.7121 53.29 22.1521 53.29C24.1621 53.29 25.9921 51.85 26.8021 50.8ZM35.6804 43.6V39.4H46.6604V52.75H48.7304V59.41H46.1804V55H34.6904V59.41H32.1404V52.75H32.7104C35.6804 52.75 35.6804 46.39 35.6804 43.6ZM36.2504 52.75H43.9604V41.65H38.3804V44.2C38.3804 47.05 38.1404 51.22 36.2504 52.75ZM49.9377 47.2C49.9377 42.04 52.9077 38.95 57.2277 38.95C61.5477 38.95 64.5177 42.04 64.5177 47.2C64.5177 52.36 61.5477 55.45 57.2277 55.45C52.9077 55.45 49.9377 52.36 49.9377 47.2ZM52.6377 47.2C52.6377 51.46 54.8577 53.2 57.2277 53.2C59.5977 53.2 61.8177 51.46 61.8177 47.2C61.8177 42.94 59.5977 41.2 57.2277 41.2C54.8577 41.2 52.6377 42.94 52.6377 47.2ZM69.3076 47.2C69.3076 51.46 71.3776 53.2 73.7476 53.2C75.5776 53.2 77.0476 52.15 77.6176 49.69L80.2276 50.29C79.3876 53.56 77.1076 55.45 73.7476 55.45C69.4276 55.45 66.6076 52.36 66.6076 47.2C66.6076 42.04 69.4276 38.95 73.7476 38.95C77.1076 38.95 79.3876 40.87 80.2276 44.14L77.6176 44.74C77.0476 42.25 75.5776 41.2 73.7476 41.2C71.3776 41.2 69.3076 42.94 69.3076 47.2ZM81.5971 41.65V39.4H94.3171V41.65H89.3071V55.03H86.6071V41.65H81.5971ZM96.8631 55V39.4H99.5631V45.55H102.623C105.953 45.55 108.983 46.48 108.983 50.29C108.983 53.74 106.103 55 103.523 55H96.8631ZM99.5631 47.71V52.84H102.653C104.843 52.84 106.223 52.15 106.223 50.29C106.223 48.43 104.873 47.71 102.923 47.71H99.5631ZM119.283 47.2C119.283 42.04 122.253 38.95 126.573 38.95C130.893 38.95 133.863 42.04 133.863 47.2C133.863 52.36 130.893 55.45 126.573 55.45C122.253 55.45 119.283 52.36 119.283 47.2ZM121.983 47.2C121.983 51.46 124.203 53.2 126.573 53.2C128.943 53.2 131.163 51.46 131.163 47.2C131.163 42.94 128.943 41.2 126.573 41.2C124.203 41.2 121.983 42.94 121.983 47.2ZM135.21 41.65V39.4H147.93V41.65H142.92V55.03H140.22V41.65H135.21ZM171.756 33.1L171.456 35.77C171.036 36.22 170.016 36.31 169.356 36.37L165.516 36.67C161.616 36.97 160.656 40.12 160.446 42.22C161.706 40.06 163.776 39.4 165.876 39.4C169.896 39.4 172.566 42.34 172.566 47.29C172.566 52.39 169.506 55.45 165.276 55.45C161.136 55.45 157.926 52.9 157.926 46C157.926 41.74 158.586 34.69 165.186 34.12L169.656 33.73C170.526 33.64 171.336 33.49 171.756 33.1ZM160.686 47.41C160.686 51.67 162.966 53.2 165.276 53.2C167.586 53.2 169.866 51.67 169.866 47.41C169.866 43.15 167.586 41.65 165.276 41.65C163.266 41.65 160.686 43.15 160.686 47.41ZM188.844 47.89H177.354C177.594 51.64 179.694 53.2 181.944 53.2C183.774 53.2 185.574 52.06 186.114 49.72L188.664 50.26C187.764 53.74 185.184 55.45 181.794 55.45C177.474 55.45 174.654 52.36 174.654 47.2C174.654 42.04 177.474 38.95 181.794 38.95C186.504 38.95 188.874 42.37 188.874 46.9C188.874 46.99 188.874 47.68 188.844 47.89ZM181.794 41.2C179.934 41.2 177.924 42.55 177.444 45.73H185.994C185.874 43.09 184.314 41.2 181.794 41.2ZM195.683 47.95V45.91C196.703 45.88 197.603 45.88 197.813 45.85C199.043 45.67 199.943 44.86 199.943 43.6C199.943 42.13 198.833 41.11 197.063 41.11C195.293 41.11 194.063 42.34 193.793 44.17L191.393 43.48C191.963 40.57 194.123 38.95 197.093 38.95C200.243 38.95 202.643 40.54 202.643 43.54C202.643 44.98 201.923 46.21 200.453 46.75C202.103 47.2 203.243 48.67 203.243 50.65C203.243 53.89 200.363 55.45 197.303 55.45C193.763 55.45 191.543 53.77 190.973 50.62L193.463 50.08C193.913 51.97 195.023 53.29 197.333 53.29C199.283 53.29 200.603 52.24 200.603 50.56C200.603 48.04 198.323 47.95 197.183 47.95H195.683ZM208.268 43.6V39.4H219.248V52.75H221.318V59.41H218.768V55H207.278V59.41H204.728V52.75H205.298C208.268 52.75 208.268 46.39 208.268 43.6ZM208.838 52.75H216.548V41.65H210.968V44.2C210.968 47.05 210.728 51.22 208.838 52.75ZM222.526 47.2C222.526 42.04 225.496 38.95 229.816 38.95C234.136 38.95 237.106 42.04 237.106 47.2C237.106 52.36 234.136 55.45 229.816 55.45C225.496 55.45 222.526 52.36 222.526 47.2ZM225.226 47.2C225.226 51.46 227.446 53.2 229.816 53.2C232.186 53.2 234.406 51.46 234.406 47.2C234.406 42.94 232.186 41.2 229.816 41.2C227.446 41.2 225.226 42.94 225.226 47.2ZM240.096 55V39.4H244.326L248.436 51.88L252.966 39.4H256.806V55H254.106V42.46L249.576 55H247.206L242.796 41.86V55H240.096ZM260.691 55V39.4H263.391V46H270.741V39.4H273.441V55H270.741V48.25H263.391V55H260.691ZM291.582 55V39.4H294.282V55H291.582ZM277.332 55V39.4H280.032V45.55H283.092C286.422 45.55 289.452 46.48 289.452 50.29C289.452 53.74 286.572 55 283.992 55H277.332ZM280.032 47.71V52.84H283.122C285.312 52.84 286.692 52.15 286.692 50.29C286.692 48.43 285.342 47.71 283.392 47.71H280.032ZM299.961 55H296.841L302.391 47.02L297.201 39.4H300.441L304.041 45.04L307.671 39.4H310.731L305.451 46.93L311.151 55H307.971L303.951 49L299.961 55ZM315.549 55H314.019V52H317.019V55C317.019 57.13 316.209 58.54 314.559 59.26L313.839 58.12C314.889 57.67 315.549 56.92 315.549 55ZM17.1316 88V72.4H19.8316V79H27.1816V72.4H29.8816V88H27.1816V81.25H19.8316V88H17.1316ZM32.8723 80.2C32.8723 75.04 35.8423 71.95 40.1623 71.95C44.4823 71.95 47.4523 75.04 47.4523 80.2C47.4523 85.36 44.4823 88.45 40.1623 88.45C35.8423 88.45 32.8723 85.36 32.8723 80.2ZM35.5723 80.2C35.5723 84.46 37.7923 86.2 40.1623 86.2C42.5323 86.2 44.7523 84.46 44.7523 80.2C44.7523 75.94 42.5323 74.2 40.1623 74.2C37.7923 74.2 35.5723 75.94 35.5723 80.2ZM60.7118 78.79V72.4H71.9918V88H69.2918V74.65H63.4118V79.39C63.4118 83.29 63.4118 88.45 59.4218 88.45C58.5518 88.45 57.8618 88.15 57.5918 88V85.63C57.9218 85.81 58.3418 85.96 58.7618 85.96C60.8318 85.99 60.7118 81.58 60.7118 78.79ZM75.9012 88V72.4H78.6012V79H81.7812C82.1712 74.56 84.9612 71.95 88.7412 71.95C92.8512 71.95 95.7312 75.04 95.7312 80.2C95.7312 85.36 92.8512 88.45 88.7412 88.45C84.9012 88.45 82.1412 85.78 81.7812 81.25H78.6012V88H75.9012ZM84.4512 80.2C84.4512 84.46 86.4912 86.2 88.7412 86.2C90.9912 86.2 93.0312 84.46 93.0312 80.2C93.0312 75.94 90.9912 74.2 88.7412 74.2C86.4912 74.2 84.4512 75.94 84.4512 80.2ZM111.653 66.1L111.353 68.77C110.933 69.22 109.913 69.31 109.253 69.37L105.413 69.67C101.513 69.97 100.553 73.12 100.343 75.22C101.603 73.06 103.673 72.4 105.773 72.4C109.793 72.4 112.463 75.34 112.463 80.29C112.463 85.39 109.403 88.45 105.173 88.45C101.033 88.45 97.8234 85.9 97.8234 79C97.8234 74.74 98.4834 67.69 105.083 67.12L109.553 66.73C110.423 66.64 111.233 66.49 111.653 66.1ZM100.583 80.41C100.583 84.67 102.863 86.2 105.173 86.2C107.483 86.2 109.763 84.67 109.763 80.41C109.763 76.15 107.483 74.65 105.173 74.65C103.163 74.65 100.583 76.15 100.583 80.41ZM120.942 72.4H127.572V88H124.872V81.97H123.642C121.242 81.97 120.312 82.87 119.322 84.61L117.372 88H114.102L116.292 84.28C117.222 82.72 118.272 81.61 119.442 81.43C116.802 81.19 115.272 79.66 115.272 77.05C115.272 73.9 117.672 72.4 120.942 72.4ZM124.872 79.78V74.65H121.482C118.992 74.65 118.092 75.61 118.092 77.14C118.092 79.42 120.042 79.78 122.262 79.78H124.872ZM150.557 72.4V85.75H152.627V92.41H150.077V88H131.477V72.4H134.177V85.75H139.667V72.4H142.367V85.75H147.857V72.4H150.557ZM155.032 88V72.4H157.732V84.31L165.022 72.4H167.932V88H165.232V76.18L157.942 88H155.032ZM173.589 88H170.469L176.019 80.02L170.829 72.4H174.069L177.669 78.04L181.299 72.4H184.359L179.079 79.93L184.779 88H181.599L177.579 82L173.589 88ZM195.667 88V72.4H198.367V79H199.627C200.527 79 201.517 78.79 202.267 77.56C202.777 76.72 203.647 74.44 203.917 73.96C204.757 72.49 205.627 72.25 207.367 72.25H207.907V74.74H207.157C205.747 74.74 205.657 75.7 205.207 76.84C204.487 78.64 203.647 79.63 202.477 79.93V80.05C203.617 80.32 204.847 81.25 205.717 82.81L208.597 88H205.447L202.897 83.2C202.087 81.79 201.127 81.25 199.927 81.25H198.367V88H195.667ZM209.65 80.2C209.65 75.04 212.62 71.95 216.94 71.95C221.26 71.95 224.23 75.04 224.23 80.2C224.23 85.36 221.26 88.45 216.94 88.45C212.62 88.45 209.65 85.36 209.65 80.2ZM212.35 80.2C212.35 84.46 214.57 86.2 216.94 86.2C219.31 86.2 221.53 84.46 221.53 80.2C221.53 75.94 219.31 74.2 216.94 74.2C214.57 74.2 212.35 75.94 212.35 80.2ZM225.577 74.65V72.4H238.297V74.65H233.287V88.03H230.587V74.65H225.577ZM240.843 88V72.4H243.543V84.31L250.833 72.4H253.743V88H251.043V76.18L243.753 88H240.843ZM257.63 88V72.4H260.33V79H261.59C262.49 79 263.48 78.79 264.23 77.56C264.74 76.72 265.61 74.44 265.88 73.96C266.72 72.49 267.59 72.25 269.33 72.25H269.87V74.74H269.12C267.71 74.74 267.62 75.7 267.17 76.84C266.45 78.64 265.61 79.63 264.44 79.93V80.05C265.58 80.32 266.81 81.25 267.68 82.81L270.56 88H267.41L264.86 83.2C264.05 81.79 263.09 81.25 261.89 81.25H260.33V88H257.63ZM271.613 80.2C271.613 75.04 274.583 71.95 278.903 71.95C283.223 71.95 286.193 75.04 286.193 80.2C286.193 85.36 283.223 88.45 278.903 88.45C274.583 88.45 271.613 85.36 271.613 80.2ZM274.312 80.2C274.312 84.46 276.533 86.2 278.903 86.2C281.273 86.2 283.493 84.46 283.493 80.2C283.493 75.94 281.273 74.2 278.903 74.2C276.533 74.2 274.312 75.94 274.312 80.2ZM289.182 88V72.4H295.002C297.912 72.4 301.062 73.12 301.062 76.57C301.062 78.04 300.372 79.15 299.142 79.9C300.732 80.35 301.812 82.09 301.752 83.65C301.602 86.89 299.112 88 295.932 88H289.182ZM291.882 74.65V79H294.372C296.082 79 298.302 78.88 298.302 76.81C298.302 74.74 296.382 74.65 294.462 74.65H291.882ZM291.882 81.25V85.75H295.032C297.042 85.75 298.932 85.69 298.992 83.53C298.992 81.37 297.402 81.25 294.762 81.25H291.882Z" fill="url(#paint0_linear_301_363)"/>
<defs>
<linearGradient id="paint0_linear_301_363" x1="159" y1="-2" x2="159" y2="115" gradientUnits="userSpaceOnUse">
<stop stop-color="#B57335"/>
<stop offset="1" stop-color="#926942"/>
</linearGradient>
</defs>
</svg>
