<svg width="503" height="213" viewBox="0 0 503 213" fill="none" xmlns="http://www.w3.org/2000/svg">
<path d="M20.1633 25.85C19.0966 28.2167 18.0133 30.2 16.9133 31.8C15.8466 33.3667 14.5799 34.55 13.1133 35.35C11.6466 36.1167 9.77995 36.5 7.51328 36.5C6.57995 36.5 5.69661 36.4333 4.86328 36.3C4.06328 36.1667 3.32995 35.9833 2.66328 35.75V31.3C3.32995 31.6 4.04661 31.85 4.81328 32.05C5.57995 32.2167 6.37995 32.3 7.21328 32.3C8.44662 32.3 9.49661 32.1333 10.3633 31.8C11.2633 31.4333 12.0466 30.85 12.7133 30.05C13.4133 29.25 14.0633 28.1833 14.6633 26.85L0.913281 0.299998H5.86328L15.8133 19.95C15.9466 20.1833 16.0799 20.4667 16.2133 20.8C16.3466 21.1 16.4799 21.4167 16.6133 21.75C16.7799 22.0833 16.9133 22.4 17.0133 22.7H17.2133C17.3133 22.4667 17.4133 22.2 17.5133 21.9C17.6466 21.5667 17.7633 21.25 17.8633 20.95C17.9966 20.6167 18.1133 20.3333 18.2133 20.1L26.8133 0.299998H31.5633L20.1633 25.85ZM40.2145 9.2V20.35H54.7645V9.2H59.1645V36H54.7645V24.05H40.2145V36H35.8145V9.2H40.2145ZM71.8004 25.55C71.8004 25.85 71.7837 26.2833 71.7504 26.85C71.7504 27.3833 71.7337 27.9667 71.7004 28.6C71.6671 29.2 71.6337 29.7833 71.6004 30.35C71.5671 30.8833 71.5337 31.3167 71.5004 31.65L85.8504 9.2H91.2504V36H87.1504V20.2C87.1504 19.6667 87.1504 18.9667 87.1504 18.1C87.1837 17.2333 87.2171 16.3833 87.2504 15.55C87.2837 14.6833 87.3171 14.0333 87.3504 13.6L73.1004 36H67.6504V9.2H71.8004V25.55ZM115.629 9.2H120.429L108.979 22.1L121.379 36H116.279L104.179 22.4V36H99.7793V9.2H104.179V22.2L115.629 9.2ZM136.394 8.75C139.661 8.75 142.077 9.46667 143.644 10.9C145.211 12.3333 145.994 14.6167 145.994 17.75V36H142.794L141.944 32.2H141.744C140.977 33.1667 140.177 33.9833 139.344 34.65C138.544 35.2833 137.611 35.75 136.544 36.05C135.511 36.35 134.244 36.5 132.744 36.5C131.144 36.5 129.694 36.2167 128.394 35.65C127.127 35.0833 126.127 34.2167 125.394 33.05C124.661 31.85 124.294 30.35 124.294 28.55C124.294 25.8833 125.344 23.8333 127.444 22.4C129.544 20.9333 132.777 20.1333 137.144 20L141.694 19.85V18.25C141.694 16.0167 141.211 14.4667 140.244 13.6C139.277 12.7333 137.911 12.3 136.144 12.3C134.744 12.3 133.411 12.5167 132.144 12.95C130.877 13.35 129.694 13.8167 128.594 14.35L127.244 11.05C128.411 10.4167 129.794 9.88333 131.394 9.45C132.994 8.98333 134.661 8.75 136.394 8.75ZM137.694 23.05C134.361 23.1833 132.044 23.7167 130.744 24.65C129.477 25.5833 128.844 26.9 128.844 28.6C128.844 30.1 129.294 31.2 130.194 31.9C131.127 32.6 132.311 32.95 133.744 32.95C136.011 32.95 137.894 32.3333 139.394 31.1C140.894 29.8333 141.644 27.9 141.644 25.3V22.9L137.694 23.05ZM174.671 36H170.221V12.85H162.321C161.988 17.0833 161.571 20.7 161.071 23.7C160.571 26.6667 159.938 29.0833 159.171 30.95C158.405 32.8167 157.488 34.1833 156.421 35.05C155.355 35.9167 154.105 36.35 152.671 36.35C152.238 36.35 151.805 36.3167 151.371 36.25C150.971 36.2167 150.638 36.1333 150.371 36V32.7C150.571 32.7667 150.788 32.8167 151.021 32.85C151.255 32.8833 151.488 32.9 151.721 32.9C152.455 32.9 153.121 32.6 153.721 32C154.321 31.4 154.855 30.4833 155.321 29.25C155.821 28.0167 156.271 26.4667 156.671 24.6C157.071 22.7 157.421 20.4667 157.721 17.9C158.021 15.3333 158.288 12.4333 158.521 9.2H174.671V36ZM195.528 20.2C197.861 20.2 199.794 20.4833 201.328 21.05C202.861 21.6167 204.011 22.4667 204.778 23.6C205.578 24.7 205.978 26.1 205.978 27.8C205.978 29.4667 205.594 30.9167 204.828 32.15C204.094 33.3833 202.944 34.3333 201.378 35C199.811 35.6667 197.794 36 195.328 36H183.178V9.2H187.578V20.2H195.528ZM201.578 28.05C201.578 26.4167 200.994 25.3167 199.828 24.75C198.694 24.15 197.094 23.85 195.028 23.85H187.578V32.45H195.128C196.994 32.45 198.528 32.1167 199.728 31.45C200.961 30.7833 201.578 29.65 201.578 28.05ZM217.265 9.2V20.35H231.815V9.2H236.215V36H231.815V24.05H217.265V36H212.865V9.2H217.265ZM244.701 36V9.2H249.101V20.2H256.051C258.385 20.2 260.301 20.4833 261.801 21.05C263.301 21.6167 264.418 22.4667 265.151 23.6C265.885 24.7 266.251 26.1 266.251 27.8C266.251 29.4667 265.885 30.9167 265.151 32.15C264.451 33.3833 263.335 34.3333 261.801 35C260.301 35.6667 258.318 36 255.851 36H244.701ZM255.451 32.45C257.351 32.45 258.901 32.1333 260.101 31.5C261.301 30.8333 261.901 29.6833 261.901 28.05C261.901 26.4167 261.351 25.3167 260.251 24.75C259.151 24.15 257.568 23.85 255.501 23.85H249.101V32.45H255.451ZM270.701 36V9.2H275.101V36H270.701ZM293.967 8.7C296.267 8.7 298.234 9.2 299.867 10.2C301.534 11.2 302.801 12.6167 303.667 14.45C304.567 16.25 305.017 18.3667 305.017 20.8V23.45H286.667C286.734 26.4833 287.501 28.8 288.967 30.4C290.467 31.9667 292.551 32.75 295.217 32.75C296.917 32.75 298.417 32.6 299.717 32.3C301.051 31.9667 302.417 31.5 303.817 30.9V34.75C302.451 35.35 301.101 35.7833 299.767 36.05C298.434 36.35 296.851 36.5 295.017 36.5C292.484 36.5 290.234 35.9833 288.267 34.95C286.334 33.9167 284.817 32.3833 283.717 30.35C282.651 28.2833 282.117 25.7667 282.117 22.8C282.117 19.8667 282.601 17.35 283.567 15.25C284.567 13.15 285.951 11.5333 287.717 10.4C289.517 9.26667 291.601 8.7 293.967 8.7ZM293.917 12.3C291.817 12.3 290.151 12.9833 288.917 14.35C287.717 15.6833 287.001 17.55 286.767 19.95H300.417C300.417 18.4167 300.184 17.0833 299.717 15.95C299.251 14.8167 298.534 13.9333 297.567 13.3C296.634 12.6333 295.417 12.3 293.917 12.3ZM341.85 9.2H346.65L335.2 22.1L347.6 36H342.5L330.4 22.4V36H326V9.2H330.4V22.2L341.85 9.2ZM374.788 22.55C374.788 24.7833 374.488 26.7667 373.888 28.5C373.322 30.2 372.488 31.65 371.388 32.85C370.322 34.05 369.005 34.9667 367.438 35.6C365.905 36.2 364.188 36.5 362.288 36.5C360.522 36.5 358.888 36.2 357.388 35.6C355.888 34.9667 354.588 34.05 353.488 32.85C352.388 31.65 351.522 30.2 350.888 28.5C350.288 26.7667 349.988 24.7833 349.988 22.55C349.988 19.5833 350.488 17.0833 351.488 15.05C352.488 12.9833 353.922 11.4167 355.788 10.35C357.655 9.25 359.872 8.7 362.438 8.7C364.872 8.7 367.005 9.25 368.838 10.35C370.705 11.4167 372.155 12.9833 373.188 15.05C374.255 17.0833 374.788 19.5833 374.788 22.55ZM354.538 22.55C354.538 24.65 354.805 26.4833 355.338 28.05C355.905 29.5833 356.772 30.7667 357.938 31.6C359.105 32.4333 360.588 32.85 362.388 32.85C364.188 32.85 365.672 32.4333 366.838 31.6C368.005 30.7667 368.855 29.5833 369.388 28.05C369.955 26.4833 370.238 24.65 370.238 22.55C370.238 20.4167 369.955 18.6 369.388 17.1C368.822 15.6 367.955 14.45 366.788 13.65C365.655 12.8167 364.172 12.4 362.338 12.4C359.605 12.4 357.622 13.3 356.388 15.1C355.155 16.9 354.538 19.3833 354.538 22.55ZM399.773 12.9H391.023V36H386.673V12.9H378.023V9.2H399.773V12.9ZM409.203 25.55C409.203 25.85 409.186 26.2833 409.153 26.85C409.153 27.3833 409.136 27.9667 409.103 28.6C409.069 29.2 409.036 29.7833 409.003 30.35C408.969 30.8833 408.936 31.3167 408.903 31.65L423.253 9.2H428.653V36H424.553V20.2C424.553 19.6667 424.553 18.9667 424.553 18.1C424.586 17.2333 424.619 16.3833 424.653 15.55C424.686 14.6833 424.719 14.0333 424.753 13.6L410.503 36H405.053V9.2H409.203V25.55ZM453.032 9.2H457.832L446.382 22.1L458.782 36H453.682L441.582 22.4V36H437.182V9.2H441.582V22.2L453.032 9.2ZM467.796 25.55C467.796 25.85 467.78 26.2833 467.746 26.85C467.746 27.3833 467.73 27.9667 467.696 28.6C467.663 29.2 467.63 29.7833 467.596 30.35C467.563 30.8833 467.53 31.3167 467.496 31.65L481.846 9.2H487.246V36H483.146V20.2C483.146 19.6667 483.146 18.9667 483.146 18.1C483.18 17.2333 483.213 16.3833 483.246 15.55C483.28 14.6833 483.313 14.0333 483.346 13.6L469.096 36H463.646V9.2H467.796V25.55ZM502.976 32.3379C502.976 33.0866 502.878 33.8516 502.683 34.6328C502.487 35.4141 502.211 36.1709 501.853 36.9033C501.511 37.652 501.104 38.3519 500.632 39.0029C500.16 39.6702 499.647 40.2562 499.094 40.7607L495.578 38.9053C495.92 38.6449 496.262 38.3031 496.604 37.8799C496.962 37.4567 497.173 37.0335 497.238 36.6104C496.766 36.4639 496.335 36.2523 495.944 35.9756C495.57 35.6989 495.244 35.3734 494.968 34.999C494.691 34.6084 494.471 34.1934 494.309 33.7539C494.162 33.2982 494.089 32.8262 494.089 32.3379C494.089 31.7357 494.203 31.166 494.431 30.6289C494.675 30.0755 494.992 29.6035 495.383 29.2129C495.79 28.806 496.262 28.4886 496.799 28.2607C497.336 28.0166 497.914 27.8945 498.532 27.8945C499.151 27.8945 499.729 28.0166 500.266 28.2607C500.803 28.4886 501.275 28.806 501.682 29.2129C502.089 29.6035 502.406 30.0755 502.634 30.6289C502.862 31.166 502.976 31.7357 502.976 32.3379ZM84.184 64.2H88.984L77.534 77.1L89.934 91H84.834L72.734 77.4V91H68.334V64.2H72.734V77.2L84.184 64.2ZM117.122 77.55C117.122 79.7833 116.822 81.7667 116.222 83.5C115.656 85.2 114.822 86.65 113.722 87.85C112.656 89.05 111.339 89.9667 109.772 90.6C108.239 91.2 106.522 91.5 104.622 91.5C102.856 91.5 101.222 91.2 99.7223 90.6C98.2223 89.9667 96.9223 89.05 95.8223 87.85C94.7223 86.65 93.8556 85.2 93.2223 83.5C92.6223 81.7667 92.3223 79.7833 92.3223 77.55C92.3223 74.5833 92.8223 72.0833 93.8223 70.05C94.8223 67.9833 96.2556 66.4167 98.1223 65.35C99.9889 64.25 102.206 63.7 104.772 63.7C107.206 63.7 109.339 64.25 111.172 65.35C113.039 66.4167 114.489 67.9833 115.522 70.05C116.589 72.0833 117.122 74.5833 117.122 77.55ZM96.8723 77.55C96.8723 79.65 97.1389 81.4833 97.6723 83.05C98.2389 84.5833 99.1056 85.7667 100.272 86.6C101.439 87.4333 102.922 87.85 104.722 87.85C106.522 87.85 108.006 87.4333 109.172 86.6C110.339 85.7667 111.189 84.5833 111.722 83.05C112.289 81.4833 112.572 79.65 112.572 77.55C112.572 75.4167 112.289 73.6 111.722 72.1C111.156 70.6 110.289 69.45 109.122 68.65C107.989 67.8167 106.506 67.4 104.672 67.4C101.939 67.4 99.9556 68.3 98.7223 70.1C97.4889 71.9 96.8723 74.3833 96.8723 77.55ZM142.107 67.9H133.357V91H129.007V67.9H120.357V64.2H142.107V67.9ZM170.198 77.55C170.198 79.7833 169.898 81.7667 169.298 83.5C168.732 85.2 167.898 86.65 166.798 87.85C165.732 89.05 164.415 89.9667 162.848 90.6C161.315 91.2 159.598 91.5 157.698 91.5C155.932 91.5 154.298 91.2 152.798 90.6C151.298 89.9667 149.998 89.05 148.898 87.85C147.798 86.65 146.932 85.2 146.298 83.5C145.698 81.7667 145.398 79.7833 145.398 77.55C145.398 74.5833 145.898 72.0833 146.898 70.05C147.898 67.9833 149.332 66.4167 151.198 65.35C153.065 64.25 155.282 63.7 157.848 63.7C160.282 63.7 162.415 64.25 164.248 65.35C166.115 66.4167 167.565 67.9833 168.598 70.05C169.665 72.0833 170.198 74.5833 170.198 77.55ZM149.948 77.55C149.948 79.65 150.215 81.4833 150.748 83.05C151.315 84.5833 152.182 85.7667 153.348 86.6C154.515 87.4333 155.998 87.85 157.798 87.85C159.598 87.85 161.082 87.4333 162.248 86.6C163.415 85.7667 164.265 84.5833 164.798 83.05C165.365 81.4833 165.648 79.65 165.648 77.55C165.648 75.4167 165.365 73.6 164.798 72.1C164.232 70.6 163.365 69.45 162.198 68.65C161.065 67.8167 159.582 67.4 157.748 67.4C155.015 67.4 153.032 68.3 151.798 70.1C150.565 71.9 149.948 74.3833 149.948 77.55ZM189.922 63.7C193.222 63.7 195.872 64.85 197.872 67.15C199.905 69.45 200.922 72.9167 200.922 77.55C200.922 80.5833 200.455 83.15 199.522 85.25C198.622 87.3167 197.339 88.8833 195.672 89.95C194.039 90.9833 192.105 91.5 189.872 91.5C188.505 91.5 187.289 91.3167 186.222 90.95C185.155 90.5833 184.239 90.1167 183.472 89.55C182.739 88.95 182.105 88.3 181.572 87.6H181.272C181.339 88.1667 181.405 88.8833 181.472 89.75C181.539 90.6167 181.572 91.3667 181.572 92V103H177.172V64.2H180.772L181.372 67.85H181.572C182.105 67.0833 182.739 66.3833 183.472 65.75C184.239 65.1167 185.139 64.6167 186.172 64.25C187.239 63.8833 188.489 63.7 189.922 63.7ZM189.122 67.4C187.322 67.4 185.872 67.75 184.772 68.45C183.672 69.1167 182.872 70.1333 182.372 71.5C181.872 72.8667 181.605 74.6 181.572 76.7V77.55C181.572 79.75 181.805 81.6167 182.272 83.15C182.739 84.6833 183.522 85.85 184.622 86.65C185.755 87.45 187.289 87.85 189.222 87.85C190.855 87.85 192.189 87.4 193.222 86.5C194.289 85.6 195.072 84.3833 195.572 82.85C196.105 81.2833 196.372 79.5 196.372 77.5C196.372 74.4333 195.772 71.9833 194.572 70.15C193.405 68.3167 191.589 67.4 189.122 67.4ZM207.934 91V64.2H212.334V75.2H219.284C221.617 75.2 223.534 75.4833 225.034 76.05C226.534 76.6167 227.65 77.4667 228.384 78.6C229.117 79.7 229.484 81.1 229.484 82.8C229.484 84.4667 229.117 85.9167 228.384 87.15C227.684 88.3833 226.567 89.3333 225.034 90C223.534 90.6667 221.55 91 219.084 91H207.934ZM218.684 87.45C220.584 87.45 222.134 87.1333 223.334 86.5C224.534 85.8333 225.134 84.6833 225.134 83.05C225.134 81.4167 224.584 80.3167 223.484 79.75C222.384 79.15 220.8 78.85 218.734 78.85H212.334V87.45H218.684ZM233.934 91V64.2H238.334V91H233.934ZM257.2 63.7C259.5 63.7 261.466 64.2 263.1 65.2C264.766 66.2 266.033 67.6167 266.9 69.45C267.8 71.25 268.25 73.3667 268.25 75.8V78.45H249.9C249.966 81.4833 250.733 83.8 252.2 85.4C253.7 86.9667 255.783 87.75 258.45 87.75C260.15 87.75 261.65 87.6 262.95 87.3C264.283 86.9667 265.65 86.5 267.05 85.9V89.75C265.683 90.35 264.333 90.7833 263 91.05C261.666 91.35 260.083 91.5 258.25 91.5C255.716 91.5 253.466 90.9833 251.5 89.95C249.566 88.9167 248.05 87.3833 246.95 85.35C245.883 83.2833 245.35 80.7667 245.35 77.8C245.35 74.8667 245.833 72.35 246.8 70.25C247.8 68.15 249.183 66.5333 250.95 65.4C252.75 64.2667 254.833 63.7 257.2 63.7ZM257.15 67.3C255.05 67.3 253.383 67.9833 252.15 69.35C250.95 70.6833 250.233 72.55 250 74.95H263.65C263.65 73.4167 263.416 72.0833 262.95 70.95C262.483 69.8167 261.766 68.9333 260.8 68.3C259.866 67.6333 258.65 67.3 257.15 67.3ZM299.982 91.5C297.616 91.5 295.499 91.0167 293.632 90.05C291.799 89.0833 290.349 87.5833 289.282 85.55C288.249 83.5167 287.732 80.9167 287.732 77.75C287.732 74.45 288.282 71.7667 289.382 69.7C290.482 67.6333 291.966 66.1167 293.832 65.15C295.732 64.1833 297.882 63.7 300.282 63.7C301.649 63.7 302.966 63.85 304.232 64.15C305.499 64.4167 306.532 64.75 307.332 65.15L305.982 68.8C305.182 68.5 304.249 68.2167 303.182 67.95C302.116 67.6833 301.116 67.55 300.182 67.55C298.382 67.55 296.899 67.9333 295.732 68.7C294.566 69.4667 293.699 70.6 293.132 72.1C292.566 73.6 292.282 75.4667 292.282 77.7C292.282 79.8333 292.566 81.65 293.132 83.15C293.699 84.65 294.549 85.7833 295.682 86.55C296.816 87.3167 298.232 87.7 299.932 87.7C301.399 87.7 302.682 87.55 303.782 87.25C304.916 86.95 305.949 86.5833 306.882 86.15V90.05C305.982 90.5167 304.982 90.8667 303.882 91.1C302.816 91.3667 301.516 91.5 299.982 91.5ZM331.756 67.9H323.006V91H318.656V67.9H310.006V64.2H331.756V67.9ZM347.185 63.75C350.452 63.75 352.868 64.4667 354.435 65.9C356.002 67.3333 356.785 69.6167 356.785 72.75V91H353.585L352.735 87.2H352.535C351.768 88.1667 350.968 88.9833 350.135 89.65C349.335 90.2833 348.402 90.75 347.335 91.05C346.302 91.35 345.035 91.5 343.535 91.5C341.935 91.5 340.485 91.2167 339.185 90.65C337.918 90.0833 336.918 89.2167 336.185 88.05C335.452 86.85 335.085 85.35 335.085 83.55C335.085 80.8833 336.135 78.8333 338.235 77.4C340.335 75.9333 343.568 75.1333 347.935 75L352.485 74.85V73.25C352.485 71.0167 352.002 69.4667 351.035 68.6C350.068 67.7333 348.702 67.3 346.935 67.3C345.535 67.3 344.202 67.5167 342.935 67.95C341.668 68.35 340.485 68.8167 339.385 69.35L338.035 66.05C339.202 65.4167 340.585 64.8833 342.185 64.45C343.785 63.9833 345.452 63.75 347.185 63.75ZM348.485 78.05C345.152 78.1833 342.835 78.7167 341.535 79.65C340.268 80.5833 339.635 81.9 339.635 83.6C339.635 85.1 340.085 86.2 340.985 86.9C341.918 87.6 343.102 87.95 344.535 87.95C346.802 87.95 348.685 87.3333 350.185 86.1C351.685 84.8333 352.435 82.9 352.435 80.3V77.9L348.485 78.05ZM369.463 64.2V75.35H384.013V64.2H388.413V91H384.013V79.05H369.463V91H365.063V64.2H369.463ZM392.698 64.2H397.398L403.198 79.45C403.532 80.35 403.832 81.2167 404.098 82.05C404.398 82.8833 404.665 83.7 404.898 84.5C405.132 85.2667 405.315 86.0167 405.448 86.75H405.648C405.848 85.9167 406.165 84.8333 406.598 83.5C407.032 82.1333 407.482 80.7667 407.948 79.4L413.398 64.2H418.148L406.598 94.7C405.965 96.3667 405.215 97.8167 404.348 99.05C403.515 100.317 402.482 101.283 401.248 101.95C400.048 102.65 398.582 103 396.848 103C396.048 103 395.348 102.95 394.748 102.85C394.148 102.783 393.632 102.7 393.198 102.6V99.1C393.565 99.1667 393.998 99.2333 394.498 99.3C395.032 99.3667 395.582 99.4 396.148 99.4C397.182 99.4 398.065 99.2 398.798 98.8C399.565 98.4333 400.215 97.8833 400.748 97.15C401.282 96.45 401.732 95.6167 402.098 94.65L403.498 91.1L392.698 64.2ZM440.887 67.9H432.137V91H427.787V67.9H419.137V64.2H440.887V67.9ZM56.0705 125.95C56.0705 127.617 55.5705 128.917 54.5705 129.85C53.5705 130.783 52.2872 131.417 50.7205 131.75V131.95C52.3872 132.183 53.8372 132.783 55.0705 133.75C56.3038 134.683 56.9205 136.15 56.9205 138.15C56.9205 139.283 56.7038 140.333 56.2705 141.3C55.8705 142.267 55.2372 143.1 54.3705 143.8C53.5038 144.5 52.3872 145.05 51.0205 145.45C49.6538 145.817 48.0038 146 46.0705 146H34.5205V119.2H46.0205C47.9205 119.2 49.6205 119.417 51.1205 119.85C52.6538 120.25 53.8538 120.95 54.7205 121.95C55.6205 122.917 56.0705 124.25 56.0705 125.95ZM52.3705 138.15C52.3705 136.617 51.7872 135.517 50.6205 134.85C49.4538 134.183 47.7372 133.85 45.4705 133.85H38.9205V142.45H45.5705C47.7705 142.45 49.4538 142.133 50.6205 141.5C51.7872 140.833 52.3705 139.717 52.3705 138.15ZM51.6205 126.5C51.6205 125.233 51.1538 124.317 50.2205 123.75C49.3205 123.15 47.8372 122.85 45.7705 122.85H38.9205V130.2H44.9705C47.1372 130.2 48.7872 129.9 49.9205 129.3C51.0538 128.7 51.6205 127.767 51.6205 126.5ZM73.4791 118.75C76.7458 118.75 79.1624 119.467 80.7291 120.9C82.2958 122.333 83.0791 124.617 83.0791 127.75V146H79.8791L79.0291 142.2H78.8291C78.0624 143.167 77.2624 143.983 76.4291 144.65C75.6291 145.283 74.6958 145.75 73.6291 146.05C72.5958 146.35 71.3291 146.5 69.8291 146.5C68.2291 146.5 66.7791 146.217 65.4791 145.65C64.2124 145.083 63.2124 144.217 62.4791 143.05C61.7458 141.85 61.3791 140.35 61.3791 138.55C61.3791 135.883 62.4291 133.833 64.5291 132.4C66.6291 130.933 69.8624 130.133 74.2291 130L78.7791 129.85V128.25C78.7791 126.017 78.2958 124.467 77.3291 123.6C76.3624 122.733 74.9958 122.3 73.2291 122.3C71.8291 122.3 70.4958 122.517 69.2291 122.95C67.9624 123.35 66.7791 123.817 65.6791 124.35L64.3291 121.05C65.4958 120.417 66.8791 119.883 68.4791 119.45C70.0791 118.983 71.7458 118.75 73.4791 118.75ZM74.7791 133.05C71.4458 133.183 69.1291 133.717 67.8291 134.65C66.5624 135.583 65.9291 136.9 65.9291 138.6C65.9291 140.1 66.3791 141.2 67.2791 141.9C68.2124 142.6 69.3958 142.95 70.8291 142.95C73.0958 142.95 74.9791 142.333 76.4791 141.1C77.9791 139.833 78.7291 137.9 78.7291 135.3V132.9L74.7791 133.05ZM127.706 119.2V146H91.3564V119.2H95.7564V142.3H107.306V119.2H111.706V142.3H123.306V119.2H127.706ZM140.428 135.55C140.428 135.85 140.412 136.283 140.378 136.85C140.378 137.383 140.362 137.967 140.328 138.6C140.295 139.2 140.262 139.783 140.228 140.35C140.195 140.883 140.162 141.317 140.128 141.65L154.478 119.2H159.878V146H155.778V130.2C155.778 129.667 155.778 128.967 155.778 128.1C155.812 127.233 155.845 126.383 155.878 125.55C155.912 124.683 155.945 124.033 155.978 123.6L141.728 146H136.278V119.2H140.428V135.55ZM197.157 119.2V146H193.207V128.9C193.207 128.2 193.224 127.467 193.257 126.7C193.324 125.933 193.391 125.183 193.457 124.45H193.307L184.557 146H180.857L172.357 124.45H172.207C172.274 125.183 172.307 125.933 172.307 126.7C172.341 127.467 172.357 128.25 172.357 129.05V146H168.407V119.2H174.257L182.707 140.75L191.307 119.2H197.157ZM209.862 135.55C209.862 135.85 209.845 136.283 209.812 136.85C209.812 137.383 209.795 137.967 209.762 138.6C209.729 139.2 209.695 139.783 209.662 140.35C209.629 140.883 209.595 141.317 209.562 141.65L223.912 119.2H229.312V146H225.212V130.2C225.212 129.667 225.212 128.967 225.212 128.1C225.245 127.233 225.279 126.383 225.312 125.55C225.345 124.683 225.379 124.033 225.412 123.6L211.162 146H205.712V119.2H209.862V135.55ZM273.551 125.95C273.551 127.617 273.051 128.917 272.051 129.85C271.051 130.783 269.768 131.417 268.201 131.75V131.95C269.868 132.183 271.318 132.783 272.551 133.75C273.784 134.683 274.401 136.15 274.401 138.15C274.401 139.283 274.184 140.333 273.751 141.3C273.351 142.267 272.718 143.1 271.851 143.8C270.984 144.5 269.868 145.05 268.501 145.45C267.134 145.817 265.484 146 263.551 146H252.001V119.2H263.501C265.401 119.2 267.101 119.417 268.601 119.85C270.134 120.25 271.334 120.95 272.201 121.95C273.101 122.917 273.551 124.25 273.551 125.95ZM269.851 138.15C269.851 136.617 269.268 135.517 268.101 134.85C266.934 134.183 265.218 133.85 262.951 133.85H256.401V142.45H263.051C265.251 142.45 266.934 142.133 268.101 141.5C269.268 140.833 269.851 139.717 269.851 138.15ZM269.101 126.5C269.101 125.233 268.634 124.317 267.701 123.75C266.801 123.15 265.318 122.85 263.251 122.85H256.401V130.2H262.451C264.618 130.2 266.268 129.9 267.401 129.3C268.534 128.7 269.101 127.767 269.101 126.5ZM291.16 118.7C293.46 118.7 295.426 119.2 297.06 120.2C298.726 121.2 299.993 122.617 300.86 124.45C301.76 126.25 302.21 128.367 302.21 130.8V133.45H283.86C283.926 136.483 284.693 138.8 286.16 140.4C287.66 141.967 289.743 142.75 292.41 142.75C294.11 142.75 295.61 142.6 296.91 142.3C298.243 141.967 299.61 141.5 301.01 140.9V144.75C299.643 145.35 298.293 145.783 296.96 146.05C295.626 146.35 294.043 146.5 292.21 146.5C289.676 146.5 287.426 145.983 285.46 144.95C283.526 143.917 282.01 142.383 280.91 140.35C279.843 138.283 279.31 135.767 279.31 132.8C279.31 129.867 279.793 127.35 280.76 125.25C281.76 123.15 283.143 121.533 284.91 120.4C286.71 119.267 288.793 118.7 291.16 118.7ZM291.11 122.3C289.01 122.3 287.343 122.983 286.11 124.35C284.91 125.683 284.193 127.55 283.96 129.95H297.61C297.61 128.417 297.376 127.083 296.91 125.95C296.443 124.817 295.726 123.933 294.76 123.3C293.826 122.633 292.61 122.3 291.11 122.3ZM321.782 118.7C325.082 118.7 327.732 119.85 329.732 122.15C331.766 124.45 332.782 127.917 332.782 132.55C332.782 135.583 332.316 138.15 331.382 140.25C330.482 142.317 329.199 143.883 327.532 144.95C325.899 145.983 323.966 146.5 321.732 146.5C320.366 146.5 319.149 146.317 318.082 145.95C317.016 145.583 316.099 145.117 315.332 144.55C314.599 143.95 313.966 143.3 313.432 142.6H313.132C313.199 143.167 313.266 143.883 313.332 144.75C313.399 145.617 313.432 146.367 313.432 147V158H309.032V119.2H312.632L313.232 122.85H313.432C313.966 122.083 314.599 121.383 315.332 120.75C316.099 120.117 316.999 119.617 318.032 119.25C319.099 118.883 320.349 118.7 321.782 118.7ZM320.982 122.4C319.182 122.4 317.732 122.75 316.632 123.45C315.532 124.117 314.732 125.133 314.232 126.5C313.732 127.867 313.466 129.6 313.432 131.7V132.55C313.432 134.75 313.666 136.617 314.132 138.15C314.599 139.683 315.382 140.85 316.482 141.65C317.616 142.45 319.149 142.85 321.082 142.85C322.716 142.85 324.049 142.4 325.082 141.5C326.149 140.6 326.932 139.383 327.432 137.85C327.966 136.283 328.232 134.5 328.232 132.5C328.232 129.433 327.632 126.983 326.432 125.15C325.266 123.317 323.449 122.4 320.982 122.4ZM344.194 119.2V130.35H358.744V119.2H363.144V146H358.744V134.05H344.194V146H339.794V119.2H344.194ZM371.63 146V119.2H376.03V130.2H382.98C385.313 130.2 387.23 130.483 388.73 131.05C390.23 131.617 391.347 132.467 392.08 133.6C392.813 134.7 393.18 136.1 393.18 137.8C393.18 139.467 392.813 140.917 392.08 142.15C391.38 143.383 390.263 144.333 388.73 145C387.23 145.667 385.247 146 382.78 146H371.63ZM382.38 142.45C384.28 142.45 385.83 142.133 387.03 141.5C388.23 140.833 388.83 139.683 388.83 138.05C388.83 136.417 388.28 135.317 387.18 134.75C386.08 134.15 384.497 133.85 382.43 133.85H376.03V142.45H382.38ZM397.63 146V119.2H402.03V146H397.63ZM439.296 119.2V146H435.346V128.9C435.346 128.2 435.363 127.467 435.396 126.7C435.463 125.933 435.529 125.183 435.596 124.45H435.446L426.696 146H422.996L414.496 124.45H414.346C414.413 125.183 414.446 125.933 414.446 126.7C414.479 127.467 414.496 128.25 414.496 129.05V146H410.546V119.2H416.396L424.846 140.75L433.446 119.2H439.296ZM452.001 135.55C452.001 135.85 451.984 136.283 451.951 136.85C451.951 137.383 451.934 137.967 451.901 138.6C451.867 139.2 451.834 139.783 451.801 140.35C451.767 140.883 451.734 141.317 451.701 141.65L466.051 119.2H471.451V146H467.351V130.2C467.351 129.667 467.351 128.967 467.351 128.1C467.384 127.233 467.417 126.383 467.451 125.55C467.484 124.683 467.517 124.033 467.551 123.6L453.301 146H447.851V119.2H452.001V135.55ZM158.962 174.2V197.3H162.862V210.3H158.612V201H139.962V210.3H135.762V197.3H137.912C139.445 195.167 140.712 192.85 141.712 190.35C142.745 187.817 143.512 185.183 144.012 182.45C144.545 179.683 144.828 176.933 144.862 174.2H158.962ZM148.762 177.65C148.628 179.917 148.278 182.267 147.712 184.7C147.145 187.1 146.412 189.4 145.512 191.6C144.645 193.8 143.628 195.7 142.462 197.3H154.712V177.65H148.762ZM180.864 173.7C184.164 173.7 186.814 174.85 188.814 177.15C190.848 179.45 191.864 182.917 191.864 187.55C191.864 190.583 191.398 193.15 190.464 195.25C189.564 197.317 188.281 198.883 186.614 199.95C184.981 200.983 183.048 201.5 180.814 201.5C179.448 201.5 178.231 201.317 177.164 200.95C176.098 200.583 175.181 200.117 174.414 199.55C173.681 198.95 173.048 198.3 172.514 197.6H172.214C172.281 198.167 172.348 198.883 172.414 199.75C172.481 200.617 172.514 201.367 172.514 202V213H168.114V174.2H171.714L172.314 177.85H172.514C173.048 177.083 173.681 176.383 174.414 175.75C175.181 175.117 176.081 174.617 177.114 174.25C178.181 173.883 179.431 173.7 180.864 173.7ZM180.064 177.4C178.264 177.4 176.814 177.75 175.714 178.45C174.614 179.117 173.814 180.133 173.314 181.5C172.814 182.867 172.548 184.6 172.514 186.7V187.55C172.514 189.75 172.748 191.617 173.214 193.15C173.681 194.683 174.464 195.85 175.564 196.65C176.698 197.45 178.231 197.85 180.164 197.85C181.798 197.85 183.131 197.4 184.164 196.5C185.231 195.6 186.014 194.383 186.514 192.85C187.048 191.283 187.314 189.5 187.314 187.5C187.314 184.433 186.714 181.983 185.514 180.15C184.348 178.317 182.531 177.4 180.064 177.4ZM194.188 174.2H198.888L204.688 189.45C205.021 190.35 205.321 191.217 205.588 192.05C205.888 192.883 206.154 193.7 206.388 194.5C206.621 195.267 206.804 196.017 206.938 196.75H207.138C207.338 195.917 207.654 194.833 208.088 193.5C208.521 192.133 208.971 190.767 209.438 189.4L214.888 174.2H219.638L208.088 204.7C207.454 206.367 206.704 207.817 205.838 209.05C205.004 210.317 203.971 211.283 202.738 211.95C201.538 212.65 200.071 213 198.338 213C197.538 213 196.838 212.95 196.238 212.85C195.638 212.783 195.121 212.7 194.688 212.6V209.1C195.054 209.167 195.488 209.233 195.988 209.3C196.521 209.367 197.071 209.4 197.638 209.4C198.671 209.4 199.554 209.2 200.288 208.8C201.054 208.433 201.704 207.883 202.238 207.15C202.771 206.45 203.221 205.617 203.588 204.65L204.988 201.1L194.188 174.2ZM230.926 173.7C232.959 173.7 234.726 173.983 236.226 174.55C237.726 175.083 238.893 175.883 239.726 176.95C240.559 177.983 240.976 179.25 240.976 180.75C240.976 182.383 240.526 183.683 239.626 184.65C238.726 185.583 237.493 186.267 235.926 186.7V186.9C236.993 187.2 237.976 187.617 238.876 188.15C239.776 188.683 240.493 189.383 241.026 190.25C241.593 191.117 241.876 192.233 241.876 193.6C241.876 195.067 241.459 196.4 240.626 197.6C239.826 198.8 238.576 199.75 236.876 200.45C235.209 201.15 233.059 201.5 230.426 201.5C229.159 201.5 227.943 201.433 226.776 201.3C225.643 201.167 224.609 200.967 223.676 200.7C222.776 200.433 221.976 200.117 221.276 199.75V195.8C222.409 196.333 223.743 196.817 225.276 197.25C226.843 197.683 228.543 197.9 230.376 197.9C231.709 197.9 232.909 197.75 233.976 197.45C235.076 197.15 235.943 196.683 236.576 196.05C237.209 195.383 237.526 194.483 237.526 193.35C237.526 192.317 237.243 191.483 236.676 190.85C236.109 190.183 235.259 189.683 234.126 189.35C233.026 189.017 231.609 188.85 229.876 188.85H226.276V185.25H229.176C231.476 185.25 233.309 184.95 234.676 184.35C236.076 183.717 236.776 182.65 236.776 181.15C236.776 179.883 236.243 178.933 235.176 178.3C234.143 177.667 232.643 177.35 230.676 177.35C229.209 177.35 227.909 177.5 226.776 177.8C225.676 178.067 224.459 178.483 223.126 179.05L221.576 175.55C223.009 174.917 224.509 174.45 226.076 174.15C227.643 173.85 229.259 173.7 230.926 173.7ZM260.738 185.2C263.071 185.2 265.004 185.483 266.538 186.05C268.071 186.617 269.221 187.467 269.988 188.6C270.788 189.7 271.188 191.1 271.188 192.8C271.188 194.467 270.804 195.917 270.038 197.15C269.304 198.383 268.154 199.333 266.588 200C265.021 200.667 263.004 201 260.538 201H248.388V174.2H252.788V185.2H260.738ZM266.788 193.05C266.788 191.417 266.204 190.317 265.038 189.75C263.904 189.15 262.304 188.85 260.238 188.85H252.788V197.45H260.338C262.204 197.45 263.738 197.117 264.938 196.45C266.171 195.783 266.788 194.65 266.788 193.05ZM279.725 201H274.625L282.275 189.75C281.242 189.483 280.242 189.067 279.275 188.5C278.309 187.9 277.525 187.083 276.925 186.05C276.325 184.983 276.025 183.667 276.025 182.1C276.025 179.533 276.892 177.583 278.625 176.25C280.359 174.883 282.659 174.2 285.525 174.2H297.525V201H293.125V190.35H286.625L279.725 201ZM280.275 182.15C280.275 183.683 280.842 184.833 281.975 185.6C283.142 186.333 284.759 186.7 286.825 186.7H293.125V177.85H285.975C283.942 177.85 282.475 178.25 281.575 179.05C280.709 179.85 280.275 180.883 280.275 182.15ZM334.755 174.2V201H330.805V183.9C330.805 183.2 330.822 182.467 330.855 181.7C330.922 180.933 330.988 180.183 331.055 179.45H330.905L322.155 201H318.455L309.955 179.45H309.805C309.872 180.183 309.905 180.933 309.905 181.7C309.938 182.467 309.955 183.25 309.955 184.05V201H306.005V174.2H311.855L320.305 195.75L328.905 174.2H334.755ZM347.46 190.55C347.46 190.85 347.443 191.283 347.41 191.85C347.41 192.383 347.393 192.967 347.36 193.6C347.326 194.2 347.293 194.783 347.26 195.35C347.226 195.883 347.193 196.317 347.16 196.65L361.51 174.2H366.91V201H362.81V185.2C362.81 184.667 362.81 183.967 362.81 183.1C362.843 182.233 362.876 181.383 362.91 180.55C362.943 179.683 362.976 179.033 363.01 178.6L348.76 201H343.31V174.2H347.46V190.55Z" fill="url(#paint0_linear_301_362)"/>
<defs>
<linearGradient id="paint0_linear_301_362" x1="253" y1="-6" x2="253" y2="204" gradientUnits="userSpaceOnUse">
<stop stop-color="#DE9F64"/>
<stop offset="1" stop-color="#8E531C"/>
</linearGradient>
</defs>
</svg>
